G04 #@! TF.GenerationSoftware,KiCad,Pcbnew,(5.1.0)-1*
G04 #@! TF.CreationDate,2020-10-23T23:32:42+03:00*
G04 #@! TF.ProjectId,kitchen_sink,6b697463-6865-46e5-9f73-696e6b2e6b69,rev?*
G04 #@! TF.SameCoordinates,Original*
G04 #@! TF.FileFunction,Soldermask,Top*
G04 #@! TF.FilePolarity,Negative*
%FSLAX46Y46*%
G04 Gerber Fmt 4.6, Leading zero omitted, Abs format (unit mm)*
G04 Created by KiCad (PCBNEW (5.1.0)-1) date 2020-10-23 23:32:42*
%MOMM*%
%LPD*%
G04 APERTURE LIST*
%ADD10C,0.100000*%
G04 APERTURE END LIST*
D10*
G36*
X142869256Y-110151298D02*
G01*
X142975579Y-110172447D01*
X143276042Y-110296903D01*
X143546451Y-110477585D01*
X143776415Y-110707549D01*
X143957097Y-110977958D01*
X144081553Y-111278421D01*
X144145000Y-111597391D01*
X144145000Y-111922609D01*
X144081553Y-112241579D01*
X143957097Y-112542042D01*
X143776415Y-112812451D01*
X143546451Y-113042415D01*
X143276042Y-113223097D01*
X142975579Y-113347553D01*
X142869256Y-113368702D01*
X142656611Y-113411000D01*
X142331389Y-113411000D01*
X142118744Y-113368702D01*
X142012421Y-113347553D01*
X141711958Y-113223097D01*
X141441549Y-113042415D01*
X141211585Y-112812451D01*
X141030903Y-112542042D01*
X140906447Y-112241579D01*
X140843000Y-111922609D01*
X140843000Y-111597391D01*
X140906447Y-111278421D01*
X141030903Y-110977958D01*
X141211585Y-110707549D01*
X141441549Y-110477585D01*
X141711958Y-110296903D01*
X142012421Y-110172447D01*
X142118744Y-110151298D01*
X142331389Y-110109000D01*
X142656611Y-110109000D01*
X142869256Y-110151298D01*
X142869256Y-110151298D01*
G37*
G36*
X80385256Y-110151298D02*
G01*
X80491579Y-110172447D01*
X80792042Y-110296903D01*
X81062451Y-110477585D01*
X81292415Y-110707549D01*
X81473097Y-110977958D01*
X81597553Y-111278421D01*
X81661000Y-111597391D01*
X81661000Y-111922609D01*
X81597553Y-112241579D01*
X81473097Y-112542042D01*
X81292415Y-112812451D01*
X81062451Y-113042415D01*
X80792042Y-113223097D01*
X80491579Y-113347553D01*
X80385256Y-113368702D01*
X80172611Y-113411000D01*
X79847389Y-113411000D01*
X79634744Y-113368702D01*
X79528421Y-113347553D01*
X79227958Y-113223097D01*
X78957549Y-113042415D01*
X78727585Y-112812451D01*
X78546903Y-112542042D01*
X78422447Y-112241579D01*
X78359000Y-111922609D01*
X78359000Y-111597391D01*
X78422447Y-111278421D01*
X78546903Y-110977958D01*
X78727585Y-110707549D01*
X78957549Y-110477585D01*
X79227958Y-110296903D01*
X79528421Y-110172447D01*
X79634744Y-110151298D01*
X79847389Y-110109000D01*
X80172611Y-110109000D01*
X80385256Y-110151298D01*
X80385256Y-110151298D01*
G37*
G36*
X127393000Y-109867000D02*
G01*
X125591000Y-109867000D01*
X125591000Y-108065000D01*
X127393000Y-108065000D01*
X127393000Y-109867000D01*
X127393000Y-109867000D01*
G37*
G36*
X131682443Y-108071519D02*
G01*
X131748627Y-108078037D01*
X131918466Y-108129557D01*
X132074991Y-108213222D01*
X132097901Y-108232024D01*
X132212186Y-108325814D01*
X132295448Y-108427271D01*
X132324778Y-108463009D01*
X132408443Y-108619534D01*
X132459963Y-108789373D01*
X132477359Y-108966000D01*
X132459963Y-109142627D01*
X132408443Y-109312466D01*
X132324778Y-109468991D01*
X132295448Y-109504729D01*
X132212186Y-109606186D01*
X132110729Y-109689448D01*
X132074991Y-109718778D01*
X131918466Y-109802443D01*
X131748627Y-109853963D01*
X131682443Y-109860481D01*
X131616260Y-109867000D01*
X131527740Y-109867000D01*
X131461557Y-109860481D01*
X131395373Y-109853963D01*
X131225534Y-109802443D01*
X131069009Y-109718778D01*
X131033271Y-109689448D01*
X130931814Y-109606186D01*
X130848552Y-109504729D01*
X130819222Y-109468991D01*
X130735557Y-109312466D01*
X130684037Y-109142627D01*
X130666641Y-108966000D01*
X130684037Y-108789373D01*
X130735557Y-108619534D01*
X130819222Y-108463009D01*
X130848552Y-108427271D01*
X130931814Y-108325814D01*
X131046099Y-108232024D01*
X131069009Y-108213222D01*
X131225534Y-108129557D01*
X131395373Y-108078037D01*
X131461557Y-108071519D01*
X131527740Y-108065000D01*
X131616260Y-108065000D01*
X131682443Y-108071519D01*
X131682443Y-108071519D01*
G37*
G36*
X129142443Y-108071519D02*
G01*
X129208627Y-108078037D01*
X129378466Y-108129557D01*
X129534991Y-108213222D01*
X129557901Y-108232024D01*
X129672186Y-108325814D01*
X129755448Y-108427271D01*
X129784778Y-108463009D01*
X129868443Y-108619534D01*
X129919963Y-108789373D01*
X129937359Y-108966000D01*
X129919963Y-109142627D01*
X129868443Y-109312466D01*
X129784778Y-109468991D01*
X129755448Y-109504729D01*
X129672186Y-109606186D01*
X129570729Y-109689448D01*
X129534991Y-109718778D01*
X129378466Y-109802443D01*
X129208627Y-109853963D01*
X129142443Y-109860481D01*
X129076260Y-109867000D01*
X128987740Y-109867000D01*
X128921557Y-109860481D01*
X128855373Y-109853963D01*
X128685534Y-109802443D01*
X128529009Y-109718778D01*
X128493271Y-109689448D01*
X128391814Y-109606186D01*
X128308552Y-109504729D01*
X128279222Y-109468991D01*
X128195557Y-109312466D01*
X128144037Y-109142627D01*
X128126641Y-108966000D01*
X128144037Y-108789373D01*
X128195557Y-108619534D01*
X128279222Y-108463009D01*
X128308552Y-108427271D01*
X128391814Y-108325814D01*
X128506099Y-108232024D01*
X128529009Y-108213222D01*
X128685534Y-108129557D01*
X128855373Y-108078037D01*
X128921557Y-108071519D01*
X128987740Y-108065000D01*
X129076260Y-108065000D01*
X129142443Y-108071519D01*
X129142443Y-108071519D01*
G37*
G36*
X91688228Y-106623703D02*
G01*
X91843100Y-106687853D01*
X91982481Y-106780985D01*
X92101015Y-106899519D01*
X92194147Y-107038900D01*
X92258297Y-107193772D01*
X92291000Y-107358184D01*
X92291000Y-107525816D01*
X92258297Y-107690228D01*
X92194147Y-107845100D01*
X92101015Y-107984481D01*
X91982481Y-108103015D01*
X91843100Y-108196147D01*
X91688228Y-108260297D01*
X91523816Y-108293000D01*
X91356184Y-108293000D01*
X91191772Y-108260297D01*
X91036900Y-108196147D01*
X90897519Y-108103015D01*
X90778985Y-107984481D01*
X90685853Y-107845100D01*
X90621703Y-107690228D01*
X90589000Y-107525816D01*
X90589000Y-107358184D01*
X90621703Y-107193772D01*
X90685853Y-107038900D01*
X90778985Y-106899519D01*
X90897519Y-106780985D01*
X91036900Y-106687853D01*
X91191772Y-106623703D01*
X91356184Y-106591000D01*
X91523816Y-106591000D01*
X91688228Y-106623703D01*
X91688228Y-106623703D01*
G37*
G36*
X83986823Y-106603313D02*
G01*
X84147242Y-106651976D01*
X84272635Y-106719000D01*
X84295078Y-106730996D01*
X84424659Y-106837341D01*
X84531004Y-106966922D01*
X84531005Y-106966924D01*
X84610024Y-107114758D01*
X84658687Y-107275177D01*
X84675117Y-107442000D01*
X84658687Y-107608823D01*
X84610024Y-107769242D01*
X84569477Y-107845100D01*
X84531004Y-107917078D01*
X84424659Y-108046659D01*
X84295078Y-108153004D01*
X84295076Y-108153005D01*
X84147242Y-108232024D01*
X83986823Y-108280687D01*
X83861804Y-108293000D01*
X83778196Y-108293000D01*
X83653177Y-108280687D01*
X83492758Y-108232024D01*
X83344924Y-108153005D01*
X83344922Y-108153004D01*
X83215341Y-108046659D01*
X83108996Y-107917078D01*
X83070523Y-107845100D01*
X83029976Y-107769242D01*
X82981313Y-107608823D01*
X82964883Y-107442000D01*
X82981313Y-107275177D01*
X83029976Y-107114758D01*
X83108995Y-106966924D01*
X83108996Y-106966922D01*
X83215341Y-106837341D01*
X83344922Y-106730996D01*
X83367365Y-106719000D01*
X83492758Y-106651976D01*
X83653177Y-106603313D01*
X83778196Y-106591000D01*
X83861804Y-106591000D01*
X83986823Y-106603313D01*
X83986823Y-106603313D01*
G37*
G36*
X102356228Y-106369703D02*
G01*
X102511100Y-106433853D01*
X102650481Y-106526985D01*
X102769015Y-106645519D01*
X102862147Y-106784900D01*
X102926297Y-106939772D01*
X102959000Y-107104184D01*
X102959000Y-107271816D01*
X102926297Y-107436228D01*
X102862147Y-107591100D01*
X102769015Y-107730481D01*
X102650481Y-107849015D01*
X102511100Y-107942147D01*
X102356228Y-108006297D01*
X102191816Y-108039000D01*
X102024184Y-108039000D01*
X101859772Y-108006297D01*
X101704900Y-107942147D01*
X101565519Y-107849015D01*
X101446985Y-107730481D01*
X101353853Y-107591100D01*
X101289703Y-107436228D01*
X101257000Y-107271816D01*
X101257000Y-107104184D01*
X101289703Y-106939772D01*
X101353853Y-106784900D01*
X101446985Y-106645519D01*
X101565519Y-106526985D01*
X101704900Y-106433853D01*
X101859772Y-106369703D01*
X102024184Y-106337000D01*
X102191816Y-106337000D01*
X102356228Y-106369703D01*
X102356228Y-106369703D01*
G37*
G36*
X105068823Y-106349313D02*
G01*
X105229242Y-106397976D01*
X105286550Y-106428608D01*
X105377078Y-106476996D01*
X105506659Y-106583341D01*
X105613004Y-106712922D01*
X105613005Y-106712924D01*
X105692024Y-106860758D01*
X105740687Y-107021177D01*
X105757117Y-107188000D01*
X105740687Y-107354823D01*
X105692024Y-107515242D01*
X105651477Y-107591100D01*
X105613004Y-107663078D01*
X105506659Y-107792659D01*
X105377078Y-107899004D01*
X105377076Y-107899005D01*
X105229242Y-107978024D01*
X105068823Y-108026687D01*
X104943804Y-108039000D01*
X104860196Y-108039000D01*
X104735177Y-108026687D01*
X104574758Y-107978024D01*
X104426924Y-107899005D01*
X104426922Y-107899004D01*
X104297341Y-107792659D01*
X104190996Y-107663078D01*
X104152523Y-107591100D01*
X104111976Y-107515242D01*
X104063313Y-107354823D01*
X104046883Y-107188000D01*
X104063313Y-107021177D01*
X104111976Y-106860758D01*
X104190995Y-106712924D01*
X104190996Y-106712922D01*
X104297341Y-106583341D01*
X104426922Y-106476996D01*
X104517450Y-106428608D01*
X104574758Y-106397976D01*
X104735177Y-106349313D01*
X104860196Y-106337000D01*
X104943804Y-106337000D01*
X105068823Y-106349313D01*
X105068823Y-106349313D01*
G37*
G36*
X112770228Y-106369703D02*
G01*
X112925100Y-106433853D01*
X113064481Y-106526985D01*
X113183015Y-106645519D01*
X113276147Y-106784900D01*
X113340297Y-106939772D01*
X113373000Y-107104184D01*
X113373000Y-107271816D01*
X113340297Y-107436228D01*
X113276147Y-107591100D01*
X113183015Y-107730481D01*
X113064481Y-107849015D01*
X112925100Y-107942147D01*
X112770228Y-108006297D01*
X112605816Y-108039000D01*
X112438184Y-108039000D01*
X112273772Y-108006297D01*
X112118900Y-107942147D01*
X111979519Y-107849015D01*
X111860985Y-107730481D01*
X111767853Y-107591100D01*
X111703703Y-107436228D01*
X111671000Y-107271816D01*
X111671000Y-107104184D01*
X111703703Y-106939772D01*
X111767853Y-106784900D01*
X111860985Y-106645519D01*
X111979519Y-106526985D01*
X112118900Y-106433853D01*
X112273772Y-106369703D01*
X112438184Y-106337000D01*
X112605816Y-106337000D01*
X112770228Y-106369703D01*
X112770228Y-106369703D01*
G37*
G36*
X115482823Y-106349313D02*
G01*
X115643242Y-106397976D01*
X115700550Y-106428608D01*
X115791078Y-106476996D01*
X115920659Y-106583341D01*
X116027004Y-106712922D01*
X116027005Y-106712924D01*
X116106024Y-106860758D01*
X116154687Y-107021177D01*
X116171117Y-107188000D01*
X116154687Y-107354823D01*
X116106024Y-107515242D01*
X116065477Y-107591100D01*
X116027004Y-107663078D01*
X115920659Y-107792659D01*
X115791078Y-107899004D01*
X115791076Y-107899005D01*
X115643242Y-107978024D01*
X115482823Y-108026687D01*
X115357804Y-108039000D01*
X115274196Y-108039000D01*
X115149177Y-108026687D01*
X114988758Y-107978024D01*
X114840924Y-107899005D01*
X114840922Y-107899004D01*
X114711341Y-107792659D01*
X114604996Y-107663078D01*
X114566523Y-107591100D01*
X114525976Y-107515242D01*
X114477313Y-107354823D01*
X114460883Y-107188000D01*
X114477313Y-107021177D01*
X114525976Y-106860758D01*
X114604995Y-106712924D01*
X114604996Y-106712922D01*
X114711341Y-106583341D01*
X114840922Y-106476996D01*
X114931450Y-106428608D01*
X114988758Y-106397976D01*
X115149177Y-106349313D01*
X115274196Y-106337000D01*
X115357804Y-106337000D01*
X115482823Y-106349313D01*
X115482823Y-106349313D01*
G37*
G36*
X123184228Y-106369703D02*
G01*
X123339100Y-106433853D01*
X123478481Y-106526985D01*
X123597015Y-106645519D01*
X123690147Y-106784900D01*
X123754297Y-106939772D01*
X123787000Y-107104184D01*
X123787000Y-107271816D01*
X123754297Y-107436228D01*
X123690147Y-107591100D01*
X123597015Y-107730481D01*
X123478481Y-107849015D01*
X123339100Y-107942147D01*
X123184228Y-108006297D01*
X123019816Y-108039000D01*
X122852184Y-108039000D01*
X122687772Y-108006297D01*
X122532900Y-107942147D01*
X122393519Y-107849015D01*
X122274985Y-107730481D01*
X122181853Y-107591100D01*
X122117703Y-107436228D01*
X122085000Y-107271816D01*
X122085000Y-107104184D01*
X122117703Y-106939772D01*
X122181853Y-106784900D01*
X122274985Y-106645519D01*
X122393519Y-106526985D01*
X122532900Y-106433853D01*
X122687772Y-106369703D01*
X122852184Y-106337000D01*
X123019816Y-106337000D01*
X123184228Y-106369703D01*
X123184228Y-106369703D01*
G37*
G36*
X94654823Y-106349313D02*
G01*
X94815242Y-106397976D01*
X94872550Y-106428608D01*
X94963078Y-106476996D01*
X95092659Y-106583341D01*
X95199004Y-106712922D01*
X95199005Y-106712924D01*
X95278024Y-106860758D01*
X95326687Y-107021177D01*
X95343117Y-107188000D01*
X95326687Y-107354823D01*
X95278024Y-107515242D01*
X95237477Y-107591100D01*
X95199004Y-107663078D01*
X95092659Y-107792659D01*
X94963078Y-107899004D01*
X94963076Y-107899005D01*
X94815242Y-107978024D01*
X94654823Y-108026687D01*
X94529804Y-108039000D01*
X94446196Y-108039000D01*
X94321177Y-108026687D01*
X94160758Y-107978024D01*
X94012924Y-107899005D01*
X94012922Y-107899004D01*
X93883341Y-107792659D01*
X93776996Y-107663078D01*
X93738523Y-107591100D01*
X93697976Y-107515242D01*
X93649313Y-107354823D01*
X93632883Y-107188000D01*
X93649313Y-107021177D01*
X93697976Y-106860758D01*
X93776995Y-106712924D01*
X93776996Y-106712922D01*
X93883341Y-106583341D01*
X94012922Y-106476996D01*
X94103450Y-106428608D01*
X94160758Y-106397976D01*
X94321177Y-106349313D01*
X94446196Y-106337000D01*
X94529804Y-106337000D01*
X94654823Y-106349313D01*
X94654823Y-106349313D01*
G37*
G36*
X79989642Y-105147781D02*
G01*
X80077142Y-105184025D01*
X80135416Y-105208163D01*
X80266608Y-105295822D01*
X80378178Y-105407392D01*
X80465837Y-105538584D01*
X80465838Y-105538586D01*
X80526219Y-105684358D01*
X80557000Y-105839107D01*
X80557000Y-105996893D01*
X80526219Y-106151642D01*
X80465838Y-106297414D01*
X80465837Y-106297416D01*
X80378178Y-106428608D01*
X80266608Y-106540178D01*
X80135416Y-106627837D01*
X80135415Y-106627838D01*
X80135414Y-106627838D01*
X79989642Y-106688219D01*
X79834893Y-106719000D01*
X79677107Y-106719000D01*
X79522358Y-106688219D01*
X79376586Y-106627838D01*
X79376585Y-106627838D01*
X79376584Y-106627837D01*
X79245392Y-106540178D01*
X79133822Y-106428608D01*
X79046163Y-106297416D01*
X79046162Y-106297414D01*
X78985781Y-106151642D01*
X78955000Y-105996893D01*
X78955000Y-105839107D01*
X78985781Y-105684358D01*
X79046162Y-105538586D01*
X79046163Y-105538584D01*
X79133822Y-105407392D01*
X79245392Y-105295822D01*
X79376584Y-105208163D01*
X79434858Y-105184025D01*
X79522358Y-105147781D01*
X79677107Y-105117000D01*
X79834893Y-105117000D01*
X79989642Y-105147781D01*
X79989642Y-105147781D01*
G37*
G36*
X84068228Y-103575703D02*
G01*
X84223100Y-103639853D01*
X84362481Y-103732985D01*
X84481015Y-103851519D01*
X84574147Y-103990900D01*
X84638297Y-104145772D01*
X84671000Y-104310184D01*
X84671000Y-104477816D01*
X84638297Y-104642228D01*
X84574147Y-104797100D01*
X84481015Y-104936481D01*
X84362481Y-105055015D01*
X84223100Y-105148147D01*
X84068228Y-105212297D01*
X83903816Y-105245000D01*
X83736184Y-105245000D01*
X83571772Y-105212297D01*
X83416900Y-105148147D01*
X83277519Y-105055015D01*
X83158985Y-104936481D01*
X83065853Y-104797100D01*
X83001703Y-104642228D01*
X82969000Y-104477816D01*
X82969000Y-104310184D01*
X83001703Y-104145772D01*
X83065853Y-103990900D01*
X83158985Y-103851519D01*
X83277519Y-103732985D01*
X83416900Y-103639853D01*
X83571772Y-103575703D01*
X83736184Y-103543000D01*
X83903816Y-103543000D01*
X84068228Y-103575703D01*
X84068228Y-103575703D01*
G37*
G36*
X91606823Y-103555313D02*
G01*
X91767242Y-103603976D01*
X91834361Y-103639852D01*
X91915078Y-103682996D01*
X92044659Y-103789341D01*
X92151004Y-103918922D01*
X92151005Y-103918924D01*
X92230024Y-104066758D01*
X92278687Y-104227177D01*
X92295117Y-104394000D01*
X92278687Y-104560823D01*
X92230024Y-104721242D01*
X92189477Y-104797100D01*
X92151004Y-104869078D01*
X92044659Y-104998659D01*
X91915078Y-105105004D01*
X91915076Y-105105005D01*
X91767242Y-105184024D01*
X91606823Y-105232687D01*
X91481804Y-105245000D01*
X91398196Y-105245000D01*
X91273177Y-105232687D01*
X91112758Y-105184024D01*
X90964924Y-105105005D01*
X90964922Y-105105004D01*
X90835341Y-104998659D01*
X90728996Y-104869078D01*
X90690523Y-104797100D01*
X90649976Y-104721242D01*
X90601313Y-104560823D01*
X90584883Y-104394000D01*
X90601313Y-104227177D01*
X90649976Y-104066758D01*
X90728995Y-103918924D01*
X90728996Y-103918922D01*
X90835341Y-103789341D01*
X90964922Y-103682996D01*
X91045639Y-103639852D01*
X91112758Y-103603976D01*
X91273177Y-103555313D01*
X91398196Y-103543000D01*
X91481804Y-103543000D01*
X91606823Y-103555313D01*
X91606823Y-103555313D01*
G37*
G36*
X133770823Y-103047313D02*
G01*
X133931242Y-103095976D01*
X134021756Y-103144357D01*
X134079078Y-103174996D01*
X134208659Y-103281341D01*
X134315004Y-103410922D01*
X134315005Y-103410924D01*
X134394024Y-103558758D01*
X134442687Y-103719177D01*
X134459117Y-103886000D01*
X134442687Y-104052823D01*
X134394024Y-104213242D01*
X134342207Y-104310184D01*
X134315004Y-104361078D01*
X134208659Y-104490659D01*
X134079078Y-104597004D01*
X134079076Y-104597005D01*
X133931242Y-104676024D01*
X133770823Y-104724687D01*
X133645804Y-104737000D01*
X133562196Y-104737000D01*
X133437177Y-104724687D01*
X133276758Y-104676024D01*
X133128924Y-104597005D01*
X133128922Y-104597004D01*
X132999341Y-104490659D01*
X132892996Y-104361078D01*
X132865793Y-104310184D01*
X132813976Y-104213242D01*
X132765313Y-104052823D01*
X132748883Y-103886000D01*
X132765313Y-103719177D01*
X132813976Y-103558758D01*
X132892995Y-103410924D01*
X132892996Y-103410922D01*
X132999341Y-103281341D01*
X133128922Y-103174996D01*
X133186244Y-103144357D01*
X133276758Y-103095976D01*
X133437177Y-103047313D01*
X133562196Y-103035000D01*
X133645804Y-103035000D01*
X133770823Y-103047313D01*
X133770823Y-103047313D01*
G37*
G36*
X123610823Y-103047313D02*
G01*
X123771242Y-103095976D01*
X123861756Y-103144357D01*
X123919078Y-103174996D01*
X124048659Y-103281341D01*
X124155004Y-103410922D01*
X124155005Y-103410924D01*
X124234024Y-103558758D01*
X124282687Y-103719177D01*
X124299117Y-103886000D01*
X124282687Y-104052823D01*
X124234024Y-104213242D01*
X124182207Y-104310184D01*
X124155004Y-104361078D01*
X124048659Y-104490659D01*
X123919078Y-104597004D01*
X123919076Y-104597005D01*
X123771242Y-104676024D01*
X123610823Y-104724687D01*
X123485804Y-104737000D01*
X123402196Y-104737000D01*
X123277177Y-104724687D01*
X123116758Y-104676024D01*
X122968924Y-104597005D01*
X122968922Y-104597004D01*
X122839341Y-104490659D01*
X122732996Y-104361078D01*
X122705793Y-104310184D01*
X122653976Y-104213242D01*
X122605313Y-104052823D01*
X122588883Y-103886000D01*
X122605313Y-103719177D01*
X122653976Y-103558758D01*
X122732995Y-103410924D01*
X122732996Y-103410922D01*
X122839341Y-103281341D01*
X122968922Y-103174996D01*
X123026244Y-103144357D01*
X123116758Y-103095976D01*
X123277177Y-103047313D01*
X123402196Y-103035000D01*
X123485804Y-103035000D01*
X123610823Y-103047313D01*
X123610823Y-103047313D01*
G37*
G36*
X121070823Y-103047313D02*
G01*
X121231242Y-103095976D01*
X121321756Y-103144357D01*
X121379078Y-103174996D01*
X121508659Y-103281341D01*
X121615004Y-103410922D01*
X121615005Y-103410924D01*
X121694024Y-103558758D01*
X121742687Y-103719177D01*
X121759117Y-103886000D01*
X121742687Y-104052823D01*
X121694024Y-104213242D01*
X121642207Y-104310184D01*
X121615004Y-104361078D01*
X121508659Y-104490659D01*
X121379078Y-104597004D01*
X121379076Y-104597005D01*
X121231242Y-104676024D01*
X121070823Y-104724687D01*
X120945804Y-104737000D01*
X120862196Y-104737000D01*
X120737177Y-104724687D01*
X120576758Y-104676024D01*
X120428924Y-104597005D01*
X120428922Y-104597004D01*
X120299341Y-104490659D01*
X120192996Y-104361078D01*
X120165793Y-104310184D01*
X120113976Y-104213242D01*
X120065313Y-104052823D01*
X120048883Y-103886000D01*
X120065313Y-103719177D01*
X120113976Y-103558758D01*
X120192995Y-103410924D01*
X120192996Y-103410922D01*
X120299341Y-103281341D01*
X120428922Y-103174996D01*
X120486244Y-103144357D01*
X120576758Y-103095976D01*
X120737177Y-103047313D01*
X120862196Y-103035000D01*
X120945804Y-103035000D01*
X121070823Y-103047313D01*
X121070823Y-103047313D01*
G37*
G36*
X118530823Y-103047313D02*
G01*
X118691242Y-103095976D01*
X118781756Y-103144357D01*
X118839078Y-103174996D01*
X118968659Y-103281341D01*
X119075004Y-103410922D01*
X119075005Y-103410924D01*
X119154024Y-103558758D01*
X119202687Y-103719177D01*
X119219117Y-103886000D01*
X119202687Y-104052823D01*
X119154024Y-104213242D01*
X119102207Y-104310184D01*
X119075004Y-104361078D01*
X118968659Y-104490659D01*
X118839078Y-104597004D01*
X118839076Y-104597005D01*
X118691242Y-104676024D01*
X118530823Y-104724687D01*
X118405804Y-104737000D01*
X118322196Y-104737000D01*
X118197177Y-104724687D01*
X118036758Y-104676024D01*
X117888924Y-104597005D01*
X117888922Y-104597004D01*
X117759341Y-104490659D01*
X117652996Y-104361078D01*
X117625793Y-104310184D01*
X117573976Y-104213242D01*
X117525313Y-104052823D01*
X117508883Y-103886000D01*
X117525313Y-103719177D01*
X117573976Y-103558758D01*
X117652995Y-103410924D01*
X117652996Y-103410922D01*
X117759341Y-103281341D01*
X117888922Y-103174996D01*
X117946244Y-103144357D01*
X118036758Y-103095976D01*
X118197177Y-103047313D01*
X118322196Y-103035000D01*
X118405804Y-103035000D01*
X118530823Y-103047313D01*
X118530823Y-103047313D01*
G37*
G36*
X115990823Y-103047313D02*
G01*
X116151242Y-103095976D01*
X116241756Y-103144357D01*
X116299078Y-103174996D01*
X116428659Y-103281341D01*
X116535004Y-103410922D01*
X116535005Y-103410924D01*
X116614024Y-103558758D01*
X116662687Y-103719177D01*
X116679117Y-103886000D01*
X116662687Y-104052823D01*
X116614024Y-104213242D01*
X116562207Y-104310184D01*
X116535004Y-104361078D01*
X116428659Y-104490659D01*
X116299078Y-104597004D01*
X116299076Y-104597005D01*
X116151242Y-104676024D01*
X115990823Y-104724687D01*
X115865804Y-104737000D01*
X115782196Y-104737000D01*
X115657177Y-104724687D01*
X115496758Y-104676024D01*
X115348924Y-104597005D01*
X115348922Y-104597004D01*
X115219341Y-104490659D01*
X115112996Y-104361078D01*
X115085793Y-104310184D01*
X115033976Y-104213242D01*
X114985313Y-104052823D01*
X114968883Y-103886000D01*
X114985313Y-103719177D01*
X115033976Y-103558758D01*
X115112995Y-103410924D01*
X115112996Y-103410922D01*
X115219341Y-103281341D01*
X115348922Y-103174996D01*
X115406244Y-103144357D01*
X115496758Y-103095976D01*
X115657177Y-103047313D01*
X115782196Y-103035000D01*
X115865804Y-103035000D01*
X115990823Y-103047313D01*
X115990823Y-103047313D01*
G37*
G36*
X126150823Y-103047313D02*
G01*
X126311242Y-103095976D01*
X126401756Y-103144357D01*
X126459078Y-103174996D01*
X126588659Y-103281341D01*
X126695004Y-103410922D01*
X126695005Y-103410924D01*
X126774024Y-103558758D01*
X126822687Y-103719177D01*
X126839117Y-103886000D01*
X126822687Y-104052823D01*
X126774024Y-104213242D01*
X126722207Y-104310184D01*
X126695004Y-104361078D01*
X126588659Y-104490659D01*
X126459078Y-104597004D01*
X126459076Y-104597005D01*
X126311242Y-104676024D01*
X126150823Y-104724687D01*
X126025804Y-104737000D01*
X125942196Y-104737000D01*
X125817177Y-104724687D01*
X125656758Y-104676024D01*
X125508924Y-104597005D01*
X125508922Y-104597004D01*
X125379341Y-104490659D01*
X125272996Y-104361078D01*
X125245793Y-104310184D01*
X125193976Y-104213242D01*
X125145313Y-104052823D01*
X125128883Y-103886000D01*
X125145313Y-103719177D01*
X125193976Y-103558758D01*
X125272995Y-103410924D01*
X125272996Y-103410922D01*
X125379341Y-103281341D01*
X125508922Y-103174996D01*
X125566244Y-103144357D01*
X125656758Y-103095976D01*
X125817177Y-103047313D01*
X125942196Y-103035000D01*
X126025804Y-103035000D01*
X126150823Y-103047313D01*
X126150823Y-103047313D01*
G37*
G36*
X131230823Y-103047313D02*
G01*
X131391242Y-103095976D01*
X131481756Y-103144357D01*
X131539078Y-103174996D01*
X131668659Y-103281341D01*
X131775004Y-103410922D01*
X131775005Y-103410924D01*
X131854024Y-103558758D01*
X131902687Y-103719177D01*
X131919117Y-103886000D01*
X131902687Y-104052823D01*
X131854024Y-104213242D01*
X131802207Y-104310184D01*
X131775004Y-104361078D01*
X131668659Y-104490659D01*
X131539078Y-104597004D01*
X131539076Y-104597005D01*
X131391242Y-104676024D01*
X131230823Y-104724687D01*
X131105804Y-104737000D01*
X131022196Y-104737000D01*
X130897177Y-104724687D01*
X130736758Y-104676024D01*
X130588924Y-104597005D01*
X130588922Y-104597004D01*
X130459341Y-104490659D01*
X130352996Y-104361078D01*
X130325793Y-104310184D01*
X130273976Y-104213242D01*
X130225313Y-104052823D01*
X130208883Y-103886000D01*
X130225313Y-103719177D01*
X130273976Y-103558758D01*
X130352995Y-103410924D01*
X130352996Y-103410922D01*
X130459341Y-103281341D01*
X130588922Y-103174996D01*
X130646244Y-103144357D01*
X130736758Y-103095976D01*
X130897177Y-103047313D01*
X131022196Y-103035000D01*
X131105804Y-103035000D01*
X131230823Y-103047313D01*
X131230823Y-103047313D01*
G37*
G36*
X136310823Y-103047313D02*
G01*
X136471242Y-103095976D01*
X136561756Y-103144357D01*
X136619078Y-103174996D01*
X136748659Y-103281341D01*
X136855004Y-103410922D01*
X136855005Y-103410924D01*
X136934024Y-103558758D01*
X136982687Y-103719177D01*
X136999117Y-103886000D01*
X136982687Y-104052823D01*
X136934024Y-104213242D01*
X136882207Y-104310184D01*
X136855004Y-104361078D01*
X136748659Y-104490659D01*
X136619078Y-104597004D01*
X136619076Y-104597005D01*
X136471242Y-104676024D01*
X136310823Y-104724687D01*
X136185804Y-104737000D01*
X136102196Y-104737000D01*
X135977177Y-104724687D01*
X135816758Y-104676024D01*
X135668924Y-104597005D01*
X135668922Y-104597004D01*
X135539341Y-104490659D01*
X135432996Y-104361078D01*
X135405793Y-104310184D01*
X135353976Y-104213242D01*
X135305313Y-104052823D01*
X135288883Y-103886000D01*
X135305313Y-103719177D01*
X135353976Y-103558758D01*
X135432995Y-103410924D01*
X135432996Y-103410922D01*
X135539341Y-103281341D01*
X135668922Y-103174996D01*
X135726244Y-103144357D01*
X135816758Y-103095976D01*
X135977177Y-103047313D01*
X136102196Y-103035000D01*
X136185804Y-103035000D01*
X136310823Y-103047313D01*
X136310823Y-103047313D01*
G37*
G36*
X138850823Y-103047313D02*
G01*
X139011242Y-103095976D01*
X139101756Y-103144357D01*
X139159078Y-103174996D01*
X139288659Y-103281341D01*
X139395004Y-103410922D01*
X139395005Y-103410924D01*
X139474024Y-103558758D01*
X139522687Y-103719177D01*
X139539117Y-103886000D01*
X139522687Y-104052823D01*
X139474024Y-104213242D01*
X139422207Y-104310184D01*
X139395004Y-104361078D01*
X139288659Y-104490659D01*
X139159078Y-104597004D01*
X139159076Y-104597005D01*
X139011242Y-104676024D01*
X138850823Y-104724687D01*
X138725804Y-104737000D01*
X138642196Y-104737000D01*
X138517177Y-104724687D01*
X138356758Y-104676024D01*
X138208924Y-104597005D01*
X138208922Y-104597004D01*
X138079341Y-104490659D01*
X137972996Y-104361078D01*
X137945793Y-104310184D01*
X137893976Y-104213242D01*
X137845313Y-104052823D01*
X137828883Y-103886000D01*
X137845313Y-103719177D01*
X137893976Y-103558758D01*
X137972995Y-103410924D01*
X137972996Y-103410922D01*
X138079341Y-103281341D01*
X138208922Y-103174996D01*
X138266244Y-103144357D01*
X138356758Y-103095976D01*
X138517177Y-103047313D01*
X138642196Y-103035000D01*
X138725804Y-103035000D01*
X138850823Y-103047313D01*
X138850823Y-103047313D01*
G37*
G36*
X141390823Y-103047313D02*
G01*
X141551242Y-103095976D01*
X141641756Y-103144357D01*
X141699078Y-103174996D01*
X141828659Y-103281341D01*
X141935004Y-103410922D01*
X141935005Y-103410924D01*
X142014024Y-103558758D01*
X142062687Y-103719177D01*
X142079117Y-103886000D01*
X142062687Y-104052823D01*
X142014024Y-104213242D01*
X141962207Y-104310184D01*
X141935004Y-104361078D01*
X141828659Y-104490659D01*
X141699078Y-104597004D01*
X141699076Y-104597005D01*
X141551242Y-104676024D01*
X141390823Y-104724687D01*
X141265804Y-104737000D01*
X141182196Y-104737000D01*
X141057177Y-104724687D01*
X140896758Y-104676024D01*
X140748924Y-104597005D01*
X140748922Y-104597004D01*
X140619341Y-104490659D01*
X140512996Y-104361078D01*
X140485793Y-104310184D01*
X140433976Y-104213242D01*
X140385313Y-104052823D01*
X140368883Y-103886000D01*
X140385313Y-103719177D01*
X140433976Y-103558758D01*
X140512995Y-103410924D01*
X140512996Y-103410922D01*
X140619341Y-103281341D01*
X140748922Y-103174996D01*
X140806244Y-103144357D01*
X140896758Y-103095976D01*
X141057177Y-103047313D01*
X141182196Y-103035000D01*
X141265804Y-103035000D01*
X141390823Y-103047313D01*
X141390823Y-103047313D01*
G37*
G36*
X143930823Y-103047313D02*
G01*
X144091242Y-103095976D01*
X144181756Y-103144357D01*
X144239078Y-103174996D01*
X144368659Y-103281341D01*
X144475004Y-103410922D01*
X144475005Y-103410924D01*
X144554024Y-103558758D01*
X144602687Y-103719177D01*
X144619117Y-103886000D01*
X144602687Y-104052823D01*
X144554024Y-104213242D01*
X144502207Y-104310184D01*
X144475004Y-104361078D01*
X144368659Y-104490659D01*
X144239078Y-104597004D01*
X144239076Y-104597005D01*
X144091242Y-104676024D01*
X143930823Y-104724687D01*
X143805804Y-104737000D01*
X143722196Y-104737000D01*
X143597177Y-104724687D01*
X143436758Y-104676024D01*
X143288924Y-104597005D01*
X143288922Y-104597004D01*
X143159341Y-104490659D01*
X143052996Y-104361078D01*
X143025793Y-104310184D01*
X142973976Y-104213242D01*
X142925313Y-104052823D01*
X142908883Y-103886000D01*
X142925313Y-103719177D01*
X142973976Y-103558758D01*
X143052995Y-103410924D01*
X143052996Y-103410922D01*
X143159341Y-103281341D01*
X143288922Y-103174996D01*
X143346244Y-103144357D01*
X143436758Y-103095976D01*
X143597177Y-103047313D01*
X143722196Y-103035000D01*
X143805804Y-103035000D01*
X143930823Y-103047313D01*
X143930823Y-103047313D01*
G37*
G36*
X128690823Y-103047313D02*
G01*
X128851242Y-103095976D01*
X128941756Y-103144357D01*
X128999078Y-103174996D01*
X129128659Y-103281341D01*
X129235004Y-103410922D01*
X129235005Y-103410924D01*
X129314024Y-103558758D01*
X129362687Y-103719177D01*
X129379117Y-103886000D01*
X129362687Y-104052823D01*
X129314024Y-104213242D01*
X129262207Y-104310184D01*
X129235004Y-104361078D01*
X129128659Y-104490659D01*
X128999078Y-104597004D01*
X128999076Y-104597005D01*
X128851242Y-104676024D01*
X128690823Y-104724687D01*
X128565804Y-104737000D01*
X128482196Y-104737000D01*
X128357177Y-104724687D01*
X128196758Y-104676024D01*
X128048924Y-104597005D01*
X128048922Y-104597004D01*
X127919341Y-104490659D01*
X127812996Y-104361078D01*
X127785793Y-104310184D01*
X127733976Y-104213242D01*
X127685313Y-104052823D01*
X127668883Y-103886000D01*
X127685313Y-103719177D01*
X127733976Y-103558758D01*
X127812995Y-103410924D01*
X127812996Y-103410922D01*
X127919341Y-103281341D01*
X128048922Y-103174996D01*
X128106244Y-103144357D01*
X128196758Y-103095976D01*
X128357177Y-103047313D01*
X128482196Y-103035000D01*
X128565804Y-103035000D01*
X128690823Y-103047313D01*
X128690823Y-103047313D01*
G37*
G36*
X79989642Y-102607781D02*
G01*
X80135414Y-102668162D01*
X80135416Y-102668163D01*
X80266608Y-102755822D01*
X80378178Y-102867392D01*
X80465837Y-102998584D01*
X80465838Y-102998586D01*
X80526219Y-103144358D01*
X80557000Y-103299107D01*
X80557000Y-103456893D01*
X80526219Y-103611642D01*
X80496663Y-103682995D01*
X80465837Y-103757416D01*
X80378178Y-103888608D01*
X80266608Y-104000178D01*
X80135416Y-104087837D01*
X80135415Y-104087838D01*
X80135414Y-104087838D01*
X79989642Y-104148219D01*
X79834893Y-104179000D01*
X79677107Y-104179000D01*
X79522358Y-104148219D01*
X79376586Y-104087838D01*
X79376585Y-104087838D01*
X79376584Y-104087837D01*
X79245392Y-104000178D01*
X79133822Y-103888608D01*
X79046163Y-103757416D01*
X79015337Y-103682995D01*
X78985781Y-103611642D01*
X78955000Y-103456893D01*
X78955000Y-103299107D01*
X78985781Y-103144358D01*
X79046162Y-102998586D01*
X79046163Y-102998584D01*
X79133822Y-102867392D01*
X79245392Y-102755822D01*
X79376584Y-102668163D01*
X79376586Y-102668162D01*
X79522358Y-102607781D01*
X79677107Y-102577000D01*
X79834893Y-102577000D01*
X79989642Y-102607781D01*
X79989642Y-102607781D01*
G37*
G36*
X83986823Y-100507313D02*
G01*
X84147242Y-100555976D01*
X84214361Y-100591852D01*
X84295078Y-100634996D01*
X84424659Y-100741341D01*
X84531004Y-100870922D01*
X84531005Y-100870924D01*
X84610024Y-101018758D01*
X84658687Y-101179177D01*
X84675117Y-101346000D01*
X84658687Y-101512823D01*
X84610024Y-101673242D01*
X84569477Y-101749100D01*
X84531004Y-101821078D01*
X84424659Y-101950659D01*
X84295078Y-102057004D01*
X84295076Y-102057005D01*
X84147242Y-102136024D01*
X83986823Y-102184687D01*
X83861804Y-102197000D01*
X83778196Y-102197000D01*
X83653177Y-102184687D01*
X83492758Y-102136024D01*
X83344924Y-102057005D01*
X83344922Y-102057004D01*
X83215341Y-101950659D01*
X83108996Y-101821078D01*
X83070523Y-101749100D01*
X83029976Y-101673242D01*
X82981313Y-101512823D01*
X82964883Y-101346000D01*
X82981313Y-101179177D01*
X83029976Y-101018758D01*
X83108995Y-100870924D01*
X83108996Y-100870922D01*
X83215341Y-100741341D01*
X83344922Y-100634996D01*
X83425639Y-100591852D01*
X83492758Y-100555976D01*
X83653177Y-100507313D01*
X83778196Y-100495000D01*
X83861804Y-100495000D01*
X83986823Y-100507313D01*
X83986823Y-100507313D01*
G37*
G36*
X91688228Y-100527703D02*
G01*
X91843100Y-100591853D01*
X91982481Y-100684985D01*
X92101015Y-100803519D01*
X92194147Y-100942900D01*
X92258297Y-101097772D01*
X92291000Y-101262184D01*
X92291000Y-101429816D01*
X92258297Y-101594228D01*
X92194147Y-101749100D01*
X92101015Y-101888481D01*
X91982481Y-102007015D01*
X91843100Y-102100147D01*
X91688228Y-102164297D01*
X91523816Y-102197000D01*
X91356184Y-102197000D01*
X91191772Y-102164297D01*
X91036900Y-102100147D01*
X90897519Y-102007015D01*
X90778985Y-101888481D01*
X90685853Y-101749100D01*
X90621703Y-101594228D01*
X90589000Y-101429816D01*
X90589000Y-101262184D01*
X90621703Y-101097772D01*
X90685853Y-100942900D01*
X90778985Y-100803519D01*
X90897519Y-100684985D01*
X91036900Y-100591853D01*
X91191772Y-100527703D01*
X91356184Y-100495000D01*
X91523816Y-100495000D01*
X91688228Y-100527703D01*
X91688228Y-100527703D01*
G37*
G36*
X111021395Y-99923546D02*
G01*
X111194466Y-99995234D01*
X111194467Y-99995235D01*
X111350227Y-100099310D01*
X111482690Y-100231773D01*
X111482691Y-100231775D01*
X111586766Y-100387534D01*
X111658454Y-100560605D01*
X111695000Y-100744333D01*
X111695000Y-100931667D01*
X111658454Y-101115395D01*
X111586766Y-101288466D01*
X111586765Y-101288467D01*
X111482690Y-101444227D01*
X111350227Y-101576690D01*
X111323979Y-101594228D01*
X111194466Y-101680766D01*
X111021395Y-101752454D01*
X110837667Y-101789000D01*
X110650333Y-101789000D01*
X110466605Y-101752454D01*
X110293534Y-101680766D01*
X110164021Y-101594228D01*
X110137773Y-101576690D01*
X110005310Y-101444227D01*
X109901235Y-101288467D01*
X109901234Y-101288466D01*
X109829546Y-101115395D01*
X109793000Y-100931667D01*
X109793000Y-100744333D01*
X109829546Y-100560605D01*
X109901234Y-100387534D01*
X110005309Y-100231775D01*
X110005310Y-100231773D01*
X110137773Y-100099310D01*
X110293533Y-99995235D01*
X110293534Y-99995234D01*
X110466605Y-99923546D01*
X110650333Y-99887000D01*
X110837667Y-99887000D01*
X111021395Y-99923546D01*
X111021395Y-99923546D01*
G37*
G36*
X104417395Y-99923546D02*
G01*
X104590466Y-99995234D01*
X104590467Y-99995235D01*
X104746227Y-100099310D01*
X104878690Y-100231773D01*
X104878691Y-100231775D01*
X104982766Y-100387534D01*
X105054454Y-100560605D01*
X105091000Y-100744333D01*
X105091000Y-100931667D01*
X105054454Y-101115395D01*
X104982766Y-101288466D01*
X104982765Y-101288467D01*
X104878690Y-101444227D01*
X104746227Y-101576690D01*
X104719979Y-101594228D01*
X104590466Y-101680766D01*
X104417395Y-101752454D01*
X104233667Y-101789000D01*
X104046333Y-101789000D01*
X103862605Y-101752454D01*
X103689534Y-101680766D01*
X103560021Y-101594228D01*
X103533773Y-101576690D01*
X103401310Y-101444227D01*
X103297235Y-101288467D01*
X103297234Y-101288466D01*
X103225546Y-101115395D01*
X103189000Y-100931667D01*
X103189000Y-100744333D01*
X103225546Y-100560605D01*
X103297234Y-100387534D01*
X103401309Y-100231775D01*
X103401310Y-100231773D01*
X103533773Y-100099310D01*
X103689533Y-99995235D01*
X103689534Y-99995234D01*
X103862605Y-99923546D01*
X104046333Y-99887000D01*
X104233667Y-99887000D01*
X104417395Y-99923546D01*
X104417395Y-99923546D01*
G37*
G36*
X97813395Y-99923546D02*
G01*
X97986466Y-99995234D01*
X97986467Y-99995235D01*
X98142227Y-100099310D01*
X98274690Y-100231773D01*
X98274691Y-100231775D01*
X98378766Y-100387534D01*
X98450454Y-100560605D01*
X98487000Y-100744333D01*
X98487000Y-100931667D01*
X98450454Y-101115395D01*
X98378766Y-101288466D01*
X98378765Y-101288467D01*
X98274690Y-101444227D01*
X98142227Y-101576690D01*
X98115979Y-101594228D01*
X97986466Y-101680766D01*
X97813395Y-101752454D01*
X97629667Y-101789000D01*
X97442333Y-101789000D01*
X97258605Y-101752454D01*
X97085534Y-101680766D01*
X96956021Y-101594228D01*
X96929773Y-101576690D01*
X96797310Y-101444227D01*
X96693235Y-101288467D01*
X96693234Y-101288466D01*
X96621546Y-101115395D01*
X96585000Y-100931667D01*
X96585000Y-100744333D01*
X96621546Y-100560605D01*
X96693234Y-100387534D01*
X96797309Y-100231775D01*
X96797310Y-100231773D01*
X96929773Y-100099310D01*
X97085533Y-99995235D01*
X97085534Y-99995234D01*
X97258605Y-99923546D01*
X97442333Y-99887000D01*
X97629667Y-99887000D01*
X97813395Y-99923546D01*
X97813395Y-99923546D01*
G37*
G36*
X80557000Y-101639000D02*
G01*
X78955000Y-101639000D01*
X78955000Y-100037000D01*
X80557000Y-100037000D01*
X80557000Y-101639000D01*
X80557000Y-101639000D01*
G37*
G36*
X105091000Y-99249000D02*
G01*
X103189000Y-99249000D01*
X103189000Y-97347000D01*
X105091000Y-97347000D01*
X105091000Y-99249000D01*
X105091000Y-99249000D01*
G37*
G36*
X98487000Y-99249000D02*
G01*
X96585000Y-99249000D01*
X96585000Y-97347000D01*
X98487000Y-97347000D01*
X98487000Y-99249000D01*
X98487000Y-99249000D01*
G37*
G36*
X111695000Y-99249000D02*
G01*
X109793000Y-99249000D01*
X109793000Y-97347000D01*
X111695000Y-97347000D01*
X111695000Y-99249000D01*
X111695000Y-99249000D01*
G37*
G36*
X90613000Y-96963000D02*
G01*
X88711000Y-96963000D01*
X88711000Y-95061000D01*
X90613000Y-95061000D01*
X90613000Y-96963000D01*
X90613000Y-96963000D01*
G37*
G36*
X87399395Y-95097546D02*
G01*
X87572466Y-95169234D01*
X87572467Y-95169235D01*
X87728227Y-95273310D01*
X87860690Y-95405773D01*
X87860691Y-95405775D01*
X87964766Y-95561534D01*
X88036454Y-95734605D01*
X88073000Y-95918333D01*
X88073000Y-96105667D01*
X88036454Y-96289395D01*
X87964766Y-96462466D01*
X87964765Y-96462467D01*
X87860690Y-96618227D01*
X87728227Y-96750690D01*
X87649818Y-96803081D01*
X87572466Y-96854766D01*
X87399395Y-96926454D01*
X87215667Y-96963000D01*
X87028333Y-96963000D01*
X86844605Y-96926454D01*
X86671534Y-96854766D01*
X86594182Y-96803081D01*
X86515773Y-96750690D01*
X86383310Y-96618227D01*
X86279235Y-96462467D01*
X86279234Y-96462466D01*
X86207546Y-96289395D01*
X86171000Y-96105667D01*
X86171000Y-95918333D01*
X86207546Y-95734605D01*
X86279234Y-95561534D01*
X86383309Y-95405775D01*
X86383310Y-95405773D01*
X86515773Y-95273310D01*
X86671533Y-95169235D01*
X86671534Y-95169234D01*
X86844605Y-95097546D01*
X87028333Y-95061000D01*
X87215667Y-95061000D01*
X87399395Y-95097546D01*
X87399395Y-95097546D01*
G37*
G36*
X80911000Y-95389000D02*
G01*
X79109000Y-95389000D01*
X79109000Y-93587000D01*
X80911000Y-93587000D01*
X80911000Y-95389000D01*
X80911000Y-95389000D01*
G37*
G36*
X98487000Y-95185000D02*
G01*
X96585000Y-95185000D01*
X96585000Y-93283000D01*
X98487000Y-93283000D01*
X98487000Y-95185000D01*
X98487000Y-95185000D01*
G37*
G36*
X105091000Y-95185000D02*
G01*
X103189000Y-95185000D01*
X103189000Y-93283000D01*
X105091000Y-93283000D01*
X105091000Y-95185000D01*
X105091000Y-95185000D01*
G37*
G36*
X111695000Y-95185000D02*
G01*
X109793000Y-95185000D01*
X109793000Y-93283000D01*
X111695000Y-93283000D01*
X111695000Y-95185000D01*
X111695000Y-95185000D01*
G37*
G36*
X80120442Y-91053518D02*
G01*
X80186627Y-91060037D01*
X80356466Y-91111557D01*
X80512991Y-91195222D01*
X80548729Y-91224552D01*
X80650186Y-91307814D01*
X80733448Y-91409271D01*
X80762778Y-91445009D01*
X80846443Y-91601534D01*
X80897963Y-91771373D01*
X80915359Y-91948000D01*
X80897963Y-92124627D01*
X80846443Y-92294466D01*
X80762778Y-92450991D01*
X80733448Y-92486729D01*
X80650186Y-92588186D01*
X80548729Y-92671448D01*
X80512991Y-92700778D01*
X80356466Y-92784443D01*
X80186627Y-92835963D01*
X80120442Y-92842482D01*
X80054260Y-92849000D01*
X79965740Y-92849000D01*
X79899558Y-92842482D01*
X79833373Y-92835963D01*
X79663534Y-92784443D01*
X79507009Y-92700778D01*
X79471271Y-92671448D01*
X79369814Y-92588186D01*
X79286552Y-92486729D01*
X79257222Y-92450991D01*
X79173557Y-92294466D01*
X79122037Y-92124627D01*
X79104641Y-91948000D01*
X79122037Y-91771373D01*
X79173557Y-91601534D01*
X79257222Y-91445009D01*
X79286552Y-91409271D01*
X79369814Y-91307814D01*
X79471271Y-91224552D01*
X79507009Y-91195222D01*
X79663534Y-91111557D01*
X79833373Y-91060037D01*
X79899558Y-91053518D01*
X79965740Y-91047000D01*
X80054260Y-91047000D01*
X80120442Y-91053518D01*
X80120442Y-91053518D01*
G37*
G36*
X97813395Y-90779546D02*
G01*
X97986466Y-90851234D01*
X97986467Y-90851235D01*
X98142227Y-90955310D01*
X98274690Y-91087773D01*
X98327081Y-91166182D01*
X98378766Y-91243534D01*
X98450454Y-91416605D01*
X98487000Y-91600333D01*
X98487000Y-91787667D01*
X98450454Y-91971395D01*
X98378766Y-92144466D01*
X98378765Y-92144467D01*
X98274690Y-92300227D01*
X98142227Y-92432690D01*
X98114840Y-92450989D01*
X97986466Y-92536766D01*
X97813395Y-92608454D01*
X97629667Y-92645000D01*
X97442333Y-92645000D01*
X97258605Y-92608454D01*
X97085534Y-92536766D01*
X96957160Y-92450989D01*
X96929773Y-92432690D01*
X96797310Y-92300227D01*
X96693235Y-92144467D01*
X96693234Y-92144466D01*
X96621546Y-91971395D01*
X96585000Y-91787667D01*
X96585000Y-91600333D01*
X96621546Y-91416605D01*
X96693234Y-91243534D01*
X96744919Y-91166182D01*
X96797310Y-91087773D01*
X96929773Y-90955310D01*
X97085533Y-90851235D01*
X97085534Y-90851234D01*
X97258605Y-90779546D01*
X97442333Y-90743000D01*
X97629667Y-90743000D01*
X97813395Y-90779546D01*
X97813395Y-90779546D01*
G37*
G36*
X104417395Y-90779546D02*
G01*
X104590466Y-90851234D01*
X104590467Y-90851235D01*
X104746227Y-90955310D01*
X104878690Y-91087773D01*
X104931081Y-91166182D01*
X104982766Y-91243534D01*
X105054454Y-91416605D01*
X105091000Y-91600333D01*
X105091000Y-91787667D01*
X105054454Y-91971395D01*
X104982766Y-92144466D01*
X104982765Y-92144467D01*
X104878690Y-92300227D01*
X104746227Y-92432690D01*
X104718840Y-92450989D01*
X104590466Y-92536766D01*
X104417395Y-92608454D01*
X104233667Y-92645000D01*
X104046333Y-92645000D01*
X103862605Y-92608454D01*
X103689534Y-92536766D01*
X103561160Y-92450989D01*
X103533773Y-92432690D01*
X103401310Y-92300227D01*
X103297235Y-92144467D01*
X103297234Y-92144466D01*
X103225546Y-91971395D01*
X103189000Y-91787667D01*
X103189000Y-91600333D01*
X103225546Y-91416605D01*
X103297234Y-91243534D01*
X103348919Y-91166182D01*
X103401310Y-91087773D01*
X103533773Y-90955310D01*
X103689533Y-90851235D01*
X103689534Y-90851234D01*
X103862605Y-90779546D01*
X104046333Y-90743000D01*
X104233667Y-90743000D01*
X104417395Y-90779546D01*
X104417395Y-90779546D01*
G37*
G36*
X111021395Y-90779546D02*
G01*
X111194466Y-90851234D01*
X111194467Y-90851235D01*
X111350227Y-90955310D01*
X111482690Y-91087773D01*
X111535081Y-91166182D01*
X111586766Y-91243534D01*
X111658454Y-91416605D01*
X111695000Y-91600333D01*
X111695000Y-91787667D01*
X111658454Y-91971395D01*
X111586766Y-92144466D01*
X111586765Y-92144467D01*
X111482690Y-92300227D01*
X111350227Y-92432690D01*
X111322840Y-92450989D01*
X111194466Y-92536766D01*
X111021395Y-92608454D01*
X110837667Y-92645000D01*
X110650333Y-92645000D01*
X110466605Y-92608454D01*
X110293534Y-92536766D01*
X110165160Y-92450989D01*
X110137773Y-92432690D01*
X110005310Y-92300227D01*
X109901235Y-92144467D01*
X109901234Y-92144466D01*
X109829546Y-91971395D01*
X109793000Y-91787667D01*
X109793000Y-91600333D01*
X109829546Y-91416605D01*
X109901234Y-91243534D01*
X109952919Y-91166182D01*
X110005310Y-91087773D01*
X110137773Y-90955310D01*
X110293533Y-90851235D01*
X110293534Y-90851234D01*
X110466605Y-90779546D01*
X110650333Y-90743000D01*
X110837667Y-90743000D01*
X111021395Y-90779546D01*
X111021395Y-90779546D01*
G37*
G36*
X86272823Y-88315313D02*
G01*
X86433242Y-88363976D01*
X86565906Y-88434886D01*
X86581078Y-88442996D01*
X86710659Y-88549341D01*
X86817004Y-88678922D01*
X86817005Y-88678924D01*
X86896024Y-88826758D01*
X86944687Y-88987177D01*
X86961117Y-89154000D01*
X86944687Y-89320823D01*
X86896024Y-89481242D01*
X86887601Y-89497000D01*
X86817004Y-89629078D01*
X86710659Y-89758659D01*
X86581078Y-89865004D01*
X86581076Y-89865005D01*
X86433242Y-89944024D01*
X86272823Y-89992687D01*
X86147804Y-90005000D01*
X86064196Y-90005000D01*
X85939177Y-89992687D01*
X85778758Y-89944024D01*
X85630924Y-89865005D01*
X85630922Y-89865004D01*
X85501341Y-89758659D01*
X85394996Y-89629078D01*
X85324399Y-89497000D01*
X85315976Y-89481242D01*
X85267313Y-89320823D01*
X85250883Y-89154000D01*
X85267313Y-88987177D01*
X85315976Y-88826758D01*
X85394995Y-88678924D01*
X85394996Y-88678922D01*
X85501341Y-88549341D01*
X85630922Y-88442996D01*
X85646094Y-88434886D01*
X85778758Y-88363976D01*
X85939177Y-88315313D01*
X86064196Y-88303000D01*
X86147804Y-88303000D01*
X86272823Y-88315313D01*
X86272823Y-88315313D01*
G37*
G36*
X91352823Y-88315313D02*
G01*
X91513242Y-88363976D01*
X91645906Y-88434886D01*
X91661078Y-88442996D01*
X91790659Y-88549341D01*
X91897004Y-88678922D01*
X91897005Y-88678924D01*
X91976024Y-88826758D01*
X92024687Y-88987177D01*
X92041117Y-89154000D01*
X92024687Y-89320823D01*
X91976024Y-89481242D01*
X91967601Y-89497000D01*
X91897004Y-89629078D01*
X91790659Y-89758659D01*
X91661078Y-89865004D01*
X91661076Y-89865005D01*
X91513242Y-89944024D01*
X91352823Y-89992687D01*
X91227804Y-90005000D01*
X91144196Y-90005000D01*
X91019177Y-89992687D01*
X90858758Y-89944024D01*
X90710924Y-89865005D01*
X90710922Y-89865004D01*
X90581341Y-89758659D01*
X90474996Y-89629078D01*
X90404399Y-89497000D01*
X90395976Y-89481242D01*
X90347313Y-89320823D01*
X90330883Y-89154000D01*
X90347313Y-88987177D01*
X90395976Y-88826758D01*
X90474995Y-88678924D01*
X90474996Y-88678922D01*
X90581341Y-88549341D01*
X90710922Y-88442996D01*
X90726094Y-88434886D01*
X90858758Y-88363976D01*
X91019177Y-88315313D01*
X91144196Y-88303000D01*
X91227804Y-88303000D01*
X91352823Y-88315313D01*
X91352823Y-88315313D01*
G37*
G36*
X136310823Y-87807313D02*
G01*
X136471242Y-87855976D01*
X136603906Y-87926886D01*
X136619078Y-87934996D01*
X136748659Y-88041341D01*
X136855004Y-88170922D01*
X136855005Y-88170924D01*
X136934024Y-88318758D01*
X136982687Y-88479177D01*
X136999117Y-88646000D01*
X136982687Y-88812823D01*
X136934024Y-88973242D01*
X136863114Y-89105906D01*
X136855004Y-89121078D01*
X136748659Y-89250659D01*
X136619078Y-89357004D01*
X136619076Y-89357005D01*
X136471242Y-89436024D01*
X136310823Y-89484687D01*
X136185804Y-89497000D01*
X136102196Y-89497000D01*
X135977177Y-89484687D01*
X135816758Y-89436024D01*
X135668924Y-89357005D01*
X135668922Y-89357004D01*
X135539341Y-89250659D01*
X135432996Y-89121078D01*
X135424886Y-89105906D01*
X135353976Y-88973242D01*
X135305313Y-88812823D01*
X135288883Y-88646000D01*
X135305313Y-88479177D01*
X135353976Y-88318758D01*
X135432995Y-88170924D01*
X135432996Y-88170922D01*
X135539341Y-88041341D01*
X135668922Y-87934996D01*
X135684094Y-87926886D01*
X135816758Y-87855976D01*
X135977177Y-87807313D01*
X136102196Y-87795000D01*
X136185804Y-87795000D01*
X136310823Y-87807313D01*
X136310823Y-87807313D01*
G37*
G36*
X144615000Y-89497000D02*
G01*
X142913000Y-89497000D01*
X142913000Y-87795000D01*
X144615000Y-87795000D01*
X144615000Y-89497000D01*
X144615000Y-89497000D01*
G37*
G36*
X141390823Y-87807313D02*
G01*
X141551242Y-87855976D01*
X141683906Y-87926886D01*
X141699078Y-87934996D01*
X141828659Y-88041341D01*
X141935004Y-88170922D01*
X141935005Y-88170924D01*
X142014024Y-88318758D01*
X142062687Y-88479177D01*
X142079117Y-88646000D01*
X142062687Y-88812823D01*
X142014024Y-88973242D01*
X141943114Y-89105906D01*
X141935004Y-89121078D01*
X141828659Y-89250659D01*
X141699078Y-89357004D01*
X141699076Y-89357005D01*
X141551242Y-89436024D01*
X141390823Y-89484687D01*
X141265804Y-89497000D01*
X141182196Y-89497000D01*
X141057177Y-89484687D01*
X140896758Y-89436024D01*
X140748924Y-89357005D01*
X140748922Y-89357004D01*
X140619341Y-89250659D01*
X140512996Y-89121078D01*
X140504886Y-89105906D01*
X140433976Y-88973242D01*
X140385313Y-88812823D01*
X140368883Y-88646000D01*
X140385313Y-88479177D01*
X140433976Y-88318758D01*
X140512995Y-88170924D01*
X140512996Y-88170922D01*
X140619341Y-88041341D01*
X140748922Y-87934996D01*
X140764094Y-87926886D01*
X140896758Y-87855976D01*
X141057177Y-87807313D01*
X141182196Y-87795000D01*
X141265804Y-87795000D01*
X141390823Y-87807313D01*
X141390823Y-87807313D01*
G37*
G36*
X138850823Y-87807313D02*
G01*
X139011242Y-87855976D01*
X139143906Y-87926886D01*
X139159078Y-87934996D01*
X139288659Y-88041341D01*
X139395004Y-88170922D01*
X139395005Y-88170924D01*
X139474024Y-88318758D01*
X139522687Y-88479177D01*
X139539117Y-88646000D01*
X139522687Y-88812823D01*
X139474024Y-88973242D01*
X139403114Y-89105906D01*
X139395004Y-89121078D01*
X139288659Y-89250659D01*
X139159078Y-89357004D01*
X139159076Y-89357005D01*
X139011242Y-89436024D01*
X138850823Y-89484687D01*
X138725804Y-89497000D01*
X138642196Y-89497000D01*
X138517177Y-89484687D01*
X138356758Y-89436024D01*
X138208924Y-89357005D01*
X138208922Y-89357004D01*
X138079341Y-89250659D01*
X137972996Y-89121078D01*
X137964886Y-89105906D01*
X137893976Y-88973242D01*
X137845313Y-88812823D01*
X137828883Y-88646000D01*
X137845313Y-88479177D01*
X137893976Y-88318758D01*
X137972995Y-88170924D01*
X137972996Y-88170922D01*
X138079341Y-88041341D01*
X138208922Y-87934996D01*
X138224094Y-87926886D01*
X138356758Y-87855976D01*
X138517177Y-87807313D01*
X138642196Y-87795000D01*
X138725804Y-87795000D01*
X138850823Y-87807313D01*
X138850823Y-87807313D01*
G37*
G36*
X133770823Y-87807313D02*
G01*
X133931242Y-87855976D01*
X134063906Y-87926886D01*
X134079078Y-87934996D01*
X134208659Y-88041341D01*
X134315004Y-88170922D01*
X134315005Y-88170924D01*
X134394024Y-88318758D01*
X134442687Y-88479177D01*
X134459117Y-88646000D01*
X134442687Y-88812823D01*
X134394024Y-88973242D01*
X134323114Y-89105906D01*
X134315004Y-89121078D01*
X134208659Y-89250659D01*
X134079078Y-89357004D01*
X134079076Y-89357005D01*
X133931242Y-89436024D01*
X133770823Y-89484687D01*
X133645804Y-89497000D01*
X133562196Y-89497000D01*
X133437177Y-89484687D01*
X133276758Y-89436024D01*
X133128924Y-89357005D01*
X133128922Y-89357004D01*
X132999341Y-89250659D01*
X132892996Y-89121078D01*
X132884886Y-89105906D01*
X132813976Y-88973242D01*
X132765313Y-88812823D01*
X132748883Y-88646000D01*
X132765313Y-88479177D01*
X132813976Y-88318758D01*
X132892995Y-88170924D01*
X132892996Y-88170922D01*
X132999341Y-88041341D01*
X133128922Y-87934996D01*
X133144094Y-87926886D01*
X133276758Y-87855976D01*
X133437177Y-87807313D01*
X133562196Y-87795000D01*
X133645804Y-87795000D01*
X133770823Y-87807313D01*
X133770823Y-87807313D01*
G37*
G36*
X131230823Y-87807313D02*
G01*
X131391242Y-87855976D01*
X131523906Y-87926886D01*
X131539078Y-87934996D01*
X131668659Y-88041341D01*
X131775004Y-88170922D01*
X131775005Y-88170924D01*
X131854024Y-88318758D01*
X131902687Y-88479177D01*
X131919117Y-88646000D01*
X131902687Y-88812823D01*
X131854024Y-88973242D01*
X131783114Y-89105906D01*
X131775004Y-89121078D01*
X131668659Y-89250659D01*
X131539078Y-89357004D01*
X131539076Y-89357005D01*
X131391242Y-89436024D01*
X131230823Y-89484687D01*
X131105804Y-89497000D01*
X131022196Y-89497000D01*
X130897177Y-89484687D01*
X130736758Y-89436024D01*
X130588924Y-89357005D01*
X130588922Y-89357004D01*
X130459341Y-89250659D01*
X130352996Y-89121078D01*
X130344886Y-89105906D01*
X130273976Y-88973242D01*
X130225313Y-88812823D01*
X130208883Y-88646000D01*
X130225313Y-88479177D01*
X130273976Y-88318758D01*
X130352995Y-88170924D01*
X130352996Y-88170922D01*
X130459341Y-88041341D01*
X130588922Y-87934996D01*
X130604094Y-87926886D01*
X130736758Y-87855976D01*
X130897177Y-87807313D01*
X131022196Y-87795000D01*
X131105804Y-87795000D01*
X131230823Y-87807313D01*
X131230823Y-87807313D01*
G37*
G36*
X126150823Y-87807313D02*
G01*
X126311242Y-87855976D01*
X126443906Y-87926886D01*
X126459078Y-87934996D01*
X126588659Y-88041341D01*
X126695004Y-88170922D01*
X126695005Y-88170924D01*
X126774024Y-88318758D01*
X126822687Y-88479177D01*
X126839117Y-88646000D01*
X126822687Y-88812823D01*
X126774024Y-88973242D01*
X126703114Y-89105906D01*
X126695004Y-89121078D01*
X126588659Y-89250659D01*
X126459078Y-89357004D01*
X126459076Y-89357005D01*
X126311242Y-89436024D01*
X126150823Y-89484687D01*
X126025804Y-89497000D01*
X125942196Y-89497000D01*
X125817177Y-89484687D01*
X125656758Y-89436024D01*
X125508924Y-89357005D01*
X125508922Y-89357004D01*
X125379341Y-89250659D01*
X125272996Y-89121078D01*
X125264886Y-89105906D01*
X125193976Y-88973242D01*
X125145313Y-88812823D01*
X125128883Y-88646000D01*
X125145313Y-88479177D01*
X125193976Y-88318758D01*
X125272995Y-88170924D01*
X125272996Y-88170922D01*
X125379341Y-88041341D01*
X125508922Y-87934996D01*
X125524094Y-87926886D01*
X125656758Y-87855976D01*
X125817177Y-87807313D01*
X125942196Y-87795000D01*
X126025804Y-87795000D01*
X126150823Y-87807313D01*
X126150823Y-87807313D01*
G37*
G36*
X123610823Y-87807313D02*
G01*
X123771242Y-87855976D01*
X123903906Y-87926886D01*
X123919078Y-87934996D01*
X124048659Y-88041341D01*
X124155004Y-88170922D01*
X124155005Y-88170924D01*
X124234024Y-88318758D01*
X124282687Y-88479177D01*
X124299117Y-88646000D01*
X124282687Y-88812823D01*
X124234024Y-88973242D01*
X124163114Y-89105906D01*
X124155004Y-89121078D01*
X124048659Y-89250659D01*
X123919078Y-89357004D01*
X123919076Y-89357005D01*
X123771242Y-89436024D01*
X123610823Y-89484687D01*
X123485804Y-89497000D01*
X123402196Y-89497000D01*
X123277177Y-89484687D01*
X123116758Y-89436024D01*
X122968924Y-89357005D01*
X122968922Y-89357004D01*
X122839341Y-89250659D01*
X122732996Y-89121078D01*
X122724886Y-89105906D01*
X122653976Y-88973242D01*
X122605313Y-88812823D01*
X122588883Y-88646000D01*
X122605313Y-88479177D01*
X122653976Y-88318758D01*
X122732995Y-88170924D01*
X122732996Y-88170922D01*
X122839341Y-88041341D01*
X122968922Y-87934996D01*
X122984094Y-87926886D01*
X123116758Y-87855976D01*
X123277177Y-87807313D01*
X123402196Y-87795000D01*
X123485804Y-87795000D01*
X123610823Y-87807313D01*
X123610823Y-87807313D01*
G37*
G36*
X118530823Y-87807313D02*
G01*
X118691242Y-87855976D01*
X118823906Y-87926886D01*
X118839078Y-87934996D01*
X118968659Y-88041341D01*
X119075004Y-88170922D01*
X119075005Y-88170924D01*
X119154024Y-88318758D01*
X119202687Y-88479177D01*
X119219117Y-88646000D01*
X119202687Y-88812823D01*
X119154024Y-88973242D01*
X119083114Y-89105906D01*
X119075004Y-89121078D01*
X118968659Y-89250659D01*
X118839078Y-89357004D01*
X118839076Y-89357005D01*
X118691242Y-89436024D01*
X118530823Y-89484687D01*
X118405804Y-89497000D01*
X118322196Y-89497000D01*
X118197177Y-89484687D01*
X118036758Y-89436024D01*
X117888924Y-89357005D01*
X117888922Y-89357004D01*
X117759341Y-89250659D01*
X117652996Y-89121078D01*
X117644886Y-89105906D01*
X117573976Y-88973242D01*
X117525313Y-88812823D01*
X117508883Y-88646000D01*
X117525313Y-88479177D01*
X117573976Y-88318758D01*
X117652995Y-88170924D01*
X117652996Y-88170922D01*
X117759341Y-88041341D01*
X117888922Y-87934996D01*
X117904094Y-87926886D01*
X118036758Y-87855976D01*
X118197177Y-87807313D01*
X118322196Y-87795000D01*
X118405804Y-87795000D01*
X118530823Y-87807313D01*
X118530823Y-87807313D01*
G37*
G36*
X115990823Y-87807313D02*
G01*
X116151242Y-87855976D01*
X116283906Y-87926886D01*
X116299078Y-87934996D01*
X116428659Y-88041341D01*
X116535004Y-88170922D01*
X116535005Y-88170924D01*
X116614024Y-88318758D01*
X116662687Y-88479177D01*
X116679117Y-88646000D01*
X116662687Y-88812823D01*
X116614024Y-88973242D01*
X116543114Y-89105906D01*
X116535004Y-89121078D01*
X116428659Y-89250659D01*
X116299078Y-89357004D01*
X116299076Y-89357005D01*
X116151242Y-89436024D01*
X115990823Y-89484687D01*
X115865804Y-89497000D01*
X115782196Y-89497000D01*
X115657177Y-89484687D01*
X115496758Y-89436024D01*
X115348924Y-89357005D01*
X115348922Y-89357004D01*
X115219341Y-89250659D01*
X115112996Y-89121078D01*
X115104886Y-89105906D01*
X115033976Y-88973242D01*
X114985313Y-88812823D01*
X114968883Y-88646000D01*
X114985313Y-88479177D01*
X115033976Y-88318758D01*
X115112995Y-88170924D01*
X115112996Y-88170922D01*
X115219341Y-88041341D01*
X115348922Y-87934996D01*
X115364094Y-87926886D01*
X115496758Y-87855976D01*
X115657177Y-87807313D01*
X115782196Y-87795000D01*
X115865804Y-87795000D01*
X115990823Y-87807313D01*
X115990823Y-87807313D01*
G37*
G36*
X121070823Y-87807313D02*
G01*
X121231242Y-87855976D01*
X121363906Y-87926886D01*
X121379078Y-87934996D01*
X121508659Y-88041341D01*
X121615004Y-88170922D01*
X121615005Y-88170924D01*
X121694024Y-88318758D01*
X121742687Y-88479177D01*
X121759117Y-88646000D01*
X121742687Y-88812823D01*
X121694024Y-88973242D01*
X121623114Y-89105906D01*
X121615004Y-89121078D01*
X121508659Y-89250659D01*
X121379078Y-89357004D01*
X121379076Y-89357005D01*
X121231242Y-89436024D01*
X121070823Y-89484687D01*
X120945804Y-89497000D01*
X120862196Y-89497000D01*
X120737177Y-89484687D01*
X120576758Y-89436024D01*
X120428924Y-89357005D01*
X120428922Y-89357004D01*
X120299341Y-89250659D01*
X120192996Y-89121078D01*
X120184886Y-89105906D01*
X120113976Y-88973242D01*
X120065313Y-88812823D01*
X120048883Y-88646000D01*
X120065313Y-88479177D01*
X120113976Y-88318758D01*
X120192995Y-88170924D01*
X120192996Y-88170922D01*
X120299341Y-88041341D01*
X120428922Y-87934996D01*
X120444094Y-87926886D01*
X120576758Y-87855976D01*
X120737177Y-87807313D01*
X120862196Y-87795000D01*
X120945804Y-87795000D01*
X121070823Y-87807313D01*
X121070823Y-87807313D01*
G37*
G36*
X128690823Y-87807313D02*
G01*
X128851242Y-87855976D01*
X128983906Y-87926886D01*
X128999078Y-87934996D01*
X129128659Y-88041341D01*
X129235004Y-88170922D01*
X129235005Y-88170924D01*
X129314024Y-88318758D01*
X129362687Y-88479177D01*
X129379117Y-88646000D01*
X129362687Y-88812823D01*
X129314024Y-88973242D01*
X129243114Y-89105906D01*
X129235004Y-89121078D01*
X129128659Y-89250659D01*
X128999078Y-89357004D01*
X128999076Y-89357005D01*
X128851242Y-89436024D01*
X128690823Y-89484687D01*
X128565804Y-89497000D01*
X128482196Y-89497000D01*
X128357177Y-89484687D01*
X128196758Y-89436024D01*
X128048924Y-89357005D01*
X128048922Y-89357004D01*
X127919341Y-89250659D01*
X127812996Y-89121078D01*
X127804886Y-89105906D01*
X127733976Y-88973242D01*
X127685313Y-88812823D01*
X127668883Y-88646000D01*
X127685313Y-88479177D01*
X127733976Y-88318758D01*
X127812995Y-88170924D01*
X127812996Y-88170922D01*
X127919341Y-88041341D01*
X128048922Y-87934996D01*
X128064094Y-87926886D01*
X128196758Y-87855976D01*
X128357177Y-87807313D01*
X128482196Y-87795000D01*
X128565804Y-87795000D01*
X128690823Y-87807313D01*
X128690823Y-87807313D01*
G37*
G36*
X86354228Y-85795703D02*
G01*
X86509100Y-85859853D01*
X86648481Y-85952985D01*
X86767015Y-86071519D01*
X86860147Y-86210900D01*
X86924297Y-86365772D01*
X86957000Y-86530184D01*
X86957000Y-86697816D01*
X86924297Y-86862228D01*
X86860147Y-87017100D01*
X86767015Y-87156481D01*
X86648481Y-87275015D01*
X86509100Y-87368147D01*
X86354228Y-87432297D01*
X86189816Y-87465000D01*
X86022184Y-87465000D01*
X85857772Y-87432297D01*
X85702900Y-87368147D01*
X85563519Y-87275015D01*
X85444985Y-87156481D01*
X85351853Y-87017100D01*
X85287703Y-86862228D01*
X85255000Y-86697816D01*
X85255000Y-86530184D01*
X85287703Y-86365772D01*
X85351853Y-86210900D01*
X85444985Y-86071519D01*
X85563519Y-85952985D01*
X85702900Y-85859853D01*
X85857772Y-85795703D01*
X86022184Y-85763000D01*
X86189816Y-85763000D01*
X86354228Y-85795703D01*
X86354228Y-85795703D01*
G37*
G36*
X91434228Y-85795703D02*
G01*
X91589100Y-85859853D01*
X91728481Y-85952985D01*
X91847015Y-86071519D01*
X91940147Y-86210900D01*
X92004297Y-86365772D01*
X92037000Y-86530184D01*
X92037000Y-86697816D01*
X92004297Y-86862228D01*
X91940147Y-87017100D01*
X91847015Y-87156481D01*
X91728481Y-87275015D01*
X91589100Y-87368147D01*
X91434228Y-87432297D01*
X91269816Y-87465000D01*
X91102184Y-87465000D01*
X90937772Y-87432297D01*
X90782900Y-87368147D01*
X90643519Y-87275015D01*
X90524985Y-87156481D01*
X90431853Y-87017100D01*
X90367703Y-86862228D01*
X90335000Y-86697816D01*
X90335000Y-86530184D01*
X90367703Y-86365772D01*
X90431853Y-86210900D01*
X90524985Y-86071519D01*
X90643519Y-85952985D01*
X90782900Y-85859853D01*
X90937772Y-85795703D01*
X91102184Y-85763000D01*
X91269816Y-85763000D01*
X91434228Y-85795703D01*
X91434228Y-85795703D01*
G37*
G36*
X102356228Y-84525703D02*
G01*
X102511100Y-84589853D01*
X102650481Y-84682985D01*
X102769015Y-84801519D01*
X102862147Y-84940900D01*
X102926297Y-85095772D01*
X102959000Y-85260184D01*
X102959000Y-85427816D01*
X102926297Y-85592228D01*
X102862147Y-85747100D01*
X102769015Y-85886481D01*
X102650481Y-86005015D01*
X102511100Y-86098147D01*
X102356228Y-86162297D01*
X102191816Y-86195000D01*
X102024184Y-86195000D01*
X101859772Y-86162297D01*
X101704900Y-86098147D01*
X101565519Y-86005015D01*
X101446985Y-85886481D01*
X101353853Y-85747100D01*
X101289703Y-85592228D01*
X101257000Y-85427816D01*
X101257000Y-85260184D01*
X101289703Y-85095772D01*
X101353853Y-84940900D01*
X101446985Y-84801519D01*
X101565519Y-84682985D01*
X101704900Y-84589853D01*
X101859772Y-84525703D01*
X102024184Y-84493000D01*
X102191816Y-84493000D01*
X102356228Y-84525703D01*
X102356228Y-84525703D01*
G37*
G36*
X123184228Y-84525703D02*
G01*
X123339100Y-84589853D01*
X123478481Y-84682985D01*
X123597015Y-84801519D01*
X123690147Y-84940900D01*
X123754297Y-85095772D01*
X123787000Y-85260184D01*
X123787000Y-85427816D01*
X123754297Y-85592228D01*
X123690147Y-85747100D01*
X123597015Y-85886481D01*
X123478481Y-86005015D01*
X123339100Y-86098147D01*
X123184228Y-86162297D01*
X123019816Y-86195000D01*
X122852184Y-86195000D01*
X122687772Y-86162297D01*
X122532900Y-86098147D01*
X122393519Y-86005015D01*
X122274985Y-85886481D01*
X122181853Y-85747100D01*
X122117703Y-85592228D01*
X122085000Y-85427816D01*
X122085000Y-85260184D01*
X122117703Y-85095772D01*
X122181853Y-84940900D01*
X122274985Y-84801519D01*
X122393519Y-84682985D01*
X122532900Y-84589853D01*
X122687772Y-84525703D01*
X122852184Y-84493000D01*
X123019816Y-84493000D01*
X123184228Y-84525703D01*
X123184228Y-84525703D01*
G37*
G36*
X112770228Y-84525703D02*
G01*
X112925100Y-84589853D01*
X113064481Y-84682985D01*
X113183015Y-84801519D01*
X113276147Y-84940900D01*
X113340297Y-85095772D01*
X113373000Y-85260184D01*
X113373000Y-85427816D01*
X113340297Y-85592228D01*
X113276147Y-85747100D01*
X113183015Y-85886481D01*
X113064481Y-86005015D01*
X112925100Y-86098147D01*
X112770228Y-86162297D01*
X112605816Y-86195000D01*
X112438184Y-86195000D01*
X112273772Y-86162297D01*
X112118900Y-86098147D01*
X111979519Y-86005015D01*
X111860985Y-85886481D01*
X111767853Y-85747100D01*
X111703703Y-85592228D01*
X111671000Y-85427816D01*
X111671000Y-85260184D01*
X111703703Y-85095772D01*
X111767853Y-84940900D01*
X111860985Y-84801519D01*
X111979519Y-84682985D01*
X112118900Y-84589853D01*
X112273772Y-84525703D01*
X112438184Y-84493000D01*
X112605816Y-84493000D01*
X112770228Y-84525703D01*
X112770228Y-84525703D01*
G37*
G36*
X105068823Y-84505313D02*
G01*
X105229242Y-84553976D01*
X105296361Y-84589852D01*
X105377078Y-84632996D01*
X105506659Y-84739341D01*
X105613004Y-84868922D01*
X105613005Y-84868924D01*
X105692024Y-85016758D01*
X105740687Y-85177177D01*
X105757117Y-85344000D01*
X105740687Y-85510823D01*
X105692024Y-85671242D01*
X105651477Y-85747100D01*
X105613004Y-85819078D01*
X105506659Y-85948659D01*
X105377078Y-86055004D01*
X105377076Y-86055005D01*
X105229242Y-86134024D01*
X105068823Y-86182687D01*
X104943804Y-86195000D01*
X104860196Y-86195000D01*
X104735177Y-86182687D01*
X104574758Y-86134024D01*
X104426924Y-86055005D01*
X104426922Y-86055004D01*
X104297341Y-85948659D01*
X104190996Y-85819078D01*
X104152523Y-85747100D01*
X104111976Y-85671242D01*
X104063313Y-85510823D01*
X104046883Y-85344000D01*
X104063313Y-85177177D01*
X104111976Y-85016758D01*
X104190995Y-84868924D01*
X104190996Y-84868922D01*
X104297341Y-84739341D01*
X104426922Y-84632996D01*
X104507639Y-84589852D01*
X104574758Y-84553976D01*
X104735177Y-84505313D01*
X104860196Y-84493000D01*
X104943804Y-84493000D01*
X105068823Y-84505313D01*
X105068823Y-84505313D01*
G37*
G36*
X115482823Y-84505313D02*
G01*
X115643242Y-84553976D01*
X115710361Y-84589852D01*
X115791078Y-84632996D01*
X115920659Y-84739341D01*
X116027004Y-84868922D01*
X116027005Y-84868924D01*
X116106024Y-85016758D01*
X116154687Y-85177177D01*
X116171117Y-85344000D01*
X116154687Y-85510823D01*
X116106024Y-85671242D01*
X116065477Y-85747100D01*
X116027004Y-85819078D01*
X115920659Y-85948659D01*
X115791078Y-86055004D01*
X115791076Y-86055005D01*
X115643242Y-86134024D01*
X115482823Y-86182687D01*
X115357804Y-86195000D01*
X115274196Y-86195000D01*
X115149177Y-86182687D01*
X114988758Y-86134024D01*
X114840924Y-86055005D01*
X114840922Y-86055004D01*
X114711341Y-85948659D01*
X114604996Y-85819078D01*
X114566523Y-85747100D01*
X114525976Y-85671242D01*
X114477313Y-85510823D01*
X114460883Y-85344000D01*
X114477313Y-85177177D01*
X114525976Y-85016758D01*
X114604995Y-84868924D01*
X114604996Y-84868922D01*
X114711341Y-84739341D01*
X114840922Y-84632996D01*
X114921639Y-84589852D01*
X114988758Y-84553976D01*
X115149177Y-84505313D01*
X115274196Y-84493000D01*
X115357804Y-84493000D01*
X115482823Y-84505313D01*
X115482823Y-84505313D01*
G37*
G36*
X94654823Y-84505313D02*
G01*
X94815242Y-84553976D01*
X94882361Y-84589852D01*
X94963078Y-84632996D01*
X95092659Y-84739341D01*
X95199004Y-84868922D01*
X95199005Y-84868924D01*
X95278024Y-85016758D01*
X95326687Y-85177177D01*
X95343117Y-85344000D01*
X95326687Y-85510823D01*
X95278024Y-85671242D01*
X95237477Y-85747100D01*
X95199004Y-85819078D01*
X95092659Y-85948659D01*
X94963078Y-86055004D01*
X94963076Y-86055005D01*
X94815242Y-86134024D01*
X94654823Y-86182687D01*
X94529804Y-86195000D01*
X94446196Y-86195000D01*
X94321177Y-86182687D01*
X94160758Y-86134024D01*
X94012924Y-86055005D01*
X94012922Y-86055004D01*
X93883341Y-85948659D01*
X93776996Y-85819078D01*
X93738523Y-85747100D01*
X93697976Y-85671242D01*
X93649313Y-85510823D01*
X93632883Y-85344000D01*
X93649313Y-85177177D01*
X93697976Y-85016758D01*
X93776995Y-84868924D01*
X93776996Y-84868922D01*
X93883341Y-84739341D01*
X94012922Y-84632996D01*
X94093639Y-84589852D01*
X94160758Y-84553976D01*
X94321177Y-84505313D01*
X94446196Y-84493000D01*
X94529804Y-84493000D01*
X94654823Y-84505313D01*
X94654823Y-84505313D01*
G37*
G36*
X92087000Y-84213000D02*
G01*
X90285000Y-84213000D01*
X90285000Y-82411000D01*
X92087000Y-82411000D01*
X92087000Y-84213000D01*
X92087000Y-84213000D01*
G37*
G36*
X86216443Y-82417519D02*
G01*
X86282627Y-82424037D01*
X86452466Y-82475557D01*
X86608991Y-82559222D01*
X86642167Y-82586449D01*
X86746186Y-82671814D01*
X86829448Y-82773271D01*
X86858778Y-82809009D01*
X86942443Y-82965534D01*
X86993963Y-83135373D01*
X87011359Y-83312000D01*
X86993963Y-83488627D01*
X86942443Y-83658466D01*
X86858778Y-83814991D01*
X86829448Y-83850729D01*
X86746186Y-83952186D01*
X86644729Y-84035448D01*
X86608991Y-84064778D01*
X86452466Y-84148443D01*
X86282627Y-84199963D01*
X86216442Y-84206482D01*
X86150260Y-84213000D01*
X86061740Y-84213000D01*
X85995558Y-84206482D01*
X85929373Y-84199963D01*
X85759534Y-84148443D01*
X85603009Y-84064778D01*
X85567271Y-84035448D01*
X85465814Y-83952186D01*
X85382552Y-83850729D01*
X85353222Y-83814991D01*
X85269557Y-83658466D01*
X85218037Y-83488627D01*
X85200641Y-83312000D01*
X85218037Y-83135373D01*
X85269557Y-82965534D01*
X85353222Y-82809009D01*
X85382552Y-82773271D01*
X85465814Y-82671814D01*
X85569833Y-82586449D01*
X85603009Y-82559222D01*
X85759534Y-82475557D01*
X85929373Y-82424037D01*
X85995557Y-82417519D01*
X86061740Y-82411000D01*
X86150260Y-82411000D01*
X86216443Y-82417519D01*
X86216443Y-82417519D01*
G37*
G36*
X88756443Y-82417519D02*
G01*
X88822627Y-82424037D01*
X88992466Y-82475557D01*
X89148991Y-82559222D01*
X89182167Y-82586449D01*
X89286186Y-82671814D01*
X89369448Y-82773271D01*
X89398778Y-82809009D01*
X89482443Y-82965534D01*
X89533963Y-83135373D01*
X89551359Y-83312000D01*
X89533963Y-83488627D01*
X89482443Y-83658466D01*
X89398778Y-83814991D01*
X89369448Y-83850729D01*
X89286186Y-83952186D01*
X89184729Y-84035448D01*
X89148991Y-84064778D01*
X88992466Y-84148443D01*
X88822627Y-84199963D01*
X88756442Y-84206482D01*
X88690260Y-84213000D01*
X88601740Y-84213000D01*
X88535558Y-84206482D01*
X88469373Y-84199963D01*
X88299534Y-84148443D01*
X88143009Y-84064778D01*
X88107271Y-84035448D01*
X88005814Y-83952186D01*
X87922552Y-83850729D01*
X87893222Y-83814991D01*
X87809557Y-83658466D01*
X87758037Y-83488627D01*
X87740641Y-83312000D01*
X87758037Y-83135373D01*
X87809557Y-82965534D01*
X87893222Y-82809009D01*
X87922552Y-82773271D01*
X88005814Y-82671814D01*
X88109833Y-82586449D01*
X88143009Y-82559222D01*
X88299534Y-82475557D01*
X88469373Y-82424037D01*
X88535557Y-82417519D01*
X88601740Y-82411000D01*
X88690260Y-82411000D01*
X88756443Y-82417519D01*
X88756443Y-82417519D01*
G37*
G36*
X133460442Y-81909518D02*
G01*
X133526627Y-81916037D01*
X133696466Y-81967557D01*
X133852991Y-82051222D01*
X133888729Y-82080552D01*
X133990186Y-82163814D01*
X134073448Y-82265271D01*
X134102778Y-82301009D01*
X134186443Y-82457534D01*
X134237963Y-82627373D01*
X134255359Y-82804000D01*
X134237963Y-82980627D01*
X134186443Y-83150466D01*
X134102778Y-83306991D01*
X134073448Y-83342729D01*
X133990186Y-83444186D01*
X133915963Y-83505098D01*
X133852991Y-83556778D01*
X133696466Y-83640443D01*
X133526627Y-83691963D01*
X133460442Y-83698482D01*
X133394260Y-83705000D01*
X133305740Y-83705000D01*
X133239558Y-83698482D01*
X133173373Y-83691963D01*
X133003534Y-83640443D01*
X132847009Y-83556778D01*
X132784037Y-83505098D01*
X132709814Y-83444186D01*
X132626552Y-83342729D01*
X132597222Y-83306991D01*
X132513557Y-83150466D01*
X132462037Y-82980627D01*
X132444641Y-82804000D01*
X132462037Y-82627373D01*
X132513557Y-82457534D01*
X132597222Y-82301009D01*
X132626552Y-82265271D01*
X132709814Y-82163814D01*
X132811271Y-82080552D01*
X132847009Y-82051222D01*
X133003534Y-81967557D01*
X133173373Y-81916037D01*
X133239558Y-81909518D01*
X133305740Y-81903000D01*
X133394260Y-81903000D01*
X133460442Y-81909518D01*
X133460442Y-81909518D01*
G37*
G36*
X131711000Y-83705000D02*
G01*
X129909000Y-83705000D01*
X129909000Y-81903000D01*
X131711000Y-81903000D01*
X131711000Y-83705000D01*
X131711000Y-83705000D01*
G37*
G36*
X80131256Y-80433298D02*
G01*
X80237579Y-80454447D01*
X80538042Y-80578903D01*
X80808451Y-80759585D01*
X81038415Y-80989549D01*
X81219097Y-81259958D01*
X81219098Y-81259960D01*
X81343553Y-81560422D01*
X81407000Y-81879389D01*
X81407000Y-82204611D01*
X81384835Y-82316040D01*
X81343553Y-82523579D01*
X81219097Y-82824042D01*
X81038415Y-83094451D01*
X80808451Y-83324415D01*
X80538042Y-83505097D01*
X80237579Y-83629553D01*
X80182836Y-83640442D01*
X79918611Y-83693000D01*
X79593389Y-83693000D01*
X79329164Y-83640442D01*
X79274421Y-83629553D01*
X78973958Y-83505097D01*
X78703549Y-83324415D01*
X78473585Y-83094451D01*
X78292903Y-82824042D01*
X78168447Y-82523579D01*
X78127165Y-82316040D01*
X78105000Y-82204611D01*
X78105000Y-81879389D01*
X78168447Y-81560422D01*
X78292902Y-81259960D01*
X78292903Y-81259958D01*
X78473585Y-80989549D01*
X78703549Y-80759585D01*
X78973958Y-80578903D01*
X79274421Y-80454447D01*
X79380744Y-80433298D01*
X79593389Y-80391000D01*
X79918611Y-80391000D01*
X80131256Y-80433298D01*
X80131256Y-80433298D01*
G37*
G36*
X142869256Y-79925298D02*
G01*
X142975579Y-79946447D01*
X143276042Y-80070903D01*
X143546451Y-80251585D01*
X143776415Y-80481549D01*
X143957097Y-80751958D01*
X144055511Y-80989549D01*
X144081553Y-81052422D01*
X144145000Y-81371389D01*
X144145000Y-81696611D01*
X144103946Y-81903000D01*
X144081553Y-82015579D01*
X143957097Y-82316042D01*
X143776415Y-82586451D01*
X143546451Y-82816415D01*
X143276042Y-82997097D01*
X142975579Y-83121553D01*
X142906101Y-83135373D01*
X142656611Y-83185000D01*
X142331389Y-83185000D01*
X142081899Y-83135373D01*
X142012421Y-83121553D01*
X141711958Y-82997097D01*
X141441549Y-82816415D01*
X141211585Y-82586451D01*
X141030903Y-82316042D01*
X140906447Y-82015579D01*
X140884054Y-81903000D01*
X140843000Y-81696611D01*
X140843000Y-81371389D01*
X140906447Y-81052422D01*
X140932490Y-80989549D01*
X141030903Y-80751958D01*
X141211585Y-80481549D01*
X141441549Y-80251585D01*
X141711958Y-80070903D01*
X142012421Y-79946447D01*
X142118744Y-79925298D01*
X142331389Y-79883000D01*
X142656611Y-79883000D01*
X142869256Y-79925298D01*
X142869256Y-79925298D01*
G37*
M02*
