M48
; DRILL file {KiCad (5.1.0)-1} date 10/23/2020 11:32:50 PM
; FORMAT={-:-/ absolute / inch / decimal}
; #@! TF.CreationDate,2020-10-23T23:32:50+03:00
; #@! TF.GenerationSoftware,Kicad,Pcbnew,(5.1.0)-1
; #@! TF.FileFunction,Plated,1,2,PTH
FMAT,2
INCH
T1C0.0315
T2C0.0354
T3C0.0394
%
G90
G05
T1
X3.72Y-3.36
X4.02Y-3.36
X4.54Y-4.22
X4.84Y-4.22
X3.72Y-4.22
X4.02Y-4.22
X4.56Y-3.49
X4.56Y-4.09
X4.66Y-3.49
X4.66Y-4.09
X4.76Y-3.49
X4.76Y-4.09
X4.86Y-3.49
X4.86Y-4.09
X4.96Y-3.49
X4.96Y-4.09
X5.06Y-3.49
X5.06Y-4.09
X5.16Y-3.49
X5.16Y-4.09
X5.26Y-3.49
X5.26Y-4.09
X5.36Y-3.49
X5.36Y-4.09
X5.46Y-3.49
X5.46Y-4.09
X5.56Y-3.49
X5.56Y-4.09
X5.66Y-3.49
X5.66Y-4.09
X4.13Y-3.36
X4.43Y-3.36
X3.3Y-3.99
X3.6Y-3.99
X3.3Y-4.23
X3.6Y-4.23
X3.39Y-3.41
X3.39Y-3.51
X4.54Y-3.36
X4.84Y-3.36
X3.3Y-4.11
X3.6Y-4.11
X3.59Y-3.41
X3.59Y-3.51
X4.13Y-4.22
X4.43Y-4.22
X3.14Y-3.97
X3.14Y-4.07
X3.14Y-4.17
T2
X4.36Y-3.61
X4.36Y-3.71
X4.1Y-3.61
X4.1Y-3.71
X3.84Y-3.61
X3.84Y-3.71
X4.1Y-3.87
X4.1Y-3.97
X3.84Y-3.87
X3.84Y-3.97
X4.36Y-3.87
X4.36Y-3.97
X3.43Y-3.78
X3.53Y-3.78
T3
X3.39Y-3.28
X3.49Y-3.28
X3.59Y-3.28
X4.98Y-4.29
X5.08Y-4.29
X5.18Y-4.29
X5.15Y-3.26
X5.25Y-3.26
X3.15Y-3.62
X3.15Y-3.72
T0
M30
