G04 #@! TF.GenerationSoftware,KiCad,Pcbnew,(5.1.0)-1*
G04 #@! TF.CreationDate,2020-10-23T23:32:41+03:00*
G04 #@! TF.ProjectId,kitchen_sink,6b697463-6865-46e5-9f73-696e6b2e6b69,rev?*
G04 #@! TF.SameCoordinates,Original*
G04 #@! TF.FileFunction,Copper,L2,Bot*
G04 #@! TF.FilePolarity,Positive*
%FSLAX46Y46*%
G04 Gerber Fmt 4.6, Leading zero omitted, Abs format (unit mm)*
G04 Created by KiCad (PCBNEW (5.1.0)-1) date 2020-10-23 23:32:41*
%MOMM*%
%LPD*%
G04 APERTURE LIST*
%ADD10C,1.600000*%
%ADD11O,1.600000X1.600000*%
%ADD12R,1.700000X1.700000*%
%ADD13O,1.700000X1.700000*%
%ADD14R,1.800000X1.800000*%
%ADD15C,1.800000*%
%ADD16R,1.500000X1.500000*%
%ADD17C,1.500000*%
%ADD18R,1.600000X1.600000*%
%ADD19C,0.400000*%
%ADD20C,0.254000*%
G04 APERTURE END LIST*
D10*
X122936000Y-85344000D03*
D11*
X115316000Y-85344000D03*
D12*
X80010000Y-94488000D03*
D13*
X80010000Y-91948000D03*
D11*
X86106000Y-89154000D03*
D10*
X86106000Y-86614000D03*
D11*
X91186000Y-89154000D03*
D10*
X91186000Y-86614000D03*
D14*
X97536000Y-98298000D03*
D15*
X97536000Y-100838000D03*
D13*
X133350000Y-82804000D03*
D12*
X130810000Y-82804000D03*
D11*
X94488000Y-85344000D03*
D10*
X102108000Y-85344000D03*
X122936000Y-107188000D03*
D11*
X115316000Y-107188000D03*
X104902000Y-85344000D03*
D10*
X112522000Y-85344000D03*
X112522000Y-107188000D03*
D11*
X104902000Y-107188000D03*
X94488000Y-107188000D03*
D10*
X102108000Y-107188000D03*
X91440000Y-107442000D03*
D11*
X83820000Y-107442000D03*
D16*
X79756000Y-100838000D03*
D17*
X79756000Y-105918000D03*
X79756000Y-103378000D03*
D18*
X143764000Y-88646000D03*
D11*
X115824000Y-103886000D03*
X141224000Y-88646000D03*
X118364000Y-103886000D03*
X138684000Y-88646000D03*
X120904000Y-103886000D03*
X136144000Y-88646000D03*
X123444000Y-103886000D03*
X133604000Y-88646000D03*
X125984000Y-103886000D03*
X131064000Y-88646000D03*
X128524000Y-103886000D03*
X128524000Y-88646000D03*
X131064000Y-103886000D03*
X125984000Y-88646000D03*
X133604000Y-103886000D03*
X123444000Y-88646000D03*
X136144000Y-103886000D03*
X120904000Y-88646000D03*
X138684000Y-103886000D03*
X118364000Y-88646000D03*
X141224000Y-103886000D03*
X115824000Y-88646000D03*
X143764000Y-103886000D03*
D15*
X110744000Y-91694000D03*
D14*
X110744000Y-94234000D03*
D15*
X104140000Y-91694000D03*
D14*
X104140000Y-94234000D03*
X97536000Y-94234000D03*
D15*
X97536000Y-91694000D03*
D14*
X110744000Y-98298000D03*
D15*
X110744000Y-100838000D03*
X104140000Y-100838000D03*
D14*
X104140000Y-98298000D03*
X89662000Y-96012000D03*
D15*
X87122000Y-96012000D03*
D12*
X91186000Y-83312000D03*
D13*
X88646000Y-83312000D03*
X86106000Y-83312000D03*
X131572000Y-108966000D03*
X129032000Y-108966000D03*
D12*
X126492000Y-108966000D03*
D11*
X91440000Y-104394000D03*
D10*
X83820000Y-104394000D03*
X91440000Y-101346000D03*
D11*
X83820000Y-101346000D03*
D19*
X128524000Y-92456000D02*
X128270000Y-92202000D01*
X129794000Y-93726000D02*
X128524000Y-92456000D01*
X132842000Y-93472000D02*
X130048000Y-93472000D01*
X130048000Y-93472000D02*
X129794000Y-93726000D01*
X133096000Y-93726000D02*
X132842000Y-93472000D01*
X134366000Y-92456000D02*
X133096000Y-93726000D01*
X128270000Y-92202000D02*
X128016000Y-92456000D01*
X128016000Y-97536000D02*
X130302000Y-99822000D01*
X130302000Y-99822000D02*
X132588000Y-99822000D01*
X128016000Y-92456000D02*
X128016000Y-97536000D01*
X132588000Y-99822000D02*
X134366000Y-98044000D01*
X134366000Y-98044000D02*
X134366000Y-92456000D01*
X132334000Y-95504000D02*
X133096000Y-95504000D01*
X133096000Y-95504000D02*
X133096000Y-95250000D01*
X133096000Y-95250000D02*
X132842000Y-94996000D01*
X132842000Y-94996000D02*
X132334000Y-95504000D01*
X129540000Y-94996000D02*
X129286000Y-95250000D01*
X129286000Y-95250000D02*
X129286000Y-95758000D01*
X131572000Y-98044000D02*
X131572000Y-97536000D01*
X131572000Y-98044000D02*
X131572000Y-98298000D01*
X131572000Y-98298000D02*
X131318000Y-98552000D01*
X131318000Y-98552000D02*
X130810000Y-98552000D01*
X131572000Y-98298000D02*
X132080000Y-98298000D01*
X132080000Y-98298000D02*
X132588000Y-98298000D01*
X132588000Y-98298000D02*
X132588000Y-98044000D01*
X131572000Y-97028000D02*
X131318000Y-96774000D01*
X131064000Y-96774000D02*
X131318000Y-96774000D01*
X131826000Y-96774000D02*
X131572000Y-97028000D01*
X131826000Y-96774000D02*
X132334000Y-96774000D01*
X129286000Y-95758000D02*
X130302000Y-95758000D01*
X129794000Y-95250000D02*
X129540000Y-95504000D01*
X130302000Y-95758000D02*
X129794000Y-95250000D01*
X129032000Y-106934000D02*
X125984000Y-103886000D01*
X129032000Y-108966000D02*
X129032000Y-106934000D01*
X133350000Y-86360000D02*
X133350000Y-82804000D01*
X131064000Y-88646000D02*
X133350000Y-86360000D01*
X136144000Y-105017370D02*
X136144000Y-103886000D01*
X126492000Y-108966000D02*
X126492000Y-111506000D01*
X126492000Y-111506000D02*
X131326002Y-111506000D01*
X136144000Y-106688002D02*
X136144000Y-105017370D01*
X131326002Y-111506000D02*
X136144000Y-106688002D01*
X93283998Y-111506000D02*
X85521999Y-103744001D01*
X126492000Y-111506000D02*
X93283998Y-111506000D01*
X86106000Y-90285370D02*
X86106000Y-89154000D01*
X85521999Y-90869371D02*
X86106000Y-90285370D01*
X85521999Y-103744001D02*
X85521999Y-90869371D01*
X121388001Y-105386001D02*
X122136001Y-106134001D01*
X122136001Y-106134001D02*
X122936000Y-106934000D01*
X114323999Y-104606001D02*
X115103999Y-105386001D01*
X114323999Y-103165999D02*
X114323999Y-104606001D01*
X120904000Y-96585998D02*
X114323999Y-103165999D01*
X120904000Y-88646000D02*
X120904000Y-96585998D01*
X121134001Y-105386001D02*
X120673999Y-105386001D01*
X122936000Y-107188000D02*
X121134001Y-105386001D01*
X115103999Y-105386001D02*
X120673999Y-105386001D01*
X120673999Y-105386001D02*
X121388001Y-105386001D01*
X112522000Y-105802630D02*
X112522000Y-106934000D01*
X118364000Y-95586002D02*
X112522000Y-101428002D01*
X118364000Y-88646000D02*
X118364000Y-95586002D01*
X112522000Y-107188000D02*
X112522000Y-104902000D01*
X112522000Y-101428002D02*
X112522000Y-104902000D01*
X112522000Y-104902000D02*
X112522000Y-105802630D01*
X102907999Y-106134001D02*
X102108000Y-106934000D01*
X112344001Y-92125999D02*
X115824000Y-88646000D01*
X112344001Y-95694001D02*
X112344001Y-92125999D01*
X111340003Y-96697999D02*
X112344001Y-95694001D01*
X102108000Y-107188000D02*
X102907999Y-106388001D01*
X102907999Y-106388001D02*
X102907999Y-106134001D01*
X105740001Y-103301999D02*
X105740001Y-100069999D01*
X105740001Y-100069999D02*
X109112001Y-96697999D01*
X102907999Y-106134001D02*
X105740001Y-103301999D01*
X109112001Y-96697999D02*
X111340003Y-96697999D01*
D20*
G36*
X138811000Y-85090000D02*
G01*
X138813440Y-85114776D01*
X138820667Y-85138601D01*
X138832403Y-85160557D01*
X138848197Y-85179803D01*
X138867443Y-85195597D01*
X138889399Y-85207333D01*
X138913224Y-85214560D01*
X138938000Y-85217000D01*
X145390000Y-85217000D01*
X145390001Y-108077000D01*
X138938000Y-108077000D01*
X138913224Y-108079440D01*
X138889399Y-108086667D01*
X138867443Y-108098403D01*
X138848197Y-108114197D01*
X138832403Y-108133443D01*
X138820667Y-108155399D01*
X138813440Y-108179224D01*
X138811000Y-108204000D01*
X138811000Y-114656000D01*
X83693000Y-114656000D01*
X83693000Y-108871434D01*
X83749508Y-108877000D01*
X83890492Y-108877000D01*
X84101309Y-108856236D01*
X84371808Y-108774182D01*
X84621101Y-108640932D01*
X84839608Y-108461608D01*
X85018932Y-108243101D01*
X85152182Y-107993808D01*
X85234236Y-107723309D01*
X85261943Y-107442000D01*
X85234236Y-107160691D01*
X85152182Y-106890192D01*
X85018932Y-106640899D01*
X84839608Y-106422392D01*
X84621101Y-106243068D01*
X84371808Y-106109818D01*
X84101309Y-106027764D01*
X83890492Y-106007000D01*
X83749508Y-106007000D01*
X83538691Y-106027764D01*
X83268192Y-106109818D01*
X83018899Y-106243068D01*
X82800392Y-106422392D01*
X82621068Y-106640899D01*
X82487818Y-106890192D01*
X82405764Y-107160691D01*
X82378057Y-107442000D01*
X82405764Y-107723309D01*
X82487818Y-107993808D01*
X82532285Y-108077000D01*
X76860000Y-108077000D01*
X76860000Y-106874993D01*
X78978612Y-106874993D01*
X79044137Y-107113860D01*
X79291116Y-107229760D01*
X79555960Y-107295250D01*
X79828492Y-107307812D01*
X80098238Y-107266965D01*
X80354832Y-107174277D01*
X80467863Y-107113860D01*
X80533388Y-106874993D01*
X79756000Y-106097605D01*
X78978612Y-106874993D01*
X76860000Y-106874993D01*
X76860000Y-105990492D01*
X78366188Y-105990492D01*
X78407035Y-106260238D01*
X78499723Y-106516832D01*
X78560140Y-106629863D01*
X78799007Y-106695388D01*
X79576395Y-105918000D01*
X79935605Y-105918000D01*
X80712993Y-106695388D01*
X80951860Y-106629863D01*
X81067760Y-106382884D01*
X81133250Y-106118040D01*
X81145812Y-105845508D01*
X81104965Y-105575762D01*
X81012277Y-105319168D01*
X80951860Y-105206137D01*
X80712993Y-105140612D01*
X79935605Y-105918000D01*
X79576395Y-105918000D01*
X78799007Y-105140612D01*
X78560140Y-105206137D01*
X78444240Y-105453116D01*
X78378750Y-105717960D01*
X78366188Y-105990492D01*
X76860000Y-105990492D01*
X76860000Y-100088000D01*
X78367928Y-100088000D01*
X78367928Y-101588000D01*
X78380188Y-101712482D01*
X78416498Y-101832180D01*
X78475463Y-101942494D01*
X78554815Y-102039185D01*
X78651506Y-102118537D01*
X78761820Y-102177502D01*
X78881518Y-102213812D01*
X78989483Y-102224445D01*
X78873114Y-102302201D01*
X78680201Y-102495114D01*
X78528629Y-102721957D01*
X78424225Y-102974011D01*
X78371000Y-103241589D01*
X78371000Y-103514411D01*
X78424225Y-103781989D01*
X78528629Y-104034043D01*
X78680201Y-104260886D01*
X78873114Y-104453799D01*
X79099957Y-104605371D01*
X79199279Y-104646511D01*
X79157168Y-104661723D01*
X79044137Y-104722140D01*
X78978612Y-104961007D01*
X79756000Y-105738395D01*
X80533388Y-104961007D01*
X80467863Y-104722140D01*
X80309523Y-104647836D01*
X80412043Y-104605371D01*
X80638886Y-104453799D01*
X80831799Y-104260886D01*
X80983371Y-104034043D01*
X81087775Y-103781989D01*
X81141000Y-103514411D01*
X81141000Y-103241589D01*
X81087775Y-102974011D01*
X80983371Y-102721957D01*
X80831799Y-102495114D01*
X80638886Y-102302201D01*
X80522517Y-102224445D01*
X80630482Y-102213812D01*
X80750180Y-102177502D01*
X80860494Y-102118537D01*
X80957185Y-102039185D01*
X81036537Y-101942494D01*
X81095502Y-101832180D01*
X81131812Y-101712482D01*
X81144072Y-101588000D01*
X81144072Y-101346000D01*
X82378057Y-101346000D01*
X82405764Y-101627309D01*
X82487818Y-101897808D01*
X82621068Y-102147101D01*
X82800392Y-102365608D01*
X83018899Y-102544932D01*
X83268192Y-102678182D01*
X83538691Y-102760236D01*
X83749508Y-102781000D01*
X83890492Y-102781000D01*
X84101309Y-102760236D01*
X84371808Y-102678182D01*
X84621101Y-102544932D01*
X84686999Y-102490851D01*
X84686999Y-103247451D01*
X84499727Y-103122320D01*
X84238574Y-103014147D01*
X83961335Y-102959000D01*
X83678665Y-102959000D01*
X83401426Y-103014147D01*
X83140273Y-103122320D01*
X82905241Y-103279363D01*
X82705363Y-103479241D01*
X82548320Y-103714273D01*
X82440147Y-103975426D01*
X82385000Y-104252665D01*
X82385000Y-104535335D01*
X82440147Y-104812574D01*
X82548320Y-105073727D01*
X82705363Y-105308759D01*
X82905241Y-105508637D01*
X83140273Y-105665680D01*
X83401426Y-105773853D01*
X83678665Y-105829000D01*
X83961335Y-105829000D01*
X84238574Y-105773853D01*
X84499727Y-105665680D01*
X84734759Y-105508637D01*
X84934637Y-105308759D01*
X85091680Y-105073727D01*
X85199853Y-104812574D01*
X85234670Y-104637539D01*
X92664557Y-112067427D01*
X92690707Y-112099291D01*
X92817852Y-112203636D01*
X92962911Y-112281172D01*
X93120309Y-112328918D01*
X93242979Y-112341000D01*
X93242989Y-112341000D01*
X93283997Y-112345039D01*
X93325005Y-112341000D01*
X126450982Y-112341000D01*
X126492000Y-112345040D01*
X126533019Y-112341000D01*
X131284984Y-112341000D01*
X131326002Y-112345040D01*
X131367020Y-112341000D01*
X131367021Y-112341000D01*
X131489691Y-112328918D01*
X131647089Y-112281172D01*
X131792148Y-112203636D01*
X131919293Y-112099291D01*
X131945448Y-112067421D01*
X136705428Y-107307442D01*
X136737291Y-107281293D01*
X136841636Y-107154148D01*
X136919172Y-107009089D01*
X136966918Y-106851691D01*
X136979000Y-106729021D01*
X136979000Y-106729020D01*
X136983040Y-106688003D01*
X136979000Y-106646984D01*
X136979000Y-105057112D01*
X137163608Y-104905608D01*
X137342932Y-104687101D01*
X137414000Y-104554142D01*
X137485068Y-104687101D01*
X137664392Y-104905608D01*
X137882899Y-105084932D01*
X138132192Y-105218182D01*
X138402691Y-105300236D01*
X138613508Y-105321000D01*
X138754492Y-105321000D01*
X138965309Y-105300236D01*
X139235808Y-105218182D01*
X139485101Y-105084932D01*
X139703608Y-104905608D01*
X139882932Y-104687101D01*
X139956579Y-104549318D01*
X140071615Y-104741131D01*
X140260586Y-104949519D01*
X140486580Y-105117037D01*
X140740913Y-105237246D01*
X140874961Y-105277904D01*
X141097000Y-105155915D01*
X141097000Y-104013000D01*
X141077000Y-104013000D01*
X141077000Y-103759000D01*
X141097000Y-103759000D01*
X141097000Y-102616085D01*
X141351000Y-102616085D01*
X141351000Y-103759000D01*
X141371000Y-103759000D01*
X141371000Y-104013000D01*
X141351000Y-104013000D01*
X141351000Y-105155915D01*
X141573039Y-105277904D01*
X141707087Y-105237246D01*
X141961420Y-105117037D01*
X142187414Y-104949519D01*
X142376385Y-104741131D01*
X142491421Y-104549318D01*
X142565068Y-104687101D01*
X142744392Y-104905608D01*
X142962899Y-105084932D01*
X143212192Y-105218182D01*
X143482691Y-105300236D01*
X143693508Y-105321000D01*
X143834492Y-105321000D01*
X144045309Y-105300236D01*
X144315808Y-105218182D01*
X144565101Y-105084932D01*
X144783608Y-104905608D01*
X144962932Y-104687101D01*
X145096182Y-104437808D01*
X145178236Y-104167309D01*
X145205943Y-103886000D01*
X145178236Y-103604691D01*
X145096182Y-103334192D01*
X144962932Y-103084899D01*
X144783608Y-102866392D01*
X144565101Y-102687068D01*
X144315808Y-102553818D01*
X144045309Y-102471764D01*
X143834492Y-102451000D01*
X143693508Y-102451000D01*
X143482691Y-102471764D01*
X143212192Y-102553818D01*
X142962899Y-102687068D01*
X142744392Y-102866392D01*
X142565068Y-103084899D01*
X142491421Y-103222682D01*
X142376385Y-103030869D01*
X142187414Y-102822481D01*
X141961420Y-102654963D01*
X141707087Y-102534754D01*
X141573039Y-102494096D01*
X141351000Y-102616085D01*
X141097000Y-102616085D01*
X140874961Y-102494096D01*
X140740913Y-102534754D01*
X140486580Y-102654963D01*
X140260586Y-102822481D01*
X140071615Y-103030869D01*
X139956579Y-103222682D01*
X139882932Y-103084899D01*
X139703608Y-102866392D01*
X139485101Y-102687068D01*
X139235808Y-102553818D01*
X138965309Y-102471764D01*
X138754492Y-102451000D01*
X138613508Y-102451000D01*
X138402691Y-102471764D01*
X138132192Y-102553818D01*
X137882899Y-102687068D01*
X137664392Y-102866392D01*
X137485068Y-103084899D01*
X137414000Y-103217858D01*
X137342932Y-103084899D01*
X137163608Y-102866392D01*
X136945101Y-102687068D01*
X136695808Y-102553818D01*
X136425309Y-102471764D01*
X136214492Y-102451000D01*
X136073508Y-102451000D01*
X135862691Y-102471764D01*
X135592192Y-102553818D01*
X135342899Y-102687068D01*
X135124392Y-102866392D01*
X134945068Y-103084899D01*
X134874000Y-103217858D01*
X134802932Y-103084899D01*
X134623608Y-102866392D01*
X134405101Y-102687068D01*
X134155808Y-102553818D01*
X133885309Y-102471764D01*
X133674492Y-102451000D01*
X133533508Y-102451000D01*
X133322691Y-102471764D01*
X133052192Y-102553818D01*
X132802899Y-102687068D01*
X132584392Y-102866392D01*
X132405068Y-103084899D01*
X132334000Y-103217858D01*
X132262932Y-103084899D01*
X132083608Y-102866392D01*
X131865101Y-102687068D01*
X131615808Y-102553818D01*
X131345309Y-102471764D01*
X131134492Y-102451000D01*
X130993508Y-102451000D01*
X130782691Y-102471764D01*
X130512192Y-102553818D01*
X130262899Y-102687068D01*
X130044392Y-102866392D01*
X129865068Y-103084899D01*
X129794000Y-103217858D01*
X129722932Y-103084899D01*
X129543608Y-102866392D01*
X129325101Y-102687068D01*
X129075808Y-102553818D01*
X128805309Y-102471764D01*
X128594492Y-102451000D01*
X128453508Y-102451000D01*
X128242691Y-102471764D01*
X127972192Y-102553818D01*
X127722899Y-102687068D01*
X127504392Y-102866392D01*
X127325068Y-103084899D01*
X127254000Y-103217858D01*
X127182932Y-103084899D01*
X127003608Y-102866392D01*
X126785101Y-102687068D01*
X126535808Y-102553818D01*
X126265309Y-102471764D01*
X126054492Y-102451000D01*
X125913508Y-102451000D01*
X125702691Y-102471764D01*
X125432192Y-102553818D01*
X125182899Y-102687068D01*
X124964392Y-102866392D01*
X124785068Y-103084899D01*
X124714000Y-103217858D01*
X124642932Y-103084899D01*
X124463608Y-102866392D01*
X124245101Y-102687068D01*
X123995808Y-102553818D01*
X123725309Y-102471764D01*
X123514492Y-102451000D01*
X123373508Y-102451000D01*
X123162691Y-102471764D01*
X122892192Y-102553818D01*
X122642899Y-102687068D01*
X122424392Y-102866392D01*
X122245068Y-103084899D01*
X122174000Y-103217858D01*
X122102932Y-103084899D01*
X121923608Y-102866392D01*
X121705101Y-102687068D01*
X121455808Y-102553818D01*
X121185309Y-102471764D01*
X120974492Y-102451000D01*
X120833508Y-102451000D01*
X120622691Y-102471764D01*
X120352192Y-102553818D01*
X120102899Y-102687068D01*
X119884392Y-102866392D01*
X119705068Y-103084899D01*
X119634000Y-103217858D01*
X119562932Y-103084899D01*
X119383608Y-102866392D01*
X119165101Y-102687068D01*
X118915808Y-102553818D01*
X118645309Y-102471764D01*
X118434492Y-102451000D01*
X118293508Y-102451000D01*
X118082691Y-102471764D01*
X117812192Y-102553818D01*
X117562899Y-102687068D01*
X117344392Y-102866392D01*
X117165068Y-103084899D01*
X117094000Y-103217858D01*
X117022932Y-103084899D01*
X116843608Y-102866392D01*
X116625101Y-102687068D01*
X116375808Y-102553818D01*
X116177272Y-102493593D01*
X121465432Y-97205435D01*
X121497291Y-97179289D01*
X121566395Y-97095086D01*
X121601636Y-97052144D01*
X121679172Y-96907085D01*
X121720092Y-96772188D01*
X121726918Y-96749687D01*
X121739000Y-96627017D01*
X121739000Y-96627016D01*
X121743040Y-96585998D01*
X121739000Y-96544980D01*
X121739000Y-92456000D01*
X127176960Y-92456000D01*
X127181000Y-92497019D01*
X127181001Y-97494972D01*
X127176960Y-97536000D01*
X127193082Y-97699688D01*
X127240828Y-97857086D01*
X127304878Y-97976914D01*
X127318365Y-98002146D01*
X127422710Y-98129291D01*
X127454574Y-98155441D01*
X129682559Y-100383427D01*
X129708709Y-100415291D01*
X129835854Y-100519636D01*
X129980913Y-100597172D01*
X130138311Y-100644918D01*
X130301999Y-100661040D01*
X130343018Y-100657000D01*
X132546982Y-100657000D01*
X132588000Y-100661040D01*
X132629018Y-100657000D01*
X132629019Y-100657000D01*
X132751689Y-100644918D01*
X132909087Y-100597172D01*
X133054146Y-100519636D01*
X133181291Y-100415291D01*
X133207446Y-100383421D01*
X134927433Y-98663436D01*
X134959291Y-98637291D01*
X135029288Y-98552000D01*
X135063636Y-98510146D01*
X135141172Y-98365087D01*
X135161522Y-98298001D01*
X135188918Y-98207689D01*
X135201000Y-98085019D01*
X135201000Y-98085018D01*
X135205040Y-98044000D01*
X135201000Y-98002981D01*
X135201000Y-92497017D01*
X135205040Y-92456001D01*
X135201000Y-92414981D01*
X135188918Y-92292311D01*
X135141172Y-92134913D01*
X135063636Y-91989854D01*
X134959291Y-91862709D01*
X134832146Y-91758364D01*
X134687087Y-91680828D01*
X134529689Y-91633082D01*
X134366000Y-91616960D01*
X134365999Y-91616960D01*
X134349877Y-91618548D01*
X134202312Y-91633082D01*
X134092659Y-91666345D01*
X134044913Y-91680828D01*
X133899854Y-91758364D01*
X133804570Y-91836562D01*
X133772710Y-91862709D01*
X133746564Y-91894568D01*
X132993273Y-92647859D01*
X132883019Y-92637000D01*
X132883018Y-92637000D01*
X132842000Y-92632960D01*
X132800982Y-92637000D01*
X130089015Y-92637000D01*
X130047999Y-92632960D01*
X130006983Y-92637000D01*
X130006981Y-92637000D01*
X129896727Y-92647859D01*
X129085429Y-91836562D01*
X128889437Y-91640570D01*
X128863290Y-91608710D01*
X128736145Y-91504364D01*
X128591086Y-91426828D01*
X128433688Y-91379082D01*
X128270000Y-91362960D01*
X128269999Y-91362960D01*
X128253877Y-91364548D01*
X128106312Y-91379082D01*
X127948914Y-91426828D01*
X127803855Y-91504364D01*
X127676710Y-91608710D01*
X127650563Y-91640570D01*
X127454579Y-91836554D01*
X127422709Y-91862709D01*
X127340969Y-91962311D01*
X127318364Y-91989855D01*
X127240828Y-92134914D01*
X127193082Y-92292312D01*
X127176960Y-92456000D01*
X121739000Y-92456000D01*
X121739000Y-89817112D01*
X121923608Y-89665608D01*
X122102932Y-89447101D01*
X122174000Y-89314142D01*
X122245068Y-89447101D01*
X122424392Y-89665608D01*
X122642899Y-89844932D01*
X122892192Y-89978182D01*
X123162691Y-90060236D01*
X123373508Y-90081000D01*
X123514492Y-90081000D01*
X123725309Y-90060236D01*
X123995808Y-89978182D01*
X124245101Y-89844932D01*
X124463608Y-89665608D01*
X124642932Y-89447101D01*
X124714000Y-89314142D01*
X124785068Y-89447101D01*
X124964392Y-89665608D01*
X125182899Y-89844932D01*
X125432192Y-89978182D01*
X125702691Y-90060236D01*
X125913508Y-90081000D01*
X126054492Y-90081000D01*
X126265309Y-90060236D01*
X126535808Y-89978182D01*
X126785101Y-89844932D01*
X127003608Y-89665608D01*
X127182932Y-89447101D01*
X127254000Y-89314142D01*
X127325068Y-89447101D01*
X127504392Y-89665608D01*
X127722899Y-89844932D01*
X127972192Y-89978182D01*
X128242691Y-90060236D01*
X128453508Y-90081000D01*
X128594492Y-90081000D01*
X128805309Y-90060236D01*
X129075808Y-89978182D01*
X129325101Y-89844932D01*
X129543608Y-89665608D01*
X129722932Y-89447101D01*
X129794000Y-89314142D01*
X129865068Y-89447101D01*
X130044392Y-89665608D01*
X130262899Y-89844932D01*
X130512192Y-89978182D01*
X130782691Y-90060236D01*
X130993508Y-90081000D01*
X131134492Y-90081000D01*
X131345309Y-90060236D01*
X131615808Y-89978182D01*
X131865101Y-89844932D01*
X132083608Y-89665608D01*
X132262932Y-89447101D01*
X132334000Y-89314142D01*
X132405068Y-89447101D01*
X132584392Y-89665608D01*
X132802899Y-89844932D01*
X133052192Y-89978182D01*
X133322691Y-90060236D01*
X133533508Y-90081000D01*
X133674492Y-90081000D01*
X133885309Y-90060236D01*
X134155808Y-89978182D01*
X134405101Y-89844932D01*
X134623608Y-89665608D01*
X134802932Y-89447101D01*
X134874000Y-89314142D01*
X134945068Y-89447101D01*
X135124392Y-89665608D01*
X135342899Y-89844932D01*
X135592192Y-89978182D01*
X135862691Y-90060236D01*
X136073508Y-90081000D01*
X136214492Y-90081000D01*
X136425309Y-90060236D01*
X136695808Y-89978182D01*
X136945101Y-89844932D01*
X137163608Y-89665608D01*
X137342932Y-89447101D01*
X137414000Y-89314142D01*
X137485068Y-89447101D01*
X137664392Y-89665608D01*
X137882899Y-89844932D01*
X138132192Y-89978182D01*
X138402691Y-90060236D01*
X138613508Y-90081000D01*
X138754492Y-90081000D01*
X138965309Y-90060236D01*
X139235808Y-89978182D01*
X139485101Y-89844932D01*
X139703608Y-89665608D01*
X139882932Y-89447101D01*
X139954000Y-89314142D01*
X140025068Y-89447101D01*
X140204392Y-89665608D01*
X140422899Y-89844932D01*
X140672192Y-89978182D01*
X140942691Y-90060236D01*
X141153508Y-90081000D01*
X141294492Y-90081000D01*
X141505309Y-90060236D01*
X141775808Y-89978182D01*
X142025101Y-89844932D01*
X142243608Y-89665608D01*
X142336419Y-89552518D01*
X142338188Y-89570482D01*
X142374498Y-89690180D01*
X142433463Y-89800494D01*
X142512815Y-89897185D01*
X142609506Y-89976537D01*
X142719820Y-90035502D01*
X142839518Y-90071812D01*
X142964000Y-90084072D01*
X144564000Y-90084072D01*
X144688482Y-90071812D01*
X144808180Y-90035502D01*
X144918494Y-89976537D01*
X145015185Y-89897185D01*
X145094537Y-89800494D01*
X145153502Y-89690180D01*
X145189812Y-89570482D01*
X145202072Y-89446000D01*
X145202072Y-87846000D01*
X145189812Y-87721518D01*
X145153502Y-87601820D01*
X145094537Y-87491506D01*
X145015185Y-87394815D01*
X144918494Y-87315463D01*
X144808180Y-87256498D01*
X144688482Y-87220188D01*
X144564000Y-87207928D01*
X142964000Y-87207928D01*
X142839518Y-87220188D01*
X142719820Y-87256498D01*
X142609506Y-87315463D01*
X142512815Y-87394815D01*
X142433463Y-87491506D01*
X142374498Y-87601820D01*
X142338188Y-87721518D01*
X142336419Y-87739482D01*
X142243608Y-87626392D01*
X142025101Y-87447068D01*
X141775808Y-87313818D01*
X141505309Y-87231764D01*
X141294492Y-87211000D01*
X141153508Y-87211000D01*
X140942691Y-87231764D01*
X140672192Y-87313818D01*
X140422899Y-87447068D01*
X140204392Y-87626392D01*
X140025068Y-87844899D01*
X139954000Y-87977858D01*
X139882932Y-87844899D01*
X139703608Y-87626392D01*
X139485101Y-87447068D01*
X139235808Y-87313818D01*
X138965309Y-87231764D01*
X138754492Y-87211000D01*
X138613508Y-87211000D01*
X138402691Y-87231764D01*
X138132192Y-87313818D01*
X137882899Y-87447068D01*
X137664392Y-87626392D01*
X137485068Y-87844899D01*
X137414000Y-87977858D01*
X137342932Y-87844899D01*
X137163608Y-87626392D01*
X136945101Y-87447068D01*
X136695808Y-87313818D01*
X136425309Y-87231764D01*
X136214492Y-87211000D01*
X136073508Y-87211000D01*
X135862691Y-87231764D01*
X135592192Y-87313818D01*
X135342899Y-87447068D01*
X135124392Y-87626392D01*
X134945068Y-87844899D01*
X134874000Y-87977858D01*
X134802932Y-87844899D01*
X134623608Y-87626392D01*
X134405101Y-87447068D01*
X134155808Y-87313818D01*
X133885309Y-87231764D01*
X133679386Y-87211482D01*
X133911428Y-86979440D01*
X133943291Y-86953291D01*
X134047636Y-86826146D01*
X134125172Y-86681087D01*
X134172918Y-86523689D01*
X134185000Y-86401019D01*
X134185000Y-86401018D01*
X134189040Y-86360001D01*
X134185000Y-86318982D01*
X134185000Y-84039793D01*
X134405134Y-83859134D01*
X134590706Y-83633014D01*
X134728599Y-83375034D01*
X134813513Y-83095111D01*
X134842185Y-82804000D01*
X134813513Y-82512889D01*
X134728599Y-82232966D01*
X134590706Y-81974986D01*
X134405134Y-81748866D01*
X134179014Y-81563294D01*
X133921034Y-81425401D01*
X133641111Y-81340487D01*
X133422950Y-81319000D01*
X133277050Y-81319000D01*
X133058889Y-81340487D01*
X132778966Y-81425401D01*
X132520986Y-81563294D01*
X132294866Y-81748866D01*
X132270393Y-81778687D01*
X132249502Y-81709820D01*
X132190537Y-81599506D01*
X132111185Y-81502815D01*
X132014494Y-81423463D01*
X131904180Y-81364498D01*
X131784482Y-81328188D01*
X131660000Y-81315928D01*
X131095750Y-81319000D01*
X130937000Y-81477750D01*
X130937000Y-82677000D01*
X130957000Y-82677000D01*
X130957000Y-82931000D01*
X130937000Y-82931000D01*
X130937000Y-84130250D01*
X131095750Y-84289000D01*
X131660000Y-84292072D01*
X131784482Y-84279812D01*
X131904180Y-84243502D01*
X132014494Y-84184537D01*
X132111185Y-84105185D01*
X132190537Y-84008494D01*
X132249502Y-83898180D01*
X132270393Y-83829313D01*
X132294866Y-83859134D01*
X132515001Y-84039794D01*
X132515000Y-86014132D01*
X131301667Y-87227466D01*
X131134492Y-87211000D01*
X130993508Y-87211000D01*
X130782691Y-87231764D01*
X130512192Y-87313818D01*
X130262899Y-87447068D01*
X130044392Y-87626392D01*
X129865068Y-87844899D01*
X129794000Y-87977858D01*
X129722932Y-87844899D01*
X129543608Y-87626392D01*
X129325101Y-87447068D01*
X129075808Y-87313818D01*
X128805309Y-87231764D01*
X128594492Y-87211000D01*
X128453508Y-87211000D01*
X128242691Y-87231764D01*
X127972192Y-87313818D01*
X127722899Y-87447068D01*
X127504392Y-87626392D01*
X127325068Y-87844899D01*
X127254000Y-87977858D01*
X127182932Y-87844899D01*
X127003608Y-87626392D01*
X126785101Y-87447068D01*
X126535808Y-87313818D01*
X126265309Y-87231764D01*
X126054492Y-87211000D01*
X125913508Y-87211000D01*
X125702691Y-87231764D01*
X125432192Y-87313818D01*
X125182899Y-87447068D01*
X124964392Y-87626392D01*
X124785068Y-87844899D01*
X124714000Y-87977858D01*
X124642932Y-87844899D01*
X124463608Y-87626392D01*
X124245101Y-87447068D01*
X123995808Y-87313818D01*
X123725309Y-87231764D01*
X123514492Y-87211000D01*
X123373508Y-87211000D01*
X123162691Y-87231764D01*
X122892192Y-87313818D01*
X122642899Y-87447068D01*
X122424392Y-87626392D01*
X122245068Y-87844899D01*
X122174000Y-87977858D01*
X122102932Y-87844899D01*
X121923608Y-87626392D01*
X121705101Y-87447068D01*
X121455808Y-87313818D01*
X121185309Y-87231764D01*
X120974492Y-87211000D01*
X120833508Y-87211000D01*
X120622691Y-87231764D01*
X120352192Y-87313818D01*
X120102899Y-87447068D01*
X119884392Y-87626392D01*
X119705068Y-87844899D01*
X119634000Y-87977858D01*
X119562932Y-87844899D01*
X119383608Y-87626392D01*
X119165101Y-87447068D01*
X118915808Y-87313818D01*
X118645309Y-87231764D01*
X118434492Y-87211000D01*
X118293508Y-87211000D01*
X118082691Y-87231764D01*
X117812192Y-87313818D01*
X117562899Y-87447068D01*
X117344392Y-87626392D01*
X117165068Y-87844899D01*
X117094000Y-87977858D01*
X117022932Y-87844899D01*
X116843608Y-87626392D01*
X116625101Y-87447068D01*
X116375808Y-87313818D01*
X116105309Y-87231764D01*
X115894492Y-87211000D01*
X115753508Y-87211000D01*
X115542691Y-87231764D01*
X115272192Y-87313818D01*
X115022899Y-87447068D01*
X114804392Y-87626392D01*
X114625068Y-87844899D01*
X114491818Y-88094192D01*
X114409764Y-88364691D01*
X114382057Y-88646000D01*
X114405465Y-88883666D01*
X112168129Y-91121004D01*
X112104299Y-90966905D01*
X111936312Y-90715495D01*
X111722505Y-90501688D01*
X111471095Y-90333701D01*
X111191743Y-90217989D01*
X110895184Y-90159000D01*
X110592816Y-90159000D01*
X110296257Y-90217989D01*
X110016905Y-90333701D01*
X109765495Y-90501688D01*
X109551688Y-90715495D01*
X109383701Y-90966905D01*
X109267989Y-91246257D01*
X109209000Y-91542816D01*
X109209000Y-91845184D01*
X109267989Y-92141743D01*
X109383701Y-92421095D01*
X109551688Y-92672505D01*
X109618127Y-92738944D01*
X109599820Y-92744498D01*
X109489506Y-92803463D01*
X109392815Y-92882815D01*
X109313463Y-92979506D01*
X109254498Y-93089820D01*
X109218188Y-93209518D01*
X109205928Y-93334000D01*
X109209000Y-93948250D01*
X109367750Y-94107000D01*
X110617000Y-94107000D01*
X110617000Y-94087000D01*
X110871000Y-94087000D01*
X110871000Y-94107000D01*
X110891000Y-94107000D01*
X110891000Y-94361000D01*
X110871000Y-94361000D01*
X110871000Y-95610250D01*
X111029750Y-95769000D01*
X111087844Y-95769291D01*
X110994135Y-95862999D01*
X109153019Y-95862999D01*
X109112000Y-95858959D01*
X109070982Y-95862999D01*
X108948312Y-95875081D01*
X108790914Y-95922827D01*
X108645855Y-96000363D01*
X108518710Y-96104708D01*
X108492562Y-96136570D01*
X105676843Y-98952290D01*
X105675000Y-98583750D01*
X105516250Y-98425000D01*
X104267000Y-98425000D01*
X104267000Y-98445000D01*
X104013000Y-98445000D01*
X104013000Y-98425000D01*
X102763750Y-98425000D01*
X102605000Y-98583750D01*
X102601928Y-99198000D01*
X102614188Y-99322482D01*
X102650498Y-99442180D01*
X102709463Y-99552494D01*
X102788815Y-99649185D01*
X102885506Y-99728537D01*
X102995820Y-99787502D01*
X103014127Y-99793056D01*
X102947688Y-99859495D01*
X102779701Y-100110905D01*
X102663989Y-100390257D01*
X102605000Y-100686816D01*
X102605000Y-100989184D01*
X102663989Y-101285743D01*
X102779701Y-101565095D01*
X102947688Y-101816505D01*
X103161495Y-102030312D01*
X103412905Y-102198299D01*
X103692257Y-102314011D01*
X103988816Y-102373000D01*
X104291184Y-102373000D01*
X104587743Y-102314011D01*
X104867095Y-102198299D01*
X104905001Y-102172971D01*
X104905001Y-102956130D01*
X102346577Y-105514556D01*
X102314708Y-105540710D01*
X102288560Y-105572572D01*
X102108132Y-105753000D01*
X101966665Y-105753000D01*
X101689426Y-105808147D01*
X101428273Y-105916320D01*
X101193241Y-106073363D01*
X100993363Y-106273241D01*
X100836320Y-106508273D01*
X100728147Y-106769426D01*
X100673000Y-107046665D01*
X100673000Y-107329335D01*
X100728147Y-107606574D01*
X100836320Y-107867727D01*
X100993363Y-108102759D01*
X101193241Y-108302637D01*
X101428273Y-108459680D01*
X101689426Y-108567853D01*
X101966665Y-108623000D01*
X102249335Y-108623000D01*
X102526574Y-108567853D01*
X102787727Y-108459680D01*
X103022759Y-108302637D01*
X103222637Y-108102759D01*
X103379680Y-107867727D01*
X103487853Y-107606574D01*
X103504308Y-107523849D01*
X103569818Y-107739808D01*
X103703068Y-107989101D01*
X103882392Y-108207608D01*
X104100899Y-108386932D01*
X104350192Y-108520182D01*
X104620691Y-108602236D01*
X104831508Y-108623000D01*
X104972492Y-108623000D01*
X105183309Y-108602236D01*
X105453808Y-108520182D01*
X105703101Y-108386932D01*
X105921608Y-108207608D01*
X106100932Y-107989101D01*
X106234182Y-107739808D01*
X106316236Y-107469309D01*
X106343943Y-107188000D01*
X106316236Y-106906691D01*
X106234182Y-106636192D01*
X106100932Y-106386899D01*
X105921608Y-106168392D01*
X105703101Y-105989068D01*
X105453808Y-105855818D01*
X105183309Y-105773764D01*
X104972492Y-105753000D01*
X104831508Y-105753000D01*
X104620691Y-105773764D01*
X104374390Y-105848478D01*
X106301434Y-103921435D01*
X106333292Y-103895290D01*
X106374580Y-103844981D01*
X106437637Y-103768145D01*
X106515173Y-103623086D01*
X106532819Y-103564914D01*
X106562919Y-103465688D01*
X106575001Y-103343018D01*
X106575001Y-103343017D01*
X106579041Y-103301999D01*
X106575001Y-103260981D01*
X106575001Y-100415866D01*
X109207854Y-97783014D01*
X109209000Y-98012250D01*
X109367750Y-98171000D01*
X110617000Y-98171000D01*
X110617000Y-98151000D01*
X110871000Y-98151000D01*
X110871000Y-98171000D01*
X112120250Y-98171000D01*
X112279000Y-98012250D01*
X112282072Y-97398000D01*
X112269812Y-97273518D01*
X112233502Y-97153820D01*
X112174825Y-97044045D01*
X112905434Y-96313437D01*
X112937292Y-96287292D01*
X112989115Y-96224146D01*
X113041637Y-96160147D01*
X113119173Y-96015088D01*
X113157615Y-95888362D01*
X113166919Y-95857690D01*
X113179001Y-95735020D01*
X113179001Y-95735019D01*
X113183041Y-95694001D01*
X113179001Y-95652983D01*
X113179001Y-92471866D01*
X115586334Y-90064535D01*
X115753508Y-90081000D01*
X115894492Y-90081000D01*
X116105309Y-90060236D01*
X116375808Y-89978182D01*
X116625101Y-89844932D01*
X116843608Y-89665608D01*
X117022932Y-89447101D01*
X117094000Y-89314142D01*
X117165068Y-89447101D01*
X117344392Y-89665608D01*
X117529000Y-89817112D01*
X117529001Y-95240132D01*
X112246369Y-100522766D01*
X112220011Y-100390257D01*
X112104299Y-100110905D01*
X111936312Y-99859495D01*
X111869873Y-99793056D01*
X111888180Y-99787502D01*
X111998494Y-99728537D01*
X112095185Y-99649185D01*
X112174537Y-99552494D01*
X112233502Y-99442180D01*
X112269812Y-99322482D01*
X112282072Y-99198000D01*
X112279000Y-98583750D01*
X112120250Y-98425000D01*
X110871000Y-98425000D01*
X110871000Y-98445000D01*
X110617000Y-98445000D01*
X110617000Y-98425000D01*
X109367750Y-98425000D01*
X109209000Y-98583750D01*
X109205928Y-99198000D01*
X109218188Y-99322482D01*
X109254498Y-99442180D01*
X109313463Y-99552494D01*
X109392815Y-99649185D01*
X109489506Y-99728537D01*
X109599820Y-99787502D01*
X109618127Y-99793056D01*
X109551688Y-99859495D01*
X109383701Y-100110905D01*
X109267989Y-100390257D01*
X109209000Y-100686816D01*
X109209000Y-100989184D01*
X109267989Y-101285743D01*
X109383701Y-101565095D01*
X109551688Y-101816505D01*
X109765495Y-102030312D01*
X110016905Y-102198299D01*
X110296257Y-102314011D01*
X110592816Y-102373000D01*
X110895184Y-102373000D01*
X111191743Y-102314011D01*
X111471095Y-102198299D01*
X111687000Y-102054036D01*
X111687001Y-104860972D01*
X111687000Y-104860982D01*
X111687000Y-106020070D01*
X111607241Y-106073363D01*
X111407363Y-106273241D01*
X111250320Y-106508273D01*
X111142147Y-106769426D01*
X111087000Y-107046665D01*
X111087000Y-107329335D01*
X111142147Y-107606574D01*
X111250320Y-107867727D01*
X111407363Y-108102759D01*
X111607241Y-108302637D01*
X111842273Y-108459680D01*
X112103426Y-108567853D01*
X112380665Y-108623000D01*
X112663335Y-108623000D01*
X112940574Y-108567853D01*
X113201727Y-108459680D01*
X113436759Y-108302637D01*
X113636637Y-108102759D01*
X113793680Y-107867727D01*
X113901853Y-107606574D01*
X113918308Y-107523849D01*
X113983818Y-107739808D01*
X114117068Y-107989101D01*
X114296392Y-108207608D01*
X114514899Y-108386932D01*
X114764192Y-108520182D01*
X115034691Y-108602236D01*
X115245508Y-108623000D01*
X115386492Y-108623000D01*
X115597309Y-108602236D01*
X115867808Y-108520182D01*
X116117101Y-108386932D01*
X116335608Y-108207608D01*
X116514932Y-107989101D01*
X116648182Y-107739808D01*
X116730236Y-107469309D01*
X116757943Y-107188000D01*
X116730236Y-106906691D01*
X116648182Y-106636192D01*
X116514932Y-106386899D01*
X116378783Y-106221001D01*
X120788134Y-106221001D01*
X121519715Y-106952582D01*
X121501000Y-107046665D01*
X121501000Y-107329335D01*
X121556147Y-107606574D01*
X121664320Y-107867727D01*
X121821363Y-108102759D01*
X122021241Y-108302637D01*
X122256273Y-108459680D01*
X122517426Y-108567853D01*
X122794665Y-108623000D01*
X123077335Y-108623000D01*
X123354574Y-108567853D01*
X123615727Y-108459680D01*
X123850759Y-108302637D01*
X124050637Y-108102759D01*
X124207680Y-107867727D01*
X124315853Y-107606574D01*
X124371000Y-107329335D01*
X124371000Y-107046665D01*
X124315853Y-106769426D01*
X124207680Y-106508273D01*
X124050637Y-106273241D01*
X123850759Y-106073363D01*
X123615727Y-105916320D01*
X123354574Y-105808147D01*
X123077335Y-105753000D01*
X122935867Y-105753000D01*
X122755449Y-105572582D01*
X122755440Y-105572571D01*
X122007446Y-104824579D01*
X121998776Y-104814015D01*
X122102932Y-104687101D01*
X122174000Y-104554142D01*
X122245068Y-104687101D01*
X122424392Y-104905608D01*
X122642899Y-105084932D01*
X122892192Y-105218182D01*
X123162691Y-105300236D01*
X123373508Y-105321000D01*
X123514492Y-105321000D01*
X123725309Y-105300236D01*
X123995808Y-105218182D01*
X124245101Y-105084932D01*
X124463608Y-104905608D01*
X124642932Y-104687101D01*
X124714000Y-104554142D01*
X124785068Y-104687101D01*
X124964392Y-104905608D01*
X125182899Y-105084932D01*
X125432192Y-105218182D01*
X125702691Y-105300236D01*
X125913508Y-105321000D01*
X126054492Y-105321000D01*
X126221667Y-105304534D01*
X128197001Y-107279870D01*
X128197001Y-107730206D01*
X127976866Y-107910866D01*
X127952393Y-107940687D01*
X127931502Y-107871820D01*
X127872537Y-107761506D01*
X127793185Y-107664815D01*
X127696494Y-107585463D01*
X127586180Y-107526498D01*
X127466482Y-107490188D01*
X127342000Y-107477928D01*
X125642000Y-107477928D01*
X125517518Y-107490188D01*
X125397820Y-107526498D01*
X125287506Y-107585463D01*
X125190815Y-107664815D01*
X125111463Y-107761506D01*
X125052498Y-107871820D01*
X125016188Y-107991518D01*
X125003928Y-108116000D01*
X125003928Y-109816000D01*
X125016188Y-109940482D01*
X125052498Y-110060180D01*
X125111463Y-110170494D01*
X125190815Y-110267185D01*
X125287506Y-110346537D01*
X125397820Y-110405502D01*
X125517518Y-110441812D01*
X125642000Y-110454072D01*
X125657001Y-110454072D01*
X125657001Y-110671000D01*
X93629866Y-110671000D01*
X91797144Y-108838279D01*
X92056292Y-108745603D01*
X92181514Y-108678671D01*
X92253097Y-108434702D01*
X91440000Y-107621605D01*
X91425858Y-107635748D01*
X91246253Y-107456143D01*
X91260395Y-107442000D01*
X91619605Y-107442000D01*
X92432702Y-108255097D01*
X92676671Y-108183514D01*
X92797571Y-107928004D01*
X92866300Y-107653816D01*
X92880217Y-107371488D01*
X92853031Y-107188000D01*
X93046057Y-107188000D01*
X93073764Y-107469309D01*
X93155818Y-107739808D01*
X93289068Y-107989101D01*
X93468392Y-108207608D01*
X93686899Y-108386932D01*
X93936192Y-108520182D01*
X94206691Y-108602236D01*
X94417508Y-108623000D01*
X94558492Y-108623000D01*
X94769309Y-108602236D01*
X95039808Y-108520182D01*
X95289101Y-108386932D01*
X95507608Y-108207608D01*
X95686932Y-107989101D01*
X95820182Y-107739808D01*
X95902236Y-107469309D01*
X95929943Y-107188000D01*
X95902236Y-106906691D01*
X95820182Y-106636192D01*
X95686932Y-106386899D01*
X95507608Y-106168392D01*
X95289101Y-105989068D01*
X95039808Y-105855818D01*
X94769309Y-105773764D01*
X94558492Y-105753000D01*
X94417508Y-105753000D01*
X94206691Y-105773764D01*
X93936192Y-105855818D01*
X93686899Y-105989068D01*
X93468392Y-106168392D01*
X93289068Y-106386899D01*
X93155818Y-106636192D01*
X93073764Y-106906691D01*
X93046057Y-107188000D01*
X92853031Y-107188000D01*
X92838787Y-107091870D01*
X92743603Y-106825708D01*
X92676671Y-106700486D01*
X92432702Y-106628903D01*
X91619605Y-107442000D01*
X91260395Y-107442000D01*
X90447298Y-106628903D01*
X90203329Y-106700486D01*
X90082429Y-106955996D01*
X90048844Y-107089979D01*
X89408163Y-106449298D01*
X90626903Y-106449298D01*
X91440000Y-107262395D01*
X92253097Y-106449298D01*
X92181514Y-106205329D01*
X91926004Y-106084429D01*
X91651816Y-106015700D01*
X91369488Y-106001783D01*
X91089870Y-106043213D01*
X90823708Y-106138397D01*
X90698486Y-106205329D01*
X90626903Y-106449298D01*
X89408163Y-106449298D01*
X87352865Y-104394000D01*
X89998057Y-104394000D01*
X90025764Y-104675309D01*
X90107818Y-104945808D01*
X90241068Y-105195101D01*
X90420392Y-105413608D01*
X90638899Y-105592932D01*
X90888192Y-105726182D01*
X91158691Y-105808236D01*
X91369508Y-105829000D01*
X91510492Y-105829000D01*
X91721309Y-105808236D01*
X91991808Y-105726182D01*
X92241101Y-105592932D01*
X92459608Y-105413608D01*
X92638932Y-105195101D01*
X92772182Y-104945808D01*
X92854236Y-104675309D01*
X92881943Y-104394000D01*
X92854236Y-104112691D01*
X92772182Y-103842192D01*
X92638932Y-103592899D01*
X92459608Y-103374392D01*
X92241101Y-103195068D01*
X91991808Y-103061818D01*
X91721309Y-102979764D01*
X91510492Y-102959000D01*
X91369508Y-102959000D01*
X91158691Y-102979764D01*
X90888192Y-103061818D01*
X90638899Y-103195068D01*
X90420392Y-103374392D01*
X90241068Y-103592899D01*
X90107818Y-103842192D01*
X90025764Y-104112691D01*
X89998057Y-104394000D01*
X87352865Y-104394000D01*
X86356999Y-103398134D01*
X86356999Y-101204665D01*
X90005000Y-101204665D01*
X90005000Y-101487335D01*
X90060147Y-101764574D01*
X90168320Y-102025727D01*
X90325363Y-102260759D01*
X90525241Y-102460637D01*
X90760273Y-102617680D01*
X91021426Y-102725853D01*
X91298665Y-102781000D01*
X91581335Y-102781000D01*
X91858574Y-102725853D01*
X92119727Y-102617680D01*
X92354759Y-102460637D01*
X92554637Y-102260759D01*
X92711680Y-102025727D01*
X92819853Y-101764574D01*
X92875000Y-101487335D01*
X92875000Y-101204665D01*
X92819853Y-100927426D01*
X92711680Y-100666273D01*
X92554637Y-100431241D01*
X92354759Y-100231363D01*
X92119727Y-100074320D01*
X91858574Y-99966147D01*
X91581335Y-99911000D01*
X91298665Y-99911000D01*
X91021426Y-99966147D01*
X90760273Y-100074320D01*
X90525241Y-100231363D01*
X90325363Y-100431241D01*
X90168320Y-100666273D01*
X90060147Y-100927426D01*
X90005000Y-101204665D01*
X86356999Y-101204665D01*
X86356999Y-99198000D01*
X95997928Y-99198000D01*
X96010188Y-99322482D01*
X96046498Y-99442180D01*
X96105463Y-99552494D01*
X96184815Y-99649185D01*
X96281506Y-99728537D01*
X96391820Y-99787502D01*
X96410127Y-99793056D01*
X96343688Y-99859495D01*
X96175701Y-100110905D01*
X96059989Y-100390257D01*
X96001000Y-100686816D01*
X96001000Y-100989184D01*
X96059989Y-101285743D01*
X96175701Y-101565095D01*
X96343688Y-101816505D01*
X96557495Y-102030312D01*
X96808905Y-102198299D01*
X97088257Y-102314011D01*
X97384816Y-102373000D01*
X97687184Y-102373000D01*
X97983743Y-102314011D01*
X98263095Y-102198299D01*
X98514505Y-102030312D01*
X98728312Y-101816505D01*
X98896299Y-101565095D01*
X99012011Y-101285743D01*
X99071000Y-100989184D01*
X99071000Y-100686816D01*
X99012011Y-100390257D01*
X98896299Y-100110905D01*
X98728312Y-99859495D01*
X98661873Y-99793056D01*
X98680180Y-99787502D01*
X98790494Y-99728537D01*
X98887185Y-99649185D01*
X98966537Y-99552494D01*
X99025502Y-99442180D01*
X99061812Y-99322482D01*
X99074072Y-99198000D01*
X99071000Y-98583750D01*
X98912250Y-98425000D01*
X97663000Y-98425000D01*
X97663000Y-98445000D01*
X97409000Y-98445000D01*
X97409000Y-98425000D01*
X96159750Y-98425000D01*
X96001000Y-98583750D01*
X95997928Y-99198000D01*
X86356999Y-99198000D01*
X86356999Y-97346971D01*
X86394905Y-97372299D01*
X86674257Y-97488011D01*
X86970816Y-97547000D01*
X87273184Y-97547000D01*
X87569743Y-97488011D01*
X87849095Y-97372299D01*
X88100505Y-97204312D01*
X88166944Y-97137873D01*
X88172498Y-97156180D01*
X88231463Y-97266494D01*
X88310815Y-97363185D01*
X88407506Y-97442537D01*
X88517820Y-97501502D01*
X88637518Y-97537812D01*
X88762000Y-97550072D01*
X89376250Y-97547000D01*
X89535000Y-97388250D01*
X89535000Y-96139000D01*
X89789000Y-96139000D01*
X89789000Y-97388250D01*
X89947750Y-97547000D01*
X90562000Y-97550072D01*
X90686482Y-97537812D01*
X90806180Y-97501502D01*
X90916494Y-97442537D01*
X90970762Y-97398000D01*
X95997928Y-97398000D01*
X96001000Y-98012250D01*
X96159750Y-98171000D01*
X97409000Y-98171000D01*
X97409000Y-96921750D01*
X97663000Y-96921750D01*
X97663000Y-98171000D01*
X98912250Y-98171000D01*
X99071000Y-98012250D01*
X99074072Y-97398000D01*
X102601928Y-97398000D01*
X102605000Y-98012250D01*
X102763750Y-98171000D01*
X104013000Y-98171000D01*
X104013000Y-96921750D01*
X104267000Y-96921750D01*
X104267000Y-98171000D01*
X105516250Y-98171000D01*
X105675000Y-98012250D01*
X105678072Y-97398000D01*
X105665812Y-97273518D01*
X105629502Y-97153820D01*
X105570537Y-97043506D01*
X105491185Y-96946815D01*
X105394494Y-96867463D01*
X105284180Y-96808498D01*
X105164482Y-96772188D01*
X105040000Y-96759928D01*
X104425750Y-96763000D01*
X104267000Y-96921750D01*
X104013000Y-96921750D01*
X103854250Y-96763000D01*
X103240000Y-96759928D01*
X103115518Y-96772188D01*
X102995820Y-96808498D01*
X102885506Y-96867463D01*
X102788815Y-96946815D01*
X102709463Y-97043506D01*
X102650498Y-97153820D01*
X102614188Y-97273518D01*
X102601928Y-97398000D01*
X99074072Y-97398000D01*
X99061812Y-97273518D01*
X99025502Y-97153820D01*
X98966537Y-97043506D01*
X98887185Y-96946815D01*
X98790494Y-96867463D01*
X98680180Y-96808498D01*
X98560482Y-96772188D01*
X98436000Y-96759928D01*
X97821750Y-96763000D01*
X97663000Y-96921750D01*
X97409000Y-96921750D01*
X97250250Y-96763000D01*
X96636000Y-96759928D01*
X96511518Y-96772188D01*
X96391820Y-96808498D01*
X96281506Y-96867463D01*
X96184815Y-96946815D01*
X96105463Y-97043506D01*
X96046498Y-97153820D01*
X96010188Y-97273518D01*
X95997928Y-97398000D01*
X90970762Y-97398000D01*
X91013185Y-97363185D01*
X91092537Y-97266494D01*
X91151502Y-97156180D01*
X91187812Y-97036482D01*
X91200072Y-96912000D01*
X91197000Y-96297750D01*
X91038250Y-96139000D01*
X89789000Y-96139000D01*
X89535000Y-96139000D01*
X89515000Y-96139000D01*
X89515000Y-95885000D01*
X89535000Y-95885000D01*
X89535000Y-94635750D01*
X89789000Y-94635750D01*
X89789000Y-95885000D01*
X91038250Y-95885000D01*
X91197000Y-95726250D01*
X91199961Y-95134000D01*
X95997928Y-95134000D01*
X96010188Y-95258482D01*
X96046498Y-95378180D01*
X96105463Y-95488494D01*
X96184815Y-95585185D01*
X96281506Y-95664537D01*
X96391820Y-95723502D01*
X96511518Y-95759812D01*
X96636000Y-95772072D01*
X97250250Y-95769000D01*
X97409000Y-95610250D01*
X97409000Y-94361000D01*
X97663000Y-94361000D01*
X97663000Y-95610250D01*
X97821750Y-95769000D01*
X98436000Y-95772072D01*
X98560482Y-95759812D01*
X98680180Y-95723502D01*
X98790494Y-95664537D01*
X98887185Y-95585185D01*
X98966537Y-95488494D01*
X99025502Y-95378180D01*
X99061812Y-95258482D01*
X99074072Y-95134000D01*
X102601928Y-95134000D01*
X102614188Y-95258482D01*
X102650498Y-95378180D01*
X102709463Y-95488494D01*
X102788815Y-95585185D01*
X102885506Y-95664537D01*
X102995820Y-95723502D01*
X103115518Y-95759812D01*
X103240000Y-95772072D01*
X103854250Y-95769000D01*
X104013000Y-95610250D01*
X104013000Y-94361000D01*
X104267000Y-94361000D01*
X104267000Y-95610250D01*
X104425750Y-95769000D01*
X105040000Y-95772072D01*
X105164482Y-95759812D01*
X105284180Y-95723502D01*
X105394494Y-95664537D01*
X105491185Y-95585185D01*
X105570537Y-95488494D01*
X105629502Y-95378180D01*
X105665812Y-95258482D01*
X105678072Y-95134000D01*
X109205928Y-95134000D01*
X109218188Y-95258482D01*
X109254498Y-95378180D01*
X109313463Y-95488494D01*
X109392815Y-95585185D01*
X109489506Y-95664537D01*
X109599820Y-95723502D01*
X109719518Y-95759812D01*
X109844000Y-95772072D01*
X110458250Y-95769000D01*
X110617000Y-95610250D01*
X110617000Y-94361000D01*
X109367750Y-94361000D01*
X109209000Y-94519750D01*
X109205928Y-95134000D01*
X105678072Y-95134000D01*
X105675000Y-94519750D01*
X105516250Y-94361000D01*
X104267000Y-94361000D01*
X104013000Y-94361000D01*
X102763750Y-94361000D01*
X102605000Y-94519750D01*
X102601928Y-95134000D01*
X99074072Y-95134000D01*
X99071000Y-94519750D01*
X98912250Y-94361000D01*
X97663000Y-94361000D01*
X97409000Y-94361000D01*
X96159750Y-94361000D01*
X96001000Y-94519750D01*
X95997928Y-95134000D01*
X91199961Y-95134000D01*
X91200072Y-95112000D01*
X91187812Y-94987518D01*
X91151502Y-94867820D01*
X91092537Y-94757506D01*
X91013185Y-94660815D01*
X90916494Y-94581463D01*
X90806180Y-94522498D01*
X90686482Y-94486188D01*
X90562000Y-94473928D01*
X89947750Y-94477000D01*
X89789000Y-94635750D01*
X89535000Y-94635750D01*
X89376250Y-94477000D01*
X88762000Y-94473928D01*
X88637518Y-94486188D01*
X88517820Y-94522498D01*
X88407506Y-94581463D01*
X88310815Y-94660815D01*
X88231463Y-94757506D01*
X88172498Y-94867820D01*
X88166944Y-94886127D01*
X88100505Y-94819688D01*
X87849095Y-94651701D01*
X87569743Y-94535989D01*
X87273184Y-94477000D01*
X86970816Y-94477000D01*
X86674257Y-94535989D01*
X86394905Y-94651701D01*
X86356999Y-94677029D01*
X86356999Y-93334000D01*
X95997928Y-93334000D01*
X96001000Y-93948250D01*
X96159750Y-94107000D01*
X97409000Y-94107000D01*
X97409000Y-94087000D01*
X97663000Y-94087000D01*
X97663000Y-94107000D01*
X98912250Y-94107000D01*
X99071000Y-93948250D01*
X99074072Y-93334000D01*
X102601928Y-93334000D01*
X102605000Y-93948250D01*
X102763750Y-94107000D01*
X104013000Y-94107000D01*
X104013000Y-94087000D01*
X104267000Y-94087000D01*
X104267000Y-94107000D01*
X105516250Y-94107000D01*
X105675000Y-93948250D01*
X105678072Y-93334000D01*
X105665812Y-93209518D01*
X105629502Y-93089820D01*
X105570537Y-92979506D01*
X105491185Y-92882815D01*
X105394494Y-92803463D01*
X105284180Y-92744498D01*
X105265873Y-92738944D01*
X105332312Y-92672505D01*
X105500299Y-92421095D01*
X105616011Y-92141743D01*
X105675000Y-91845184D01*
X105675000Y-91542816D01*
X105616011Y-91246257D01*
X105500299Y-90966905D01*
X105332312Y-90715495D01*
X105118505Y-90501688D01*
X104867095Y-90333701D01*
X104587743Y-90217989D01*
X104291184Y-90159000D01*
X103988816Y-90159000D01*
X103692257Y-90217989D01*
X103412905Y-90333701D01*
X103161495Y-90501688D01*
X102947688Y-90715495D01*
X102779701Y-90966905D01*
X102663989Y-91246257D01*
X102605000Y-91542816D01*
X102605000Y-91845184D01*
X102663989Y-92141743D01*
X102779701Y-92421095D01*
X102947688Y-92672505D01*
X103014127Y-92738944D01*
X102995820Y-92744498D01*
X102885506Y-92803463D01*
X102788815Y-92882815D01*
X102709463Y-92979506D01*
X102650498Y-93089820D01*
X102614188Y-93209518D01*
X102601928Y-93334000D01*
X99074072Y-93334000D01*
X99061812Y-93209518D01*
X99025502Y-93089820D01*
X98966537Y-92979506D01*
X98887185Y-92882815D01*
X98790494Y-92803463D01*
X98680180Y-92744498D01*
X98661873Y-92738944D01*
X98728312Y-92672505D01*
X98896299Y-92421095D01*
X99012011Y-92141743D01*
X99071000Y-91845184D01*
X99071000Y-91542816D01*
X99012011Y-91246257D01*
X98896299Y-90966905D01*
X98728312Y-90715495D01*
X98514505Y-90501688D01*
X98263095Y-90333701D01*
X97983743Y-90217989D01*
X97687184Y-90159000D01*
X97384816Y-90159000D01*
X97088257Y-90217989D01*
X96808905Y-90333701D01*
X96557495Y-90501688D01*
X96343688Y-90715495D01*
X96175701Y-90966905D01*
X96059989Y-91246257D01*
X96001000Y-91542816D01*
X96001000Y-91845184D01*
X96059989Y-92141743D01*
X96175701Y-92421095D01*
X96343688Y-92672505D01*
X96410127Y-92738944D01*
X96391820Y-92744498D01*
X96281506Y-92803463D01*
X96184815Y-92882815D01*
X96105463Y-92979506D01*
X96046498Y-93089820D01*
X96010188Y-93209518D01*
X95997928Y-93334000D01*
X86356999Y-93334000D01*
X86356999Y-91215238D01*
X86667427Y-90904811D01*
X86699291Y-90878661D01*
X86803636Y-90751516D01*
X86881172Y-90606457D01*
X86928918Y-90449059D01*
X86941000Y-90326389D01*
X86941000Y-90326388D01*
X86941137Y-90324999D01*
X87125608Y-90173608D01*
X87304932Y-89955101D01*
X87438182Y-89705808D01*
X87520236Y-89435309D01*
X87547943Y-89154000D01*
X89744057Y-89154000D01*
X89771764Y-89435309D01*
X89853818Y-89705808D01*
X89987068Y-89955101D01*
X90166392Y-90173608D01*
X90384899Y-90352932D01*
X90634192Y-90486182D01*
X90904691Y-90568236D01*
X91115508Y-90589000D01*
X91256492Y-90589000D01*
X91467309Y-90568236D01*
X91737808Y-90486182D01*
X91987101Y-90352932D01*
X92205608Y-90173608D01*
X92384932Y-89955101D01*
X92518182Y-89705808D01*
X92600236Y-89435309D01*
X92627943Y-89154000D01*
X92600236Y-88872691D01*
X92518182Y-88602192D01*
X92384932Y-88352899D01*
X92205608Y-88134392D01*
X91987101Y-87955068D01*
X91860971Y-87887650D01*
X91865727Y-87885680D01*
X92100759Y-87728637D01*
X92300637Y-87528759D01*
X92457680Y-87293727D01*
X92565853Y-87032574D01*
X92621000Y-86755335D01*
X92621000Y-86472665D01*
X92565853Y-86195426D01*
X92457680Y-85934273D01*
X92300637Y-85699241D01*
X92100759Y-85499363D01*
X91868242Y-85344000D01*
X93046057Y-85344000D01*
X93073764Y-85625309D01*
X93155818Y-85895808D01*
X93289068Y-86145101D01*
X93468392Y-86363608D01*
X93686899Y-86542932D01*
X93936192Y-86676182D01*
X94206691Y-86758236D01*
X94417508Y-86779000D01*
X94558492Y-86779000D01*
X94769309Y-86758236D01*
X95039808Y-86676182D01*
X95289101Y-86542932D01*
X95507608Y-86363608D01*
X95686932Y-86145101D01*
X95820182Y-85895808D01*
X95902236Y-85625309D01*
X95929943Y-85344000D01*
X95916023Y-85202665D01*
X100673000Y-85202665D01*
X100673000Y-85485335D01*
X100728147Y-85762574D01*
X100836320Y-86023727D01*
X100993363Y-86258759D01*
X101193241Y-86458637D01*
X101428273Y-86615680D01*
X101689426Y-86723853D01*
X101966665Y-86779000D01*
X102249335Y-86779000D01*
X102526574Y-86723853D01*
X102787727Y-86615680D01*
X103022759Y-86458637D01*
X103222637Y-86258759D01*
X103379680Y-86023727D01*
X103487853Y-85762574D01*
X103504308Y-85679849D01*
X103569818Y-85895808D01*
X103703068Y-86145101D01*
X103882392Y-86363608D01*
X104100899Y-86542932D01*
X104350192Y-86676182D01*
X104620691Y-86758236D01*
X104831508Y-86779000D01*
X104972492Y-86779000D01*
X105183309Y-86758236D01*
X105453808Y-86676182D01*
X105703101Y-86542932D01*
X105921608Y-86363608D01*
X106100932Y-86145101D01*
X106234182Y-85895808D01*
X106316236Y-85625309D01*
X106343943Y-85344000D01*
X106330023Y-85202665D01*
X111087000Y-85202665D01*
X111087000Y-85485335D01*
X111142147Y-85762574D01*
X111250320Y-86023727D01*
X111407363Y-86258759D01*
X111607241Y-86458637D01*
X111842273Y-86615680D01*
X112103426Y-86723853D01*
X112380665Y-86779000D01*
X112663335Y-86779000D01*
X112940574Y-86723853D01*
X113201727Y-86615680D01*
X113436759Y-86458637D01*
X113636637Y-86258759D01*
X113793680Y-86023727D01*
X113901853Y-85762574D01*
X113918308Y-85679849D01*
X113983818Y-85895808D01*
X114117068Y-86145101D01*
X114296392Y-86363608D01*
X114514899Y-86542932D01*
X114764192Y-86676182D01*
X115034691Y-86758236D01*
X115245508Y-86779000D01*
X115386492Y-86779000D01*
X115597309Y-86758236D01*
X115867808Y-86676182D01*
X116117101Y-86542932D01*
X116335608Y-86363608D01*
X116514932Y-86145101D01*
X116648182Y-85895808D01*
X116730236Y-85625309D01*
X116757943Y-85344000D01*
X116744023Y-85202665D01*
X121501000Y-85202665D01*
X121501000Y-85485335D01*
X121556147Y-85762574D01*
X121664320Y-86023727D01*
X121821363Y-86258759D01*
X122021241Y-86458637D01*
X122256273Y-86615680D01*
X122517426Y-86723853D01*
X122794665Y-86779000D01*
X123077335Y-86779000D01*
X123354574Y-86723853D01*
X123615727Y-86615680D01*
X123850759Y-86458637D01*
X124050637Y-86258759D01*
X124207680Y-86023727D01*
X124315853Y-85762574D01*
X124371000Y-85485335D01*
X124371000Y-85202665D01*
X124315853Y-84925426D01*
X124207680Y-84664273D01*
X124050637Y-84429241D01*
X123850759Y-84229363D01*
X123615727Y-84072320D01*
X123354574Y-83964147D01*
X123077335Y-83909000D01*
X122794665Y-83909000D01*
X122517426Y-83964147D01*
X122256273Y-84072320D01*
X122021241Y-84229363D01*
X121821363Y-84429241D01*
X121664320Y-84664273D01*
X121556147Y-84925426D01*
X121501000Y-85202665D01*
X116744023Y-85202665D01*
X116730236Y-85062691D01*
X116648182Y-84792192D01*
X116514932Y-84542899D01*
X116335608Y-84324392D01*
X116117101Y-84145068D01*
X115867808Y-84011818D01*
X115597309Y-83929764D01*
X115386492Y-83909000D01*
X115245508Y-83909000D01*
X115034691Y-83929764D01*
X114764192Y-84011818D01*
X114514899Y-84145068D01*
X114296392Y-84324392D01*
X114117068Y-84542899D01*
X113983818Y-84792192D01*
X113918308Y-85008151D01*
X113901853Y-84925426D01*
X113793680Y-84664273D01*
X113636637Y-84429241D01*
X113436759Y-84229363D01*
X113201727Y-84072320D01*
X112940574Y-83964147D01*
X112663335Y-83909000D01*
X112380665Y-83909000D01*
X112103426Y-83964147D01*
X111842273Y-84072320D01*
X111607241Y-84229363D01*
X111407363Y-84429241D01*
X111250320Y-84664273D01*
X111142147Y-84925426D01*
X111087000Y-85202665D01*
X106330023Y-85202665D01*
X106316236Y-85062691D01*
X106234182Y-84792192D01*
X106100932Y-84542899D01*
X105921608Y-84324392D01*
X105703101Y-84145068D01*
X105453808Y-84011818D01*
X105183309Y-83929764D01*
X104972492Y-83909000D01*
X104831508Y-83909000D01*
X104620691Y-83929764D01*
X104350192Y-84011818D01*
X104100899Y-84145068D01*
X103882392Y-84324392D01*
X103703068Y-84542899D01*
X103569818Y-84792192D01*
X103504308Y-85008151D01*
X103487853Y-84925426D01*
X103379680Y-84664273D01*
X103222637Y-84429241D01*
X103022759Y-84229363D01*
X102787727Y-84072320D01*
X102526574Y-83964147D01*
X102249335Y-83909000D01*
X101966665Y-83909000D01*
X101689426Y-83964147D01*
X101428273Y-84072320D01*
X101193241Y-84229363D01*
X100993363Y-84429241D01*
X100836320Y-84664273D01*
X100728147Y-84925426D01*
X100673000Y-85202665D01*
X95916023Y-85202665D01*
X95902236Y-85062691D01*
X95820182Y-84792192D01*
X95686932Y-84542899D01*
X95507608Y-84324392D01*
X95289101Y-84145068D01*
X95039808Y-84011818D01*
X94769309Y-83929764D01*
X94558492Y-83909000D01*
X94417508Y-83909000D01*
X94206691Y-83929764D01*
X93936192Y-84011818D01*
X93686899Y-84145068D01*
X93468392Y-84324392D01*
X93289068Y-84542899D01*
X93155818Y-84792192D01*
X93073764Y-85062691D01*
X93046057Y-85344000D01*
X91868242Y-85344000D01*
X91865727Y-85342320D01*
X91604574Y-85234147D01*
X91327335Y-85179000D01*
X91044665Y-85179000D01*
X90767426Y-85234147D01*
X90506273Y-85342320D01*
X90271241Y-85499363D01*
X90071363Y-85699241D01*
X89914320Y-85934273D01*
X89806147Y-86195426D01*
X89751000Y-86472665D01*
X89751000Y-86755335D01*
X89806147Y-87032574D01*
X89914320Y-87293727D01*
X90071363Y-87528759D01*
X90271241Y-87728637D01*
X90506273Y-87885680D01*
X90511029Y-87887650D01*
X90384899Y-87955068D01*
X90166392Y-88134392D01*
X89987068Y-88352899D01*
X89853818Y-88602192D01*
X89771764Y-88872691D01*
X89744057Y-89154000D01*
X87547943Y-89154000D01*
X87520236Y-88872691D01*
X87438182Y-88602192D01*
X87304932Y-88352899D01*
X87125608Y-88134392D01*
X86907101Y-87955068D01*
X86780971Y-87887650D01*
X86785727Y-87885680D01*
X87020759Y-87728637D01*
X87220637Y-87528759D01*
X87377680Y-87293727D01*
X87485853Y-87032574D01*
X87541000Y-86755335D01*
X87541000Y-86472665D01*
X87485853Y-86195426D01*
X87377680Y-85934273D01*
X87220637Y-85699241D01*
X87020759Y-85499363D01*
X86785727Y-85342320D01*
X86524574Y-85234147D01*
X86247335Y-85179000D01*
X85964665Y-85179000D01*
X85687426Y-85234147D01*
X85426273Y-85342320D01*
X85191241Y-85499363D01*
X84991363Y-85699241D01*
X84834320Y-85934273D01*
X84726147Y-86195426D01*
X84671000Y-86472665D01*
X84671000Y-86755335D01*
X84726147Y-87032574D01*
X84834320Y-87293727D01*
X84991363Y-87528759D01*
X85191241Y-87728637D01*
X85426273Y-87885680D01*
X85431029Y-87887650D01*
X85304899Y-87955068D01*
X85086392Y-88134392D01*
X84907068Y-88352899D01*
X84773818Y-88602192D01*
X84691764Y-88872691D01*
X84664057Y-89154000D01*
X84691764Y-89435309D01*
X84773818Y-89705808D01*
X84907068Y-89955101D01*
X85064081Y-90146422D01*
X84960573Y-90249930D01*
X84928709Y-90276080D01*
X84887422Y-90326389D01*
X84824363Y-90403226D01*
X84746827Y-90548285D01*
X84699081Y-90705683D01*
X84682959Y-90869371D01*
X84687000Y-90910400D01*
X84686999Y-100201149D01*
X84621101Y-100147068D01*
X84371808Y-100013818D01*
X84101309Y-99931764D01*
X83890492Y-99911000D01*
X83749508Y-99911000D01*
X83538691Y-99931764D01*
X83268192Y-100013818D01*
X83018899Y-100147068D01*
X82800392Y-100326392D01*
X82621068Y-100544899D01*
X82487818Y-100794192D01*
X82405764Y-101064691D01*
X82378057Y-101346000D01*
X81144072Y-101346000D01*
X81144072Y-100088000D01*
X81131812Y-99963518D01*
X81095502Y-99843820D01*
X81036537Y-99733506D01*
X80957185Y-99636815D01*
X80860494Y-99557463D01*
X80750180Y-99498498D01*
X80630482Y-99462188D01*
X80506000Y-99449928D01*
X79006000Y-99449928D01*
X78881518Y-99462188D01*
X78761820Y-99498498D01*
X78651506Y-99557463D01*
X78554815Y-99636815D01*
X78475463Y-99733506D01*
X78416498Y-99843820D01*
X78380188Y-99963518D01*
X78367928Y-100088000D01*
X76860000Y-100088000D01*
X76860000Y-93638000D01*
X78521928Y-93638000D01*
X78521928Y-95338000D01*
X78534188Y-95462482D01*
X78570498Y-95582180D01*
X78629463Y-95692494D01*
X78708815Y-95789185D01*
X78805506Y-95868537D01*
X78915820Y-95927502D01*
X79035518Y-95963812D01*
X79160000Y-95976072D01*
X80860000Y-95976072D01*
X80984482Y-95963812D01*
X81104180Y-95927502D01*
X81214494Y-95868537D01*
X81311185Y-95789185D01*
X81390537Y-95692494D01*
X81449502Y-95582180D01*
X81485812Y-95462482D01*
X81498072Y-95338000D01*
X81498072Y-93638000D01*
X81485812Y-93513518D01*
X81449502Y-93393820D01*
X81390537Y-93283506D01*
X81311185Y-93186815D01*
X81214494Y-93107463D01*
X81104180Y-93048498D01*
X81028374Y-93025502D01*
X81205178Y-92829355D01*
X81354157Y-92579252D01*
X81451481Y-92304891D01*
X81330814Y-92075000D01*
X80137000Y-92075000D01*
X80137000Y-92095000D01*
X79883000Y-92095000D01*
X79883000Y-92075000D01*
X78689186Y-92075000D01*
X78568519Y-92304891D01*
X78665843Y-92579252D01*
X78814822Y-92829355D01*
X78991626Y-93025502D01*
X78915820Y-93048498D01*
X78805506Y-93107463D01*
X78708815Y-93186815D01*
X78629463Y-93283506D01*
X78570498Y-93393820D01*
X78534188Y-93513518D01*
X78521928Y-93638000D01*
X76860000Y-93638000D01*
X76860000Y-91591109D01*
X78568519Y-91591109D01*
X78689186Y-91821000D01*
X79883000Y-91821000D01*
X79883000Y-90627845D01*
X80137000Y-90627845D01*
X80137000Y-91821000D01*
X81330814Y-91821000D01*
X81451481Y-91591109D01*
X81354157Y-91316748D01*
X81205178Y-91066645D01*
X81010269Y-90850412D01*
X80776920Y-90676359D01*
X80514099Y-90551175D01*
X80366890Y-90506524D01*
X80137000Y-90627845D01*
X79883000Y-90627845D01*
X79653110Y-90506524D01*
X79505901Y-90551175D01*
X79243080Y-90676359D01*
X79009731Y-90850412D01*
X78814822Y-91066645D01*
X78665843Y-91316748D01*
X78568519Y-91591109D01*
X76860000Y-91591109D01*
X76860000Y-85725000D01*
X83312000Y-85725000D01*
X83336776Y-85722560D01*
X83360601Y-85715333D01*
X83382557Y-85703597D01*
X83401803Y-85687803D01*
X83417597Y-85668557D01*
X83429333Y-85646601D01*
X83436560Y-85622776D01*
X83439000Y-85598000D01*
X83439000Y-83312000D01*
X84613815Y-83312000D01*
X84642487Y-83603111D01*
X84727401Y-83883034D01*
X84865294Y-84141014D01*
X85050866Y-84367134D01*
X85276986Y-84552706D01*
X85534966Y-84690599D01*
X85814889Y-84775513D01*
X86033050Y-84797000D01*
X86178950Y-84797000D01*
X86397111Y-84775513D01*
X86677034Y-84690599D01*
X86935014Y-84552706D01*
X87161134Y-84367134D01*
X87346706Y-84141014D01*
X87381201Y-84076477D01*
X87450822Y-84193355D01*
X87645731Y-84409588D01*
X87879080Y-84583641D01*
X88141901Y-84708825D01*
X88289110Y-84753476D01*
X88519000Y-84632155D01*
X88519000Y-83439000D01*
X88499000Y-83439000D01*
X88499000Y-83185000D01*
X88519000Y-83185000D01*
X88519000Y-81991845D01*
X88773000Y-81991845D01*
X88773000Y-83185000D01*
X88793000Y-83185000D01*
X88793000Y-83439000D01*
X88773000Y-83439000D01*
X88773000Y-84632155D01*
X89002890Y-84753476D01*
X89150099Y-84708825D01*
X89412920Y-84583641D01*
X89646269Y-84409588D01*
X89722034Y-84325534D01*
X89746498Y-84406180D01*
X89805463Y-84516494D01*
X89884815Y-84613185D01*
X89981506Y-84692537D01*
X90091820Y-84751502D01*
X90211518Y-84787812D01*
X90336000Y-84800072D01*
X92036000Y-84800072D01*
X92160482Y-84787812D01*
X92280180Y-84751502D01*
X92390494Y-84692537D01*
X92487185Y-84613185D01*
X92566537Y-84516494D01*
X92625502Y-84406180D01*
X92661812Y-84286482D01*
X92674072Y-84162000D01*
X92674072Y-83654000D01*
X129321928Y-83654000D01*
X129334188Y-83778482D01*
X129370498Y-83898180D01*
X129429463Y-84008494D01*
X129508815Y-84105185D01*
X129605506Y-84184537D01*
X129715820Y-84243502D01*
X129835518Y-84279812D01*
X129960000Y-84292072D01*
X130524250Y-84289000D01*
X130683000Y-84130250D01*
X130683000Y-82931000D01*
X129483750Y-82931000D01*
X129325000Y-83089750D01*
X129321928Y-83654000D01*
X92674072Y-83654000D01*
X92674072Y-82462000D01*
X92661812Y-82337518D01*
X92625502Y-82217820D01*
X92566537Y-82107506D01*
X92487185Y-82010815D01*
X92417956Y-81954000D01*
X129321928Y-81954000D01*
X129325000Y-82518250D01*
X129483750Y-82677000D01*
X130683000Y-82677000D01*
X130683000Y-81477750D01*
X130524250Y-81319000D01*
X129960000Y-81315928D01*
X129835518Y-81328188D01*
X129715820Y-81364498D01*
X129605506Y-81423463D01*
X129508815Y-81502815D01*
X129429463Y-81599506D01*
X129370498Y-81709820D01*
X129334188Y-81829518D01*
X129321928Y-81954000D01*
X92417956Y-81954000D01*
X92390494Y-81931463D01*
X92280180Y-81872498D01*
X92160482Y-81836188D01*
X92036000Y-81823928D01*
X90336000Y-81823928D01*
X90211518Y-81836188D01*
X90091820Y-81872498D01*
X89981506Y-81931463D01*
X89884815Y-82010815D01*
X89805463Y-82107506D01*
X89746498Y-82217820D01*
X89722034Y-82298466D01*
X89646269Y-82214412D01*
X89412920Y-82040359D01*
X89150099Y-81915175D01*
X89002890Y-81870524D01*
X88773000Y-81991845D01*
X88519000Y-81991845D01*
X88289110Y-81870524D01*
X88141901Y-81915175D01*
X87879080Y-82040359D01*
X87645731Y-82214412D01*
X87450822Y-82430645D01*
X87381201Y-82547523D01*
X87346706Y-82482986D01*
X87161134Y-82256866D01*
X86935014Y-82071294D01*
X86677034Y-81933401D01*
X86397111Y-81848487D01*
X86178950Y-81827000D01*
X86033050Y-81827000D01*
X85814889Y-81848487D01*
X85534966Y-81933401D01*
X85276986Y-82071294D01*
X85050866Y-82256866D01*
X84865294Y-82482986D01*
X84727401Y-82740966D01*
X84642487Y-83020889D01*
X84613815Y-83312000D01*
X83439000Y-83312000D01*
X83439000Y-78892000D01*
X138811000Y-78892000D01*
X138811000Y-85090000D01*
X138811000Y-85090000D01*
G37*
X138811000Y-85090000D02*
X138813440Y-85114776D01*
X138820667Y-85138601D01*
X138832403Y-85160557D01*
X138848197Y-85179803D01*
X138867443Y-85195597D01*
X138889399Y-85207333D01*
X138913224Y-85214560D01*
X138938000Y-85217000D01*
X145390000Y-85217000D01*
X145390001Y-108077000D01*
X138938000Y-108077000D01*
X138913224Y-108079440D01*
X138889399Y-108086667D01*
X138867443Y-108098403D01*
X138848197Y-108114197D01*
X138832403Y-108133443D01*
X138820667Y-108155399D01*
X138813440Y-108179224D01*
X138811000Y-108204000D01*
X138811000Y-114656000D01*
X83693000Y-114656000D01*
X83693000Y-108871434D01*
X83749508Y-108877000D01*
X83890492Y-108877000D01*
X84101309Y-108856236D01*
X84371808Y-108774182D01*
X84621101Y-108640932D01*
X84839608Y-108461608D01*
X85018932Y-108243101D01*
X85152182Y-107993808D01*
X85234236Y-107723309D01*
X85261943Y-107442000D01*
X85234236Y-107160691D01*
X85152182Y-106890192D01*
X85018932Y-106640899D01*
X84839608Y-106422392D01*
X84621101Y-106243068D01*
X84371808Y-106109818D01*
X84101309Y-106027764D01*
X83890492Y-106007000D01*
X83749508Y-106007000D01*
X83538691Y-106027764D01*
X83268192Y-106109818D01*
X83018899Y-106243068D01*
X82800392Y-106422392D01*
X82621068Y-106640899D01*
X82487818Y-106890192D01*
X82405764Y-107160691D01*
X82378057Y-107442000D01*
X82405764Y-107723309D01*
X82487818Y-107993808D01*
X82532285Y-108077000D01*
X76860000Y-108077000D01*
X76860000Y-106874993D01*
X78978612Y-106874993D01*
X79044137Y-107113860D01*
X79291116Y-107229760D01*
X79555960Y-107295250D01*
X79828492Y-107307812D01*
X80098238Y-107266965D01*
X80354832Y-107174277D01*
X80467863Y-107113860D01*
X80533388Y-106874993D01*
X79756000Y-106097605D01*
X78978612Y-106874993D01*
X76860000Y-106874993D01*
X76860000Y-105990492D01*
X78366188Y-105990492D01*
X78407035Y-106260238D01*
X78499723Y-106516832D01*
X78560140Y-106629863D01*
X78799007Y-106695388D01*
X79576395Y-105918000D01*
X79935605Y-105918000D01*
X80712993Y-106695388D01*
X80951860Y-106629863D01*
X81067760Y-106382884D01*
X81133250Y-106118040D01*
X81145812Y-105845508D01*
X81104965Y-105575762D01*
X81012277Y-105319168D01*
X80951860Y-105206137D01*
X80712993Y-105140612D01*
X79935605Y-105918000D01*
X79576395Y-105918000D01*
X78799007Y-105140612D01*
X78560140Y-105206137D01*
X78444240Y-105453116D01*
X78378750Y-105717960D01*
X78366188Y-105990492D01*
X76860000Y-105990492D01*
X76860000Y-100088000D01*
X78367928Y-100088000D01*
X78367928Y-101588000D01*
X78380188Y-101712482D01*
X78416498Y-101832180D01*
X78475463Y-101942494D01*
X78554815Y-102039185D01*
X78651506Y-102118537D01*
X78761820Y-102177502D01*
X78881518Y-102213812D01*
X78989483Y-102224445D01*
X78873114Y-102302201D01*
X78680201Y-102495114D01*
X78528629Y-102721957D01*
X78424225Y-102974011D01*
X78371000Y-103241589D01*
X78371000Y-103514411D01*
X78424225Y-103781989D01*
X78528629Y-104034043D01*
X78680201Y-104260886D01*
X78873114Y-104453799D01*
X79099957Y-104605371D01*
X79199279Y-104646511D01*
X79157168Y-104661723D01*
X79044137Y-104722140D01*
X78978612Y-104961007D01*
X79756000Y-105738395D01*
X80533388Y-104961007D01*
X80467863Y-104722140D01*
X80309523Y-104647836D01*
X80412043Y-104605371D01*
X80638886Y-104453799D01*
X80831799Y-104260886D01*
X80983371Y-104034043D01*
X81087775Y-103781989D01*
X81141000Y-103514411D01*
X81141000Y-103241589D01*
X81087775Y-102974011D01*
X80983371Y-102721957D01*
X80831799Y-102495114D01*
X80638886Y-102302201D01*
X80522517Y-102224445D01*
X80630482Y-102213812D01*
X80750180Y-102177502D01*
X80860494Y-102118537D01*
X80957185Y-102039185D01*
X81036537Y-101942494D01*
X81095502Y-101832180D01*
X81131812Y-101712482D01*
X81144072Y-101588000D01*
X81144072Y-101346000D01*
X82378057Y-101346000D01*
X82405764Y-101627309D01*
X82487818Y-101897808D01*
X82621068Y-102147101D01*
X82800392Y-102365608D01*
X83018899Y-102544932D01*
X83268192Y-102678182D01*
X83538691Y-102760236D01*
X83749508Y-102781000D01*
X83890492Y-102781000D01*
X84101309Y-102760236D01*
X84371808Y-102678182D01*
X84621101Y-102544932D01*
X84686999Y-102490851D01*
X84686999Y-103247451D01*
X84499727Y-103122320D01*
X84238574Y-103014147D01*
X83961335Y-102959000D01*
X83678665Y-102959000D01*
X83401426Y-103014147D01*
X83140273Y-103122320D01*
X82905241Y-103279363D01*
X82705363Y-103479241D01*
X82548320Y-103714273D01*
X82440147Y-103975426D01*
X82385000Y-104252665D01*
X82385000Y-104535335D01*
X82440147Y-104812574D01*
X82548320Y-105073727D01*
X82705363Y-105308759D01*
X82905241Y-105508637D01*
X83140273Y-105665680D01*
X83401426Y-105773853D01*
X83678665Y-105829000D01*
X83961335Y-105829000D01*
X84238574Y-105773853D01*
X84499727Y-105665680D01*
X84734759Y-105508637D01*
X84934637Y-105308759D01*
X85091680Y-105073727D01*
X85199853Y-104812574D01*
X85234670Y-104637539D01*
X92664557Y-112067427D01*
X92690707Y-112099291D01*
X92817852Y-112203636D01*
X92962911Y-112281172D01*
X93120309Y-112328918D01*
X93242979Y-112341000D01*
X93242989Y-112341000D01*
X93283997Y-112345039D01*
X93325005Y-112341000D01*
X126450982Y-112341000D01*
X126492000Y-112345040D01*
X126533019Y-112341000D01*
X131284984Y-112341000D01*
X131326002Y-112345040D01*
X131367020Y-112341000D01*
X131367021Y-112341000D01*
X131489691Y-112328918D01*
X131647089Y-112281172D01*
X131792148Y-112203636D01*
X131919293Y-112099291D01*
X131945448Y-112067421D01*
X136705428Y-107307442D01*
X136737291Y-107281293D01*
X136841636Y-107154148D01*
X136919172Y-107009089D01*
X136966918Y-106851691D01*
X136979000Y-106729021D01*
X136979000Y-106729020D01*
X136983040Y-106688003D01*
X136979000Y-106646984D01*
X136979000Y-105057112D01*
X137163608Y-104905608D01*
X137342932Y-104687101D01*
X137414000Y-104554142D01*
X137485068Y-104687101D01*
X137664392Y-104905608D01*
X137882899Y-105084932D01*
X138132192Y-105218182D01*
X138402691Y-105300236D01*
X138613508Y-105321000D01*
X138754492Y-105321000D01*
X138965309Y-105300236D01*
X139235808Y-105218182D01*
X139485101Y-105084932D01*
X139703608Y-104905608D01*
X139882932Y-104687101D01*
X139956579Y-104549318D01*
X140071615Y-104741131D01*
X140260586Y-104949519D01*
X140486580Y-105117037D01*
X140740913Y-105237246D01*
X140874961Y-105277904D01*
X141097000Y-105155915D01*
X141097000Y-104013000D01*
X141077000Y-104013000D01*
X141077000Y-103759000D01*
X141097000Y-103759000D01*
X141097000Y-102616085D01*
X141351000Y-102616085D01*
X141351000Y-103759000D01*
X141371000Y-103759000D01*
X141371000Y-104013000D01*
X141351000Y-104013000D01*
X141351000Y-105155915D01*
X141573039Y-105277904D01*
X141707087Y-105237246D01*
X141961420Y-105117037D01*
X142187414Y-104949519D01*
X142376385Y-104741131D01*
X142491421Y-104549318D01*
X142565068Y-104687101D01*
X142744392Y-104905608D01*
X142962899Y-105084932D01*
X143212192Y-105218182D01*
X143482691Y-105300236D01*
X143693508Y-105321000D01*
X143834492Y-105321000D01*
X144045309Y-105300236D01*
X144315808Y-105218182D01*
X144565101Y-105084932D01*
X144783608Y-104905608D01*
X144962932Y-104687101D01*
X145096182Y-104437808D01*
X145178236Y-104167309D01*
X145205943Y-103886000D01*
X145178236Y-103604691D01*
X145096182Y-103334192D01*
X144962932Y-103084899D01*
X144783608Y-102866392D01*
X144565101Y-102687068D01*
X144315808Y-102553818D01*
X144045309Y-102471764D01*
X143834492Y-102451000D01*
X143693508Y-102451000D01*
X143482691Y-102471764D01*
X143212192Y-102553818D01*
X142962899Y-102687068D01*
X142744392Y-102866392D01*
X142565068Y-103084899D01*
X142491421Y-103222682D01*
X142376385Y-103030869D01*
X142187414Y-102822481D01*
X141961420Y-102654963D01*
X141707087Y-102534754D01*
X141573039Y-102494096D01*
X141351000Y-102616085D01*
X141097000Y-102616085D01*
X140874961Y-102494096D01*
X140740913Y-102534754D01*
X140486580Y-102654963D01*
X140260586Y-102822481D01*
X140071615Y-103030869D01*
X139956579Y-103222682D01*
X139882932Y-103084899D01*
X139703608Y-102866392D01*
X139485101Y-102687068D01*
X139235808Y-102553818D01*
X138965309Y-102471764D01*
X138754492Y-102451000D01*
X138613508Y-102451000D01*
X138402691Y-102471764D01*
X138132192Y-102553818D01*
X137882899Y-102687068D01*
X137664392Y-102866392D01*
X137485068Y-103084899D01*
X137414000Y-103217858D01*
X137342932Y-103084899D01*
X137163608Y-102866392D01*
X136945101Y-102687068D01*
X136695808Y-102553818D01*
X136425309Y-102471764D01*
X136214492Y-102451000D01*
X136073508Y-102451000D01*
X135862691Y-102471764D01*
X135592192Y-102553818D01*
X135342899Y-102687068D01*
X135124392Y-102866392D01*
X134945068Y-103084899D01*
X134874000Y-103217858D01*
X134802932Y-103084899D01*
X134623608Y-102866392D01*
X134405101Y-102687068D01*
X134155808Y-102553818D01*
X133885309Y-102471764D01*
X133674492Y-102451000D01*
X133533508Y-102451000D01*
X133322691Y-102471764D01*
X133052192Y-102553818D01*
X132802899Y-102687068D01*
X132584392Y-102866392D01*
X132405068Y-103084899D01*
X132334000Y-103217858D01*
X132262932Y-103084899D01*
X132083608Y-102866392D01*
X131865101Y-102687068D01*
X131615808Y-102553818D01*
X131345309Y-102471764D01*
X131134492Y-102451000D01*
X130993508Y-102451000D01*
X130782691Y-102471764D01*
X130512192Y-102553818D01*
X130262899Y-102687068D01*
X130044392Y-102866392D01*
X129865068Y-103084899D01*
X129794000Y-103217858D01*
X129722932Y-103084899D01*
X129543608Y-102866392D01*
X129325101Y-102687068D01*
X129075808Y-102553818D01*
X128805309Y-102471764D01*
X128594492Y-102451000D01*
X128453508Y-102451000D01*
X128242691Y-102471764D01*
X127972192Y-102553818D01*
X127722899Y-102687068D01*
X127504392Y-102866392D01*
X127325068Y-103084899D01*
X127254000Y-103217858D01*
X127182932Y-103084899D01*
X127003608Y-102866392D01*
X126785101Y-102687068D01*
X126535808Y-102553818D01*
X126265309Y-102471764D01*
X126054492Y-102451000D01*
X125913508Y-102451000D01*
X125702691Y-102471764D01*
X125432192Y-102553818D01*
X125182899Y-102687068D01*
X124964392Y-102866392D01*
X124785068Y-103084899D01*
X124714000Y-103217858D01*
X124642932Y-103084899D01*
X124463608Y-102866392D01*
X124245101Y-102687068D01*
X123995808Y-102553818D01*
X123725309Y-102471764D01*
X123514492Y-102451000D01*
X123373508Y-102451000D01*
X123162691Y-102471764D01*
X122892192Y-102553818D01*
X122642899Y-102687068D01*
X122424392Y-102866392D01*
X122245068Y-103084899D01*
X122174000Y-103217858D01*
X122102932Y-103084899D01*
X121923608Y-102866392D01*
X121705101Y-102687068D01*
X121455808Y-102553818D01*
X121185309Y-102471764D01*
X120974492Y-102451000D01*
X120833508Y-102451000D01*
X120622691Y-102471764D01*
X120352192Y-102553818D01*
X120102899Y-102687068D01*
X119884392Y-102866392D01*
X119705068Y-103084899D01*
X119634000Y-103217858D01*
X119562932Y-103084899D01*
X119383608Y-102866392D01*
X119165101Y-102687068D01*
X118915808Y-102553818D01*
X118645309Y-102471764D01*
X118434492Y-102451000D01*
X118293508Y-102451000D01*
X118082691Y-102471764D01*
X117812192Y-102553818D01*
X117562899Y-102687068D01*
X117344392Y-102866392D01*
X117165068Y-103084899D01*
X117094000Y-103217858D01*
X117022932Y-103084899D01*
X116843608Y-102866392D01*
X116625101Y-102687068D01*
X116375808Y-102553818D01*
X116177272Y-102493593D01*
X121465432Y-97205435D01*
X121497291Y-97179289D01*
X121566395Y-97095086D01*
X121601636Y-97052144D01*
X121679172Y-96907085D01*
X121720092Y-96772188D01*
X121726918Y-96749687D01*
X121739000Y-96627017D01*
X121739000Y-96627016D01*
X121743040Y-96585998D01*
X121739000Y-96544980D01*
X121739000Y-92456000D01*
X127176960Y-92456000D01*
X127181000Y-92497019D01*
X127181001Y-97494972D01*
X127176960Y-97536000D01*
X127193082Y-97699688D01*
X127240828Y-97857086D01*
X127304878Y-97976914D01*
X127318365Y-98002146D01*
X127422710Y-98129291D01*
X127454574Y-98155441D01*
X129682559Y-100383427D01*
X129708709Y-100415291D01*
X129835854Y-100519636D01*
X129980913Y-100597172D01*
X130138311Y-100644918D01*
X130301999Y-100661040D01*
X130343018Y-100657000D01*
X132546982Y-100657000D01*
X132588000Y-100661040D01*
X132629018Y-100657000D01*
X132629019Y-100657000D01*
X132751689Y-100644918D01*
X132909087Y-100597172D01*
X133054146Y-100519636D01*
X133181291Y-100415291D01*
X133207446Y-100383421D01*
X134927433Y-98663436D01*
X134959291Y-98637291D01*
X135029288Y-98552000D01*
X135063636Y-98510146D01*
X135141172Y-98365087D01*
X135161522Y-98298001D01*
X135188918Y-98207689D01*
X135201000Y-98085019D01*
X135201000Y-98085018D01*
X135205040Y-98044000D01*
X135201000Y-98002981D01*
X135201000Y-92497017D01*
X135205040Y-92456001D01*
X135201000Y-92414981D01*
X135188918Y-92292311D01*
X135141172Y-92134913D01*
X135063636Y-91989854D01*
X134959291Y-91862709D01*
X134832146Y-91758364D01*
X134687087Y-91680828D01*
X134529689Y-91633082D01*
X134366000Y-91616960D01*
X134365999Y-91616960D01*
X134349877Y-91618548D01*
X134202312Y-91633082D01*
X134092659Y-91666345D01*
X134044913Y-91680828D01*
X133899854Y-91758364D01*
X133804570Y-91836562D01*
X133772710Y-91862709D01*
X133746564Y-91894568D01*
X132993273Y-92647859D01*
X132883019Y-92637000D01*
X132883018Y-92637000D01*
X132842000Y-92632960D01*
X132800982Y-92637000D01*
X130089015Y-92637000D01*
X130047999Y-92632960D01*
X130006983Y-92637000D01*
X130006981Y-92637000D01*
X129896727Y-92647859D01*
X129085429Y-91836562D01*
X128889437Y-91640570D01*
X128863290Y-91608710D01*
X128736145Y-91504364D01*
X128591086Y-91426828D01*
X128433688Y-91379082D01*
X128270000Y-91362960D01*
X128269999Y-91362960D01*
X128253877Y-91364548D01*
X128106312Y-91379082D01*
X127948914Y-91426828D01*
X127803855Y-91504364D01*
X127676710Y-91608710D01*
X127650563Y-91640570D01*
X127454579Y-91836554D01*
X127422709Y-91862709D01*
X127340969Y-91962311D01*
X127318364Y-91989855D01*
X127240828Y-92134914D01*
X127193082Y-92292312D01*
X127176960Y-92456000D01*
X121739000Y-92456000D01*
X121739000Y-89817112D01*
X121923608Y-89665608D01*
X122102932Y-89447101D01*
X122174000Y-89314142D01*
X122245068Y-89447101D01*
X122424392Y-89665608D01*
X122642899Y-89844932D01*
X122892192Y-89978182D01*
X123162691Y-90060236D01*
X123373508Y-90081000D01*
X123514492Y-90081000D01*
X123725309Y-90060236D01*
X123995808Y-89978182D01*
X124245101Y-89844932D01*
X124463608Y-89665608D01*
X124642932Y-89447101D01*
X124714000Y-89314142D01*
X124785068Y-89447101D01*
X124964392Y-89665608D01*
X125182899Y-89844932D01*
X125432192Y-89978182D01*
X125702691Y-90060236D01*
X125913508Y-90081000D01*
X126054492Y-90081000D01*
X126265309Y-90060236D01*
X126535808Y-89978182D01*
X126785101Y-89844932D01*
X127003608Y-89665608D01*
X127182932Y-89447101D01*
X127254000Y-89314142D01*
X127325068Y-89447101D01*
X127504392Y-89665608D01*
X127722899Y-89844932D01*
X127972192Y-89978182D01*
X128242691Y-90060236D01*
X128453508Y-90081000D01*
X128594492Y-90081000D01*
X128805309Y-90060236D01*
X129075808Y-89978182D01*
X129325101Y-89844932D01*
X129543608Y-89665608D01*
X129722932Y-89447101D01*
X129794000Y-89314142D01*
X129865068Y-89447101D01*
X130044392Y-89665608D01*
X130262899Y-89844932D01*
X130512192Y-89978182D01*
X130782691Y-90060236D01*
X130993508Y-90081000D01*
X131134492Y-90081000D01*
X131345309Y-90060236D01*
X131615808Y-89978182D01*
X131865101Y-89844932D01*
X132083608Y-89665608D01*
X132262932Y-89447101D01*
X132334000Y-89314142D01*
X132405068Y-89447101D01*
X132584392Y-89665608D01*
X132802899Y-89844932D01*
X133052192Y-89978182D01*
X133322691Y-90060236D01*
X133533508Y-90081000D01*
X133674492Y-90081000D01*
X133885309Y-90060236D01*
X134155808Y-89978182D01*
X134405101Y-89844932D01*
X134623608Y-89665608D01*
X134802932Y-89447101D01*
X134874000Y-89314142D01*
X134945068Y-89447101D01*
X135124392Y-89665608D01*
X135342899Y-89844932D01*
X135592192Y-89978182D01*
X135862691Y-90060236D01*
X136073508Y-90081000D01*
X136214492Y-90081000D01*
X136425309Y-90060236D01*
X136695808Y-89978182D01*
X136945101Y-89844932D01*
X137163608Y-89665608D01*
X137342932Y-89447101D01*
X137414000Y-89314142D01*
X137485068Y-89447101D01*
X137664392Y-89665608D01*
X137882899Y-89844932D01*
X138132192Y-89978182D01*
X138402691Y-90060236D01*
X138613508Y-90081000D01*
X138754492Y-90081000D01*
X138965309Y-90060236D01*
X139235808Y-89978182D01*
X139485101Y-89844932D01*
X139703608Y-89665608D01*
X139882932Y-89447101D01*
X139954000Y-89314142D01*
X140025068Y-89447101D01*
X140204392Y-89665608D01*
X140422899Y-89844932D01*
X140672192Y-89978182D01*
X140942691Y-90060236D01*
X141153508Y-90081000D01*
X141294492Y-90081000D01*
X141505309Y-90060236D01*
X141775808Y-89978182D01*
X142025101Y-89844932D01*
X142243608Y-89665608D01*
X142336419Y-89552518D01*
X142338188Y-89570482D01*
X142374498Y-89690180D01*
X142433463Y-89800494D01*
X142512815Y-89897185D01*
X142609506Y-89976537D01*
X142719820Y-90035502D01*
X142839518Y-90071812D01*
X142964000Y-90084072D01*
X144564000Y-90084072D01*
X144688482Y-90071812D01*
X144808180Y-90035502D01*
X144918494Y-89976537D01*
X145015185Y-89897185D01*
X145094537Y-89800494D01*
X145153502Y-89690180D01*
X145189812Y-89570482D01*
X145202072Y-89446000D01*
X145202072Y-87846000D01*
X145189812Y-87721518D01*
X145153502Y-87601820D01*
X145094537Y-87491506D01*
X145015185Y-87394815D01*
X144918494Y-87315463D01*
X144808180Y-87256498D01*
X144688482Y-87220188D01*
X144564000Y-87207928D01*
X142964000Y-87207928D01*
X142839518Y-87220188D01*
X142719820Y-87256498D01*
X142609506Y-87315463D01*
X142512815Y-87394815D01*
X142433463Y-87491506D01*
X142374498Y-87601820D01*
X142338188Y-87721518D01*
X142336419Y-87739482D01*
X142243608Y-87626392D01*
X142025101Y-87447068D01*
X141775808Y-87313818D01*
X141505309Y-87231764D01*
X141294492Y-87211000D01*
X141153508Y-87211000D01*
X140942691Y-87231764D01*
X140672192Y-87313818D01*
X140422899Y-87447068D01*
X140204392Y-87626392D01*
X140025068Y-87844899D01*
X139954000Y-87977858D01*
X139882932Y-87844899D01*
X139703608Y-87626392D01*
X139485101Y-87447068D01*
X139235808Y-87313818D01*
X138965309Y-87231764D01*
X138754492Y-87211000D01*
X138613508Y-87211000D01*
X138402691Y-87231764D01*
X138132192Y-87313818D01*
X137882899Y-87447068D01*
X137664392Y-87626392D01*
X137485068Y-87844899D01*
X137414000Y-87977858D01*
X137342932Y-87844899D01*
X137163608Y-87626392D01*
X136945101Y-87447068D01*
X136695808Y-87313818D01*
X136425309Y-87231764D01*
X136214492Y-87211000D01*
X136073508Y-87211000D01*
X135862691Y-87231764D01*
X135592192Y-87313818D01*
X135342899Y-87447068D01*
X135124392Y-87626392D01*
X134945068Y-87844899D01*
X134874000Y-87977858D01*
X134802932Y-87844899D01*
X134623608Y-87626392D01*
X134405101Y-87447068D01*
X134155808Y-87313818D01*
X133885309Y-87231764D01*
X133679386Y-87211482D01*
X133911428Y-86979440D01*
X133943291Y-86953291D01*
X134047636Y-86826146D01*
X134125172Y-86681087D01*
X134172918Y-86523689D01*
X134185000Y-86401019D01*
X134185000Y-86401018D01*
X134189040Y-86360001D01*
X134185000Y-86318982D01*
X134185000Y-84039793D01*
X134405134Y-83859134D01*
X134590706Y-83633014D01*
X134728599Y-83375034D01*
X134813513Y-83095111D01*
X134842185Y-82804000D01*
X134813513Y-82512889D01*
X134728599Y-82232966D01*
X134590706Y-81974986D01*
X134405134Y-81748866D01*
X134179014Y-81563294D01*
X133921034Y-81425401D01*
X133641111Y-81340487D01*
X133422950Y-81319000D01*
X133277050Y-81319000D01*
X133058889Y-81340487D01*
X132778966Y-81425401D01*
X132520986Y-81563294D01*
X132294866Y-81748866D01*
X132270393Y-81778687D01*
X132249502Y-81709820D01*
X132190537Y-81599506D01*
X132111185Y-81502815D01*
X132014494Y-81423463D01*
X131904180Y-81364498D01*
X131784482Y-81328188D01*
X131660000Y-81315928D01*
X131095750Y-81319000D01*
X130937000Y-81477750D01*
X130937000Y-82677000D01*
X130957000Y-82677000D01*
X130957000Y-82931000D01*
X130937000Y-82931000D01*
X130937000Y-84130250D01*
X131095750Y-84289000D01*
X131660000Y-84292072D01*
X131784482Y-84279812D01*
X131904180Y-84243502D01*
X132014494Y-84184537D01*
X132111185Y-84105185D01*
X132190537Y-84008494D01*
X132249502Y-83898180D01*
X132270393Y-83829313D01*
X132294866Y-83859134D01*
X132515001Y-84039794D01*
X132515000Y-86014132D01*
X131301667Y-87227466D01*
X131134492Y-87211000D01*
X130993508Y-87211000D01*
X130782691Y-87231764D01*
X130512192Y-87313818D01*
X130262899Y-87447068D01*
X130044392Y-87626392D01*
X129865068Y-87844899D01*
X129794000Y-87977858D01*
X129722932Y-87844899D01*
X129543608Y-87626392D01*
X129325101Y-87447068D01*
X129075808Y-87313818D01*
X128805309Y-87231764D01*
X128594492Y-87211000D01*
X128453508Y-87211000D01*
X128242691Y-87231764D01*
X127972192Y-87313818D01*
X127722899Y-87447068D01*
X127504392Y-87626392D01*
X127325068Y-87844899D01*
X127254000Y-87977858D01*
X127182932Y-87844899D01*
X127003608Y-87626392D01*
X126785101Y-87447068D01*
X126535808Y-87313818D01*
X126265309Y-87231764D01*
X126054492Y-87211000D01*
X125913508Y-87211000D01*
X125702691Y-87231764D01*
X125432192Y-87313818D01*
X125182899Y-87447068D01*
X124964392Y-87626392D01*
X124785068Y-87844899D01*
X124714000Y-87977858D01*
X124642932Y-87844899D01*
X124463608Y-87626392D01*
X124245101Y-87447068D01*
X123995808Y-87313818D01*
X123725309Y-87231764D01*
X123514492Y-87211000D01*
X123373508Y-87211000D01*
X123162691Y-87231764D01*
X122892192Y-87313818D01*
X122642899Y-87447068D01*
X122424392Y-87626392D01*
X122245068Y-87844899D01*
X122174000Y-87977858D01*
X122102932Y-87844899D01*
X121923608Y-87626392D01*
X121705101Y-87447068D01*
X121455808Y-87313818D01*
X121185309Y-87231764D01*
X120974492Y-87211000D01*
X120833508Y-87211000D01*
X120622691Y-87231764D01*
X120352192Y-87313818D01*
X120102899Y-87447068D01*
X119884392Y-87626392D01*
X119705068Y-87844899D01*
X119634000Y-87977858D01*
X119562932Y-87844899D01*
X119383608Y-87626392D01*
X119165101Y-87447068D01*
X118915808Y-87313818D01*
X118645309Y-87231764D01*
X118434492Y-87211000D01*
X118293508Y-87211000D01*
X118082691Y-87231764D01*
X117812192Y-87313818D01*
X117562899Y-87447068D01*
X117344392Y-87626392D01*
X117165068Y-87844899D01*
X117094000Y-87977858D01*
X117022932Y-87844899D01*
X116843608Y-87626392D01*
X116625101Y-87447068D01*
X116375808Y-87313818D01*
X116105309Y-87231764D01*
X115894492Y-87211000D01*
X115753508Y-87211000D01*
X115542691Y-87231764D01*
X115272192Y-87313818D01*
X115022899Y-87447068D01*
X114804392Y-87626392D01*
X114625068Y-87844899D01*
X114491818Y-88094192D01*
X114409764Y-88364691D01*
X114382057Y-88646000D01*
X114405465Y-88883666D01*
X112168129Y-91121004D01*
X112104299Y-90966905D01*
X111936312Y-90715495D01*
X111722505Y-90501688D01*
X111471095Y-90333701D01*
X111191743Y-90217989D01*
X110895184Y-90159000D01*
X110592816Y-90159000D01*
X110296257Y-90217989D01*
X110016905Y-90333701D01*
X109765495Y-90501688D01*
X109551688Y-90715495D01*
X109383701Y-90966905D01*
X109267989Y-91246257D01*
X109209000Y-91542816D01*
X109209000Y-91845184D01*
X109267989Y-92141743D01*
X109383701Y-92421095D01*
X109551688Y-92672505D01*
X109618127Y-92738944D01*
X109599820Y-92744498D01*
X109489506Y-92803463D01*
X109392815Y-92882815D01*
X109313463Y-92979506D01*
X109254498Y-93089820D01*
X109218188Y-93209518D01*
X109205928Y-93334000D01*
X109209000Y-93948250D01*
X109367750Y-94107000D01*
X110617000Y-94107000D01*
X110617000Y-94087000D01*
X110871000Y-94087000D01*
X110871000Y-94107000D01*
X110891000Y-94107000D01*
X110891000Y-94361000D01*
X110871000Y-94361000D01*
X110871000Y-95610250D01*
X111029750Y-95769000D01*
X111087844Y-95769291D01*
X110994135Y-95862999D01*
X109153019Y-95862999D01*
X109112000Y-95858959D01*
X109070982Y-95862999D01*
X108948312Y-95875081D01*
X108790914Y-95922827D01*
X108645855Y-96000363D01*
X108518710Y-96104708D01*
X108492562Y-96136570D01*
X105676843Y-98952290D01*
X105675000Y-98583750D01*
X105516250Y-98425000D01*
X104267000Y-98425000D01*
X104267000Y-98445000D01*
X104013000Y-98445000D01*
X104013000Y-98425000D01*
X102763750Y-98425000D01*
X102605000Y-98583750D01*
X102601928Y-99198000D01*
X102614188Y-99322482D01*
X102650498Y-99442180D01*
X102709463Y-99552494D01*
X102788815Y-99649185D01*
X102885506Y-99728537D01*
X102995820Y-99787502D01*
X103014127Y-99793056D01*
X102947688Y-99859495D01*
X102779701Y-100110905D01*
X102663989Y-100390257D01*
X102605000Y-100686816D01*
X102605000Y-100989184D01*
X102663989Y-101285743D01*
X102779701Y-101565095D01*
X102947688Y-101816505D01*
X103161495Y-102030312D01*
X103412905Y-102198299D01*
X103692257Y-102314011D01*
X103988816Y-102373000D01*
X104291184Y-102373000D01*
X104587743Y-102314011D01*
X104867095Y-102198299D01*
X104905001Y-102172971D01*
X104905001Y-102956130D01*
X102346577Y-105514556D01*
X102314708Y-105540710D01*
X102288560Y-105572572D01*
X102108132Y-105753000D01*
X101966665Y-105753000D01*
X101689426Y-105808147D01*
X101428273Y-105916320D01*
X101193241Y-106073363D01*
X100993363Y-106273241D01*
X100836320Y-106508273D01*
X100728147Y-106769426D01*
X100673000Y-107046665D01*
X100673000Y-107329335D01*
X100728147Y-107606574D01*
X100836320Y-107867727D01*
X100993363Y-108102759D01*
X101193241Y-108302637D01*
X101428273Y-108459680D01*
X101689426Y-108567853D01*
X101966665Y-108623000D01*
X102249335Y-108623000D01*
X102526574Y-108567853D01*
X102787727Y-108459680D01*
X103022759Y-108302637D01*
X103222637Y-108102759D01*
X103379680Y-107867727D01*
X103487853Y-107606574D01*
X103504308Y-107523849D01*
X103569818Y-107739808D01*
X103703068Y-107989101D01*
X103882392Y-108207608D01*
X104100899Y-108386932D01*
X104350192Y-108520182D01*
X104620691Y-108602236D01*
X104831508Y-108623000D01*
X104972492Y-108623000D01*
X105183309Y-108602236D01*
X105453808Y-108520182D01*
X105703101Y-108386932D01*
X105921608Y-108207608D01*
X106100932Y-107989101D01*
X106234182Y-107739808D01*
X106316236Y-107469309D01*
X106343943Y-107188000D01*
X106316236Y-106906691D01*
X106234182Y-106636192D01*
X106100932Y-106386899D01*
X105921608Y-106168392D01*
X105703101Y-105989068D01*
X105453808Y-105855818D01*
X105183309Y-105773764D01*
X104972492Y-105753000D01*
X104831508Y-105753000D01*
X104620691Y-105773764D01*
X104374390Y-105848478D01*
X106301434Y-103921435D01*
X106333292Y-103895290D01*
X106374580Y-103844981D01*
X106437637Y-103768145D01*
X106515173Y-103623086D01*
X106532819Y-103564914D01*
X106562919Y-103465688D01*
X106575001Y-103343018D01*
X106575001Y-103343017D01*
X106579041Y-103301999D01*
X106575001Y-103260981D01*
X106575001Y-100415866D01*
X109207854Y-97783014D01*
X109209000Y-98012250D01*
X109367750Y-98171000D01*
X110617000Y-98171000D01*
X110617000Y-98151000D01*
X110871000Y-98151000D01*
X110871000Y-98171000D01*
X112120250Y-98171000D01*
X112279000Y-98012250D01*
X112282072Y-97398000D01*
X112269812Y-97273518D01*
X112233502Y-97153820D01*
X112174825Y-97044045D01*
X112905434Y-96313437D01*
X112937292Y-96287292D01*
X112989115Y-96224146D01*
X113041637Y-96160147D01*
X113119173Y-96015088D01*
X113157615Y-95888362D01*
X113166919Y-95857690D01*
X113179001Y-95735020D01*
X113179001Y-95735019D01*
X113183041Y-95694001D01*
X113179001Y-95652983D01*
X113179001Y-92471866D01*
X115586334Y-90064535D01*
X115753508Y-90081000D01*
X115894492Y-90081000D01*
X116105309Y-90060236D01*
X116375808Y-89978182D01*
X116625101Y-89844932D01*
X116843608Y-89665608D01*
X117022932Y-89447101D01*
X117094000Y-89314142D01*
X117165068Y-89447101D01*
X117344392Y-89665608D01*
X117529000Y-89817112D01*
X117529001Y-95240132D01*
X112246369Y-100522766D01*
X112220011Y-100390257D01*
X112104299Y-100110905D01*
X111936312Y-99859495D01*
X111869873Y-99793056D01*
X111888180Y-99787502D01*
X111998494Y-99728537D01*
X112095185Y-99649185D01*
X112174537Y-99552494D01*
X112233502Y-99442180D01*
X112269812Y-99322482D01*
X112282072Y-99198000D01*
X112279000Y-98583750D01*
X112120250Y-98425000D01*
X110871000Y-98425000D01*
X110871000Y-98445000D01*
X110617000Y-98445000D01*
X110617000Y-98425000D01*
X109367750Y-98425000D01*
X109209000Y-98583750D01*
X109205928Y-99198000D01*
X109218188Y-99322482D01*
X109254498Y-99442180D01*
X109313463Y-99552494D01*
X109392815Y-99649185D01*
X109489506Y-99728537D01*
X109599820Y-99787502D01*
X109618127Y-99793056D01*
X109551688Y-99859495D01*
X109383701Y-100110905D01*
X109267989Y-100390257D01*
X109209000Y-100686816D01*
X109209000Y-100989184D01*
X109267989Y-101285743D01*
X109383701Y-101565095D01*
X109551688Y-101816505D01*
X109765495Y-102030312D01*
X110016905Y-102198299D01*
X110296257Y-102314011D01*
X110592816Y-102373000D01*
X110895184Y-102373000D01*
X111191743Y-102314011D01*
X111471095Y-102198299D01*
X111687000Y-102054036D01*
X111687001Y-104860972D01*
X111687000Y-104860982D01*
X111687000Y-106020070D01*
X111607241Y-106073363D01*
X111407363Y-106273241D01*
X111250320Y-106508273D01*
X111142147Y-106769426D01*
X111087000Y-107046665D01*
X111087000Y-107329335D01*
X111142147Y-107606574D01*
X111250320Y-107867727D01*
X111407363Y-108102759D01*
X111607241Y-108302637D01*
X111842273Y-108459680D01*
X112103426Y-108567853D01*
X112380665Y-108623000D01*
X112663335Y-108623000D01*
X112940574Y-108567853D01*
X113201727Y-108459680D01*
X113436759Y-108302637D01*
X113636637Y-108102759D01*
X113793680Y-107867727D01*
X113901853Y-107606574D01*
X113918308Y-107523849D01*
X113983818Y-107739808D01*
X114117068Y-107989101D01*
X114296392Y-108207608D01*
X114514899Y-108386932D01*
X114764192Y-108520182D01*
X115034691Y-108602236D01*
X115245508Y-108623000D01*
X115386492Y-108623000D01*
X115597309Y-108602236D01*
X115867808Y-108520182D01*
X116117101Y-108386932D01*
X116335608Y-108207608D01*
X116514932Y-107989101D01*
X116648182Y-107739808D01*
X116730236Y-107469309D01*
X116757943Y-107188000D01*
X116730236Y-106906691D01*
X116648182Y-106636192D01*
X116514932Y-106386899D01*
X116378783Y-106221001D01*
X120788134Y-106221001D01*
X121519715Y-106952582D01*
X121501000Y-107046665D01*
X121501000Y-107329335D01*
X121556147Y-107606574D01*
X121664320Y-107867727D01*
X121821363Y-108102759D01*
X122021241Y-108302637D01*
X122256273Y-108459680D01*
X122517426Y-108567853D01*
X122794665Y-108623000D01*
X123077335Y-108623000D01*
X123354574Y-108567853D01*
X123615727Y-108459680D01*
X123850759Y-108302637D01*
X124050637Y-108102759D01*
X124207680Y-107867727D01*
X124315853Y-107606574D01*
X124371000Y-107329335D01*
X124371000Y-107046665D01*
X124315853Y-106769426D01*
X124207680Y-106508273D01*
X124050637Y-106273241D01*
X123850759Y-106073363D01*
X123615727Y-105916320D01*
X123354574Y-105808147D01*
X123077335Y-105753000D01*
X122935867Y-105753000D01*
X122755449Y-105572582D01*
X122755440Y-105572571D01*
X122007446Y-104824579D01*
X121998776Y-104814015D01*
X122102932Y-104687101D01*
X122174000Y-104554142D01*
X122245068Y-104687101D01*
X122424392Y-104905608D01*
X122642899Y-105084932D01*
X122892192Y-105218182D01*
X123162691Y-105300236D01*
X123373508Y-105321000D01*
X123514492Y-105321000D01*
X123725309Y-105300236D01*
X123995808Y-105218182D01*
X124245101Y-105084932D01*
X124463608Y-104905608D01*
X124642932Y-104687101D01*
X124714000Y-104554142D01*
X124785068Y-104687101D01*
X124964392Y-104905608D01*
X125182899Y-105084932D01*
X125432192Y-105218182D01*
X125702691Y-105300236D01*
X125913508Y-105321000D01*
X126054492Y-105321000D01*
X126221667Y-105304534D01*
X128197001Y-107279870D01*
X128197001Y-107730206D01*
X127976866Y-107910866D01*
X127952393Y-107940687D01*
X127931502Y-107871820D01*
X127872537Y-107761506D01*
X127793185Y-107664815D01*
X127696494Y-107585463D01*
X127586180Y-107526498D01*
X127466482Y-107490188D01*
X127342000Y-107477928D01*
X125642000Y-107477928D01*
X125517518Y-107490188D01*
X125397820Y-107526498D01*
X125287506Y-107585463D01*
X125190815Y-107664815D01*
X125111463Y-107761506D01*
X125052498Y-107871820D01*
X125016188Y-107991518D01*
X125003928Y-108116000D01*
X125003928Y-109816000D01*
X125016188Y-109940482D01*
X125052498Y-110060180D01*
X125111463Y-110170494D01*
X125190815Y-110267185D01*
X125287506Y-110346537D01*
X125397820Y-110405502D01*
X125517518Y-110441812D01*
X125642000Y-110454072D01*
X125657001Y-110454072D01*
X125657001Y-110671000D01*
X93629866Y-110671000D01*
X91797144Y-108838279D01*
X92056292Y-108745603D01*
X92181514Y-108678671D01*
X92253097Y-108434702D01*
X91440000Y-107621605D01*
X91425858Y-107635748D01*
X91246253Y-107456143D01*
X91260395Y-107442000D01*
X91619605Y-107442000D01*
X92432702Y-108255097D01*
X92676671Y-108183514D01*
X92797571Y-107928004D01*
X92866300Y-107653816D01*
X92880217Y-107371488D01*
X92853031Y-107188000D01*
X93046057Y-107188000D01*
X93073764Y-107469309D01*
X93155818Y-107739808D01*
X93289068Y-107989101D01*
X93468392Y-108207608D01*
X93686899Y-108386932D01*
X93936192Y-108520182D01*
X94206691Y-108602236D01*
X94417508Y-108623000D01*
X94558492Y-108623000D01*
X94769309Y-108602236D01*
X95039808Y-108520182D01*
X95289101Y-108386932D01*
X95507608Y-108207608D01*
X95686932Y-107989101D01*
X95820182Y-107739808D01*
X95902236Y-107469309D01*
X95929943Y-107188000D01*
X95902236Y-106906691D01*
X95820182Y-106636192D01*
X95686932Y-106386899D01*
X95507608Y-106168392D01*
X95289101Y-105989068D01*
X95039808Y-105855818D01*
X94769309Y-105773764D01*
X94558492Y-105753000D01*
X94417508Y-105753000D01*
X94206691Y-105773764D01*
X93936192Y-105855818D01*
X93686899Y-105989068D01*
X93468392Y-106168392D01*
X93289068Y-106386899D01*
X93155818Y-106636192D01*
X93073764Y-106906691D01*
X93046057Y-107188000D01*
X92853031Y-107188000D01*
X92838787Y-107091870D01*
X92743603Y-106825708D01*
X92676671Y-106700486D01*
X92432702Y-106628903D01*
X91619605Y-107442000D01*
X91260395Y-107442000D01*
X90447298Y-106628903D01*
X90203329Y-106700486D01*
X90082429Y-106955996D01*
X90048844Y-107089979D01*
X89408163Y-106449298D01*
X90626903Y-106449298D01*
X91440000Y-107262395D01*
X92253097Y-106449298D01*
X92181514Y-106205329D01*
X91926004Y-106084429D01*
X91651816Y-106015700D01*
X91369488Y-106001783D01*
X91089870Y-106043213D01*
X90823708Y-106138397D01*
X90698486Y-106205329D01*
X90626903Y-106449298D01*
X89408163Y-106449298D01*
X87352865Y-104394000D01*
X89998057Y-104394000D01*
X90025764Y-104675309D01*
X90107818Y-104945808D01*
X90241068Y-105195101D01*
X90420392Y-105413608D01*
X90638899Y-105592932D01*
X90888192Y-105726182D01*
X91158691Y-105808236D01*
X91369508Y-105829000D01*
X91510492Y-105829000D01*
X91721309Y-105808236D01*
X91991808Y-105726182D01*
X92241101Y-105592932D01*
X92459608Y-105413608D01*
X92638932Y-105195101D01*
X92772182Y-104945808D01*
X92854236Y-104675309D01*
X92881943Y-104394000D01*
X92854236Y-104112691D01*
X92772182Y-103842192D01*
X92638932Y-103592899D01*
X92459608Y-103374392D01*
X92241101Y-103195068D01*
X91991808Y-103061818D01*
X91721309Y-102979764D01*
X91510492Y-102959000D01*
X91369508Y-102959000D01*
X91158691Y-102979764D01*
X90888192Y-103061818D01*
X90638899Y-103195068D01*
X90420392Y-103374392D01*
X90241068Y-103592899D01*
X90107818Y-103842192D01*
X90025764Y-104112691D01*
X89998057Y-104394000D01*
X87352865Y-104394000D01*
X86356999Y-103398134D01*
X86356999Y-101204665D01*
X90005000Y-101204665D01*
X90005000Y-101487335D01*
X90060147Y-101764574D01*
X90168320Y-102025727D01*
X90325363Y-102260759D01*
X90525241Y-102460637D01*
X90760273Y-102617680D01*
X91021426Y-102725853D01*
X91298665Y-102781000D01*
X91581335Y-102781000D01*
X91858574Y-102725853D01*
X92119727Y-102617680D01*
X92354759Y-102460637D01*
X92554637Y-102260759D01*
X92711680Y-102025727D01*
X92819853Y-101764574D01*
X92875000Y-101487335D01*
X92875000Y-101204665D01*
X92819853Y-100927426D01*
X92711680Y-100666273D01*
X92554637Y-100431241D01*
X92354759Y-100231363D01*
X92119727Y-100074320D01*
X91858574Y-99966147D01*
X91581335Y-99911000D01*
X91298665Y-99911000D01*
X91021426Y-99966147D01*
X90760273Y-100074320D01*
X90525241Y-100231363D01*
X90325363Y-100431241D01*
X90168320Y-100666273D01*
X90060147Y-100927426D01*
X90005000Y-101204665D01*
X86356999Y-101204665D01*
X86356999Y-99198000D01*
X95997928Y-99198000D01*
X96010188Y-99322482D01*
X96046498Y-99442180D01*
X96105463Y-99552494D01*
X96184815Y-99649185D01*
X96281506Y-99728537D01*
X96391820Y-99787502D01*
X96410127Y-99793056D01*
X96343688Y-99859495D01*
X96175701Y-100110905D01*
X96059989Y-100390257D01*
X96001000Y-100686816D01*
X96001000Y-100989184D01*
X96059989Y-101285743D01*
X96175701Y-101565095D01*
X96343688Y-101816505D01*
X96557495Y-102030312D01*
X96808905Y-102198299D01*
X97088257Y-102314011D01*
X97384816Y-102373000D01*
X97687184Y-102373000D01*
X97983743Y-102314011D01*
X98263095Y-102198299D01*
X98514505Y-102030312D01*
X98728312Y-101816505D01*
X98896299Y-101565095D01*
X99012011Y-101285743D01*
X99071000Y-100989184D01*
X99071000Y-100686816D01*
X99012011Y-100390257D01*
X98896299Y-100110905D01*
X98728312Y-99859495D01*
X98661873Y-99793056D01*
X98680180Y-99787502D01*
X98790494Y-99728537D01*
X98887185Y-99649185D01*
X98966537Y-99552494D01*
X99025502Y-99442180D01*
X99061812Y-99322482D01*
X99074072Y-99198000D01*
X99071000Y-98583750D01*
X98912250Y-98425000D01*
X97663000Y-98425000D01*
X97663000Y-98445000D01*
X97409000Y-98445000D01*
X97409000Y-98425000D01*
X96159750Y-98425000D01*
X96001000Y-98583750D01*
X95997928Y-99198000D01*
X86356999Y-99198000D01*
X86356999Y-97346971D01*
X86394905Y-97372299D01*
X86674257Y-97488011D01*
X86970816Y-97547000D01*
X87273184Y-97547000D01*
X87569743Y-97488011D01*
X87849095Y-97372299D01*
X88100505Y-97204312D01*
X88166944Y-97137873D01*
X88172498Y-97156180D01*
X88231463Y-97266494D01*
X88310815Y-97363185D01*
X88407506Y-97442537D01*
X88517820Y-97501502D01*
X88637518Y-97537812D01*
X88762000Y-97550072D01*
X89376250Y-97547000D01*
X89535000Y-97388250D01*
X89535000Y-96139000D01*
X89789000Y-96139000D01*
X89789000Y-97388250D01*
X89947750Y-97547000D01*
X90562000Y-97550072D01*
X90686482Y-97537812D01*
X90806180Y-97501502D01*
X90916494Y-97442537D01*
X90970762Y-97398000D01*
X95997928Y-97398000D01*
X96001000Y-98012250D01*
X96159750Y-98171000D01*
X97409000Y-98171000D01*
X97409000Y-96921750D01*
X97663000Y-96921750D01*
X97663000Y-98171000D01*
X98912250Y-98171000D01*
X99071000Y-98012250D01*
X99074072Y-97398000D01*
X102601928Y-97398000D01*
X102605000Y-98012250D01*
X102763750Y-98171000D01*
X104013000Y-98171000D01*
X104013000Y-96921750D01*
X104267000Y-96921750D01*
X104267000Y-98171000D01*
X105516250Y-98171000D01*
X105675000Y-98012250D01*
X105678072Y-97398000D01*
X105665812Y-97273518D01*
X105629502Y-97153820D01*
X105570537Y-97043506D01*
X105491185Y-96946815D01*
X105394494Y-96867463D01*
X105284180Y-96808498D01*
X105164482Y-96772188D01*
X105040000Y-96759928D01*
X104425750Y-96763000D01*
X104267000Y-96921750D01*
X104013000Y-96921750D01*
X103854250Y-96763000D01*
X103240000Y-96759928D01*
X103115518Y-96772188D01*
X102995820Y-96808498D01*
X102885506Y-96867463D01*
X102788815Y-96946815D01*
X102709463Y-97043506D01*
X102650498Y-97153820D01*
X102614188Y-97273518D01*
X102601928Y-97398000D01*
X99074072Y-97398000D01*
X99061812Y-97273518D01*
X99025502Y-97153820D01*
X98966537Y-97043506D01*
X98887185Y-96946815D01*
X98790494Y-96867463D01*
X98680180Y-96808498D01*
X98560482Y-96772188D01*
X98436000Y-96759928D01*
X97821750Y-96763000D01*
X97663000Y-96921750D01*
X97409000Y-96921750D01*
X97250250Y-96763000D01*
X96636000Y-96759928D01*
X96511518Y-96772188D01*
X96391820Y-96808498D01*
X96281506Y-96867463D01*
X96184815Y-96946815D01*
X96105463Y-97043506D01*
X96046498Y-97153820D01*
X96010188Y-97273518D01*
X95997928Y-97398000D01*
X90970762Y-97398000D01*
X91013185Y-97363185D01*
X91092537Y-97266494D01*
X91151502Y-97156180D01*
X91187812Y-97036482D01*
X91200072Y-96912000D01*
X91197000Y-96297750D01*
X91038250Y-96139000D01*
X89789000Y-96139000D01*
X89535000Y-96139000D01*
X89515000Y-96139000D01*
X89515000Y-95885000D01*
X89535000Y-95885000D01*
X89535000Y-94635750D01*
X89789000Y-94635750D01*
X89789000Y-95885000D01*
X91038250Y-95885000D01*
X91197000Y-95726250D01*
X91199961Y-95134000D01*
X95997928Y-95134000D01*
X96010188Y-95258482D01*
X96046498Y-95378180D01*
X96105463Y-95488494D01*
X96184815Y-95585185D01*
X96281506Y-95664537D01*
X96391820Y-95723502D01*
X96511518Y-95759812D01*
X96636000Y-95772072D01*
X97250250Y-95769000D01*
X97409000Y-95610250D01*
X97409000Y-94361000D01*
X97663000Y-94361000D01*
X97663000Y-95610250D01*
X97821750Y-95769000D01*
X98436000Y-95772072D01*
X98560482Y-95759812D01*
X98680180Y-95723502D01*
X98790494Y-95664537D01*
X98887185Y-95585185D01*
X98966537Y-95488494D01*
X99025502Y-95378180D01*
X99061812Y-95258482D01*
X99074072Y-95134000D01*
X102601928Y-95134000D01*
X102614188Y-95258482D01*
X102650498Y-95378180D01*
X102709463Y-95488494D01*
X102788815Y-95585185D01*
X102885506Y-95664537D01*
X102995820Y-95723502D01*
X103115518Y-95759812D01*
X103240000Y-95772072D01*
X103854250Y-95769000D01*
X104013000Y-95610250D01*
X104013000Y-94361000D01*
X104267000Y-94361000D01*
X104267000Y-95610250D01*
X104425750Y-95769000D01*
X105040000Y-95772072D01*
X105164482Y-95759812D01*
X105284180Y-95723502D01*
X105394494Y-95664537D01*
X105491185Y-95585185D01*
X105570537Y-95488494D01*
X105629502Y-95378180D01*
X105665812Y-95258482D01*
X105678072Y-95134000D01*
X109205928Y-95134000D01*
X109218188Y-95258482D01*
X109254498Y-95378180D01*
X109313463Y-95488494D01*
X109392815Y-95585185D01*
X109489506Y-95664537D01*
X109599820Y-95723502D01*
X109719518Y-95759812D01*
X109844000Y-95772072D01*
X110458250Y-95769000D01*
X110617000Y-95610250D01*
X110617000Y-94361000D01*
X109367750Y-94361000D01*
X109209000Y-94519750D01*
X109205928Y-95134000D01*
X105678072Y-95134000D01*
X105675000Y-94519750D01*
X105516250Y-94361000D01*
X104267000Y-94361000D01*
X104013000Y-94361000D01*
X102763750Y-94361000D01*
X102605000Y-94519750D01*
X102601928Y-95134000D01*
X99074072Y-95134000D01*
X99071000Y-94519750D01*
X98912250Y-94361000D01*
X97663000Y-94361000D01*
X97409000Y-94361000D01*
X96159750Y-94361000D01*
X96001000Y-94519750D01*
X95997928Y-95134000D01*
X91199961Y-95134000D01*
X91200072Y-95112000D01*
X91187812Y-94987518D01*
X91151502Y-94867820D01*
X91092537Y-94757506D01*
X91013185Y-94660815D01*
X90916494Y-94581463D01*
X90806180Y-94522498D01*
X90686482Y-94486188D01*
X90562000Y-94473928D01*
X89947750Y-94477000D01*
X89789000Y-94635750D01*
X89535000Y-94635750D01*
X89376250Y-94477000D01*
X88762000Y-94473928D01*
X88637518Y-94486188D01*
X88517820Y-94522498D01*
X88407506Y-94581463D01*
X88310815Y-94660815D01*
X88231463Y-94757506D01*
X88172498Y-94867820D01*
X88166944Y-94886127D01*
X88100505Y-94819688D01*
X87849095Y-94651701D01*
X87569743Y-94535989D01*
X87273184Y-94477000D01*
X86970816Y-94477000D01*
X86674257Y-94535989D01*
X86394905Y-94651701D01*
X86356999Y-94677029D01*
X86356999Y-93334000D01*
X95997928Y-93334000D01*
X96001000Y-93948250D01*
X96159750Y-94107000D01*
X97409000Y-94107000D01*
X97409000Y-94087000D01*
X97663000Y-94087000D01*
X97663000Y-94107000D01*
X98912250Y-94107000D01*
X99071000Y-93948250D01*
X99074072Y-93334000D01*
X102601928Y-93334000D01*
X102605000Y-93948250D01*
X102763750Y-94107000D01*
X104013000Y-94107000D01*
X104013000Y-94087000D01*
X104267000Y-94087000D01*
X104267000Y-94107000D01*
X105516250Y-94107000D01*
X105675000Y-93948250D01*
X105678072Y-93334000D01*
X105665812Y-93209518D01*
X105629502Y-93089820D01*
X105570537Y-92979506D01*
X105491185Y-92882815D01*
X105394494Y-92803463D01*
X105284180Y-92744498D01*
X105265873Y-92738944D01*
X105332312Y-92672505D01*
X105500299Y-92421095D01*
X105616011Y-92141743D01*
X105675000Y-91845184D01*
X105675000Y-91542816D01*
X105616011Y-91246257D01*
X105500299Y-90966905D01*
X105332312Y-90715495D01*
X105118505Y-90501688D01*
X104867095Y-90333701D01*
X104587743Y-90217989D01*
X104291184Y-90159000D01*
X103988816Y-90159000D01*
X103692257Y-90217989D01*
X103412905Y-90333701D01*
X103161495Y-90501688D01*
X102947688Y-90715495D01*
X102779701Y-90966905D01*
X102663989Y-91246257D01*
X102605000Y-91542816D01*
X102605000Y-91845184D01*
X102663989Y-92141743D01*
X102779701Y-92421095D01*
X102947688Y-92672505D01*
X103014127Y-92738944D01*
X102995820Y-92744498D01*
X102885506Y-92803463D01*
X102788815Y-92882815D01*
X102709463Y-92979506D01*
X102650498Y-93089820D01*
X102614188Y-93209518D01*
X102601928Y-93334000D01*
X99074072Y-93334000D01*
X99061812Y-93209518D01*
X99025502Y-93089820D01*
X98966537Y-92979506D01*
X98887185Y-92882815D01*
X98790494Y-92803463D01*
X98680180Y-92744498D01*
X98661873Y-92738944D01*
X98728312Y-92672505D01*
X98896299Y-92421095D01*
X99012011Y-92141743D01*
X99071000Y-91845184D01*
X99071000Y-91542816D01*
X99012011Y-91246257D01*
X98896299Y-90966905D01*
X98728312Y-90715495D01*
X98514505Y-90501688D01*
X98263095Y-90333701D01*
X97983743Y-90217989D01*
X97687184Y-90159000D01*
X97384816Y-90159000D01*
X97088257Y-90217989D01*
X96808905Y-90333701D01*
X96557495Y-90501688D01*
X96343688Y-90715495D01*
X96175701Y-90966905D01*
X96059989Y-91246257D01*
X96001000Y-91542816D01*
X96001000Y-91845184D01*
X96059989Y-92141743D01*
X96175701Y-92421095D01*
X96343688Y-92672505D01*
X96410127Y-92738944D01*
X96391820Y-92744498D01*
X96281506Y-92803463D01*
X96184815Y-92882815D01*
X96105463Y-92979506D01*
X96046498Y-93089820D01*
X96010188Y-93209518D01*
X95997928Y-93334000D01*
X86356999Y-93334000D01*
X86356999Y-91215238D01*
X86667427Y-90904811D01*
X86699291Y-90878661D01*
X86803636Y-90751516D01*
X86881172Y-90606457D01*
X86928918Y-90449059D01*
X86941000Y-90326389D01*
X86941000Y-90326388D01*
X86941137Y-90324999D01*
X87125608Y-90173608D01*
X87304932Y-89955101D01*
X87438182Y-89705808D01*
X87520236Y-89435309D01*
X87547943Y-89154000D01*
X89744057Y-89154000D01*
X89771764Y-89435309D01*
X89853818Y-89705808D01*
X89987068Y-89955101D01*
X90166392Y-90173608D01*
X90384899Y-90352932D01*
X90634192Y-90486182D01*
X90904691Y-90568236D01*
X91115508Y-90589000D01*
X91256492Y-90589000D01*
X91467309Y-90568236D01*
X91737808Y-90486182D01*
X91987101Y-90352932D01*
X92205608Y-90173608D01*
X92384932Y-89955101D01*
X92518182Y-89705808D01*
X92600236Y-89435309D01*
X92627943Y-89154000D01*
X92600236Y-88872691D01*
X92518182Y-88602192D01*
X92384932Y-88352899D01*
X92205608Y-88134392D01*
X91987101Y-87955068D01*
X91860971Y-87887650D01*
X91865727Y-87885680D01*
X92100759Y-87728637D01*
X92300637Y-87528759D01*
X92457680Y-87293727D01*
X92565853Y-87032574D01*
X92621000Y-86755335D01*
X92621000Y-86472665D01*
X92565853Y-86195426D01*
X92457680Y-85934273D01*
X92300637Y-85699241D01*
X92100759Y-85499363D01*
X91868242Y-85344000D01*
X93046057Y-85344000D01*
X93073764Y-85625309D01*
X93155818Y-85895808D01*
X93289068Y-86145101D01*
X93468392Y-86363608D01*
X93686899Y-86542932D01*
X93936192Y-86676182D01*
X94206691Y-86758236D01*
X94417508Y-86779000D01*
X94558492Y-86779000D01*
X94769309Y-86758236D01*
X95039808Y-86676182D01*
X95289101Y-86542932D01*
X95507608Y-86363608D01*
X95686932Y-86145101D01*
X95820182Y-85895808D01*
X95902236Y-85625309D01*
X95929943Y-85344000D01*
X95916023Y-85202665D01*
X100673000Y-85202665D01*
X100673000Y-85485335D01*
X100728147Y-85762574D01*
X100836320Y-86023727D01*
X100993363Y-86258759D01*
X101193241Y-86458637D01*
X101428273Y-86615680D01*
X101689426Y-86723853D01*
X101966665Y-86779000D01*
X102249335Y-86779000D01*
X102526574Y-86723853D01*
X102787727Y-86615680D01*
X103022759Y-86458637D01*
X103222637Y-86258759D01*
X103379680Y-86023727D01*
X103487853Y-85762574D01*
X103504308Y-85679849D01*
X103569818Y-85895808D01*
X103703068Y-86145101D01*
X103882392Y-86363608D01*
X104100899Y-86542932D01*
X104350192Y-86676182D01*
X104620691Y-86758236D01*
X104831508Y-86779000D01*
X104972492Y-86779000D01*
X105183309Y-86758236D01*
X105453808Y-86676182D01*
X105703101Y-86542932D01*
X105921608Y-86363608D01*
X106100932Y-86145101D01*
X106234182Y-85895808D01*
X106316236Y-85625309D01*
X106343943Y-85344000D01*
X106330023Y-85202665D01*
X111087000Y-85202665D01*
X111087000Y-85485335D01*
X111142147Y-85762574D01*
X111250320Y-86023727D01*
X111407363Y-86258759D01*
X111607241Y-86458637D01*
X111842273Y-86615680D01*
X112103426Y-86723853D01*
X112380665Y-86779000D01*
X112663335Y-86779000D01*
X112940574Y-86723853D01*
X113201727Y-86615680D01*
X113436759Y-86458637D01*
X113636637Y-86258759D01*
X113793680Y-86023727D01*
X113901853Y-85762574D01*
X113918308Y-85679849D01*
X113983818Y-85895808D01*
X114117068Y-86145101D01*
X114296392Y-86363608D01*
X114514899Y-86542932D01*
X114764192Y-86676182D01*
X115034691Y-86758236D01*
X115245508Y-86779000D01*
X115386492Y-86779000D01*
X115597309Y-86758236D01*
X115867808Y-86676182D01*
X116117101Y-86542932D01*
X116335608Y-86363608D01*
X116514932Y-86145101D01*
X116648182Y-85895808D01*
X116730236Y-85625309D01*
X116757943Y-85344000D01*
X116744023Y-85202665D01*
X121501000Y-85202665D01*
X121501000Y-85485335D01*
X121556147Y-85762574D01*
X121664320Y-86023727D01*
X121821363Y-86258759D01*
X122021241Y-86458637D01*
X122256273Y-86615680D01*
X122517426Y-86723853D01*
X122794665Y-86779000D01*
X123077335Y-86779000D01*
X123354574Y-86723853D01*
X123615727Y-86615680D01*
X123850759Y-86458637D01*
X124050637Y-86258759D01*
X124207680Y-86023727D01*
X124315853Y-85762574D01*
X124371000Y-85485335D01*
X124371000Y-85202665D01*
X124315853Y-84925426D01*
X124207680Y-84664273D01*
X124050637Y-84429241D01*
X123850759Y-84229363D01*
X123615727Y-84072320D01*
X123354574Y-83964147D01*
X123077335Y-83909000D01*
X122794665Y-83909000D01*
X122517426Y-83964147D01*
X122256273Y-84072320D01*
X122021241Y-84229363D01*
X121821363Y-84429241D01*
X121664320Y-84664273D01*
X121556147Y-84925426D01*
X121501000Y-85202665D01*
X116744023Y-85202665D01*
X116730236Y-85062691D01*
X116648182Y-84792192D01*
X116514932Y-84542899D01*
X116335608Y-84324392D01*
X116117101Y-84145068D01*
X115867808Y-84011818D01*
X115597309Y-83929764D01*
X115386492Y-83909000D01*
X115245508Y-83909000D01*
X115034691Y-83929764D01*
X114764192Y-84011818D01*
X114514899Y-84145068D01*
X114296392Y-84324392D01*
X114117068Y-84542899D01*
X113983818Y-84792192D01*
X113918308Y-85008151D01*
X113901853Y-84925426D01*
X113793680Y-84664273D01*
X113636637Y-84429241D01*
X113436759Y-84229363D01*
X113201727Y-84072320D01*
X112940574Y-83964147D01*
X112663335Y-83909000D01*
X112380665Y-83909000D01*
X112103426Y-83964147D01*
X111842273Y-84072320D01*
X111607241Y-84229363D01*
X111407363Y-84429241D01*
X111250320Y-84664273D01*
X111142147Y-84925426D01*
X111087000Y-85202665D01*
X106330023Y-85202665D01*
X106316236Y-85062691D01*
X106234182Y-84792192D01*
X106100932Y-84542899D01*
X105921608Y-84324392D01*
X105703101Y-84145068D01*
X105453808Y-84011818D01*
X105183309Y-83929764D01*
X104972492Y-83909000D01*
X104831508Y-83909000D01*
X104620691Y-83929764D01*
X104350192Y-84011818D01*
X104100899Y-84145068D01*
X103882392Y-84324392D01*
X103703068Y-84542899D01*
X103569818Y-84792192D01*
X103504308Y-85008151D01*
X103487853Y-84925426D01*
X103379680Y-84664273D01*
X103222637Y-84429241D01*
X103022759Y-84229363D01*
X102787727Y-84072320D01*
X102526574Y-83964147D01*
X102249335Y-83909000D01*
X101966665Y-83909000D01*
X101689426Y-83964147D01*
X101428273Y-84072320D01*
X101193241Y-84229363D01*
X100993363Y-84429241D01*
X100836320Y-84664273D01*
X100728147Y-84925426D01*
X100673000Y-85202665D01*
X95916023Y-85202665D01*
X95902236Y-85062691D01*
X95820182Y-84792192D01*
X95686932Y-84542899D01*
X95507608Y-84324392D01*
X95289101Y-84145068D01*
X95039808Y-84011818D01*
X94769309Y-83929764D01*
X94558492Y-83909000D01*
X94417508Y-83909000D01*
X94206691Y-83929764D01*
X93936192Y-84011818D01*
X93686899Y-84145068D01*
X93468392Y-84324392D01*
X93289068Y-84542899D01*
X93155818Y-84792192D01*
X93073764Y-85062691D01*
X93046057Y-85344000D01*
X91868242Y-85344000D01*
X91865727Y-85342320D01*
X91604574Y-85234147D01*
X91327335Y-85179000D01*
X91044665Y-85179000D01*
X90767426Y-85234147D01*
X90506273Y-85342320D01*
X90271241Y-85499363D01*
X90071363Y-85699241D01*
X89914320Y-85934273D01*
X89806147Y-86195426D01*
X89751000Y-86472665D01*
X89751000Y-86755335D01*
X89806147Y-87032574D01*
X89914320Y-87293727D01*
X90071363Y-87528759D01*
X90271241Y-87728637D01*
X90506273Y-87885680D01*
X90511029Y-87887650D01*
X90384899Y-87955068D01*
X90166392Y-88134392D01*
X89987068Y-88352899D01*
X89853818Y-88602192D01*
X89771764Y-88872691D01*
X89744057Y-89154000D01*
X87547943Y-89154000D01*
X87520236Y-88872691D01*
X87438182Y-88602192D01*
X87304932Y-88352899D01*
X87125608Y-88134392D01*
X86907101Y-87955068D01*
X86780971Y-87887650D01*
X86785727Y-87885680D01*
X87020759Y-87728637D01*
X87220637Y-87528759D01*
X87377680Y-87293727D01*
X87485853Y-87032574D01*
X87541000Y-86755335D01*
X87541000Y-86472665D01*
X87485853Y-86195426D01*
X87377680Y-85934273D01*
X87220637Y-85699241D01*
X87020759Y-85499363D01*
X86785727Y-85342320D01*
X86524574Y-85234147D01*
X86247335Y-85179000D01*
X85964665Y-85179000D01*
X85687426Y-85234147D01*
X85426273Y-85342320D01*
X85191241Y-85499363D01*
X84991363Y-85699241D01*
X84834320Y-85934273D01*
X84726147Y-86195426D01*
X84671000Y-86472665D01*
X84671000Y-86755335D01*
X84726147Y-87032574D01*
X84834320Y-87293727D01*
X84991363Y-87528759D01*
X85191241Y-87728637D01*
X85426273Y-87885680D01*
X85431029Y-87887650D01*
X85304899Y-87955068D01*
X85086392Y-88134392D01*
X84907068Y-88352899D01*
X84773818Y-88602192D01*
X84691764Y-88872691D01*
X84664057Y-89154000D01*
X84691764Y-89435309D01*
X84773818Y-89705808D01*
X84907068Y-89955101D01*
X85064081Y-90146422D01*
X84960573Y-90249930D01*
X84928709Y-90276080D01*
X84887422Y-90326389D01*
X84824363Y-90403226D01*
X84746827Y-90548285D01*
X84699081Y-90705683D01*
X84682959Y-90869371D01*
X84687000Y-90910400D01*
X84686999Y-100201149D01*
X84621101Y-100147068D01*
X84371808Y-100013818D01*
X84101309Y-99931764D01*
X83890492Y-99911000D01*
X83749508Y-99911000D01*
X83538691Y-99931764D01*
X83268192Y-100013818D01*
X83018899Y-100147068D01*
X82800392Y-100326392D01*
X82621068Y-100544899D01*
X82487818Y-100794192D01*
X82405764Y-101064691D01*
X82378057Y-101346000D01*
X81144072Y-101346000D01*
X81144072Y-100088000D01*
X81131812Y-99963518D01*
X81095502Y-99843820D01*
X81036537Y-99733506D01*
X80957185Y-99636815D01*
X80860494Y-99557463D01*
X80750180Y-99498498D01*
X80630482Y-99462188D01*
X80506000Y-99449928D01*
X79006000Y-99449928D01*
X78881518Y-99462188D01*
X78761820Y-99498498D01*
X78651506Y-99557463D01*
X78554815Y-99636815D01*
X78475463Y-99733506D01*
X78416498Y-99843820D01*
X78380188Y-99963518D01*
X78367928Y-100088000D01*
X76860000Y-100088000D01*
X76860000Y-93638000D01*
X78521928Y-93638000D01*
X78521928Y-95338000D01*
X78534188Y-95462482D01*
X78570498Y-95582180D01*
X78629463Y-95692494D01*
X78708815Y-95789185D01*
X78805506Y-95868537D01*
X78915820Y-95927502D01*
X79035518Y-95963812D01*
X79160000Y-95976072D01*
X80860000Y-95976072D01*
X80984482Y-95963812D01*
X81104180Y-95927502D01*
X81214494Y-95868537D01*
X81311185Y-95789185D01*
X81390537Y-95692494D01*
X81449502Y-95582180D01*
X81485812Y-95462482D01*
X81498072Y-95338000D01*
X81498072Y-93638000D01*
X81485812Y-93513518D01*
X81449502Y-93393820D01*
X81390537Y-93283506D01*
X81311185Y-93186815D01*
X81214494Y-93107463D01*
X81104180Y-93048498D01*
X81028374Y-93025502D01*
X81205178Y-92829355D01*
X81354157Y-92579252D01*
X81451481Y-92304891D01*
X81330814Y-92075000D01*
X80137000Y-92075000D01*
X80137000Y-92095000D01*
X79883000Y-92095000D01*
X79883000Y-92075000D01*
X78689186Y-92075000D01*
X78568519Y-92304891D01*
X78665843Y-92579252D01*
X78814822Y-92829355D01*
X78991626Y-93025502D01*
X78915820Y-93048498D01*
X78805506Y-93107463D01*
X78708815Y-93186815D01*
X78629463Y-93283506D01*
X78570498Y-93393820D01*
X78534188Y-93513518D01*
X78521928Y-93638000D01*
X76860000Y-93638000D01*
X76860000Y-91591109D01*
X78568519Y-91591109D01*
X78689186Y-91821000D01*
X79883000Y-91821000D01*
X79883000Y-90627845D01*
X80137000Y-90627845D01*
X80137000Y-91821000D01*
X81330814Y-91821000D01*
X81451481Y-91591109D01*
X81354157Y-91316748D01*
X81205178Y-91066645D01*
X81010269Y-90850412D01*
X80776920Y-90676359D01*
X80514099Y-90551175D01*
X80366890Y-90506524D01*
X80137000Y-90627845D01*
X79883000Y-90627845D01*
X79653110Y-90506524D01*
X79505901Y-90551175D01*
X79243080Y-90676359D01*
X79009731Y-90850412D01*
X78814822Y-91066645D01*
X78665843Y-91316748D01*
X78568519Y-91591109D01*
X76860000Y-91591109D01*
X76860000Y-85725000D01*
X83312000Y-85725000D01*
X83336776Y-85722560D01*
X83360601Y-85715333D01*
X83382557Y-85703597D01*
X83401803Y-85687803D01*
X83417597Y-85668557D01*
X83429333Y-85646601D01*
X83436560Y-85622776D01*
X83439000Y-85598000D01*
X83439000Y-83312000D01*
X84613815Y-83312000D01*
X84642487Y-83603111D01*
X84727401Y-83883034D01*
X84865294Y-84141014D01*
X85050866Y-84367134D01*
X85276986Y-84552706D01*
X85534966Y-84690599D01*
X85814889Y-84775513D01*
X86033050Y-84797000D01*
X86178950Y-84797000D01*
X86397111Y-84775513D01*
X86677034Y-84690599D01*
X86935014Y-84552706D01*
X87161134Y-84367134D01*
X87346706Y-84141014D01*
X87381201Y-84076477D01*
X87450822Y-84193355D01*
X87645731Y-84409588D01*
X87879080Y-84583641D01*
X88141901Y-84708825D01*
X88289110Y-84753476D01*
X88519000Y-84632155D01*
X88519000Y-83439000D01*
X88499000Y-83439000D01*
X88499000Y-83185000D01*
X88519000Y-83185000D01*
X88519000Y-81991845D01*
X88773000Y-81991845D01*
X88773000Y-83185000D01*
X88793000Y-83185000D01*
X88793000Y-83439000D01*
X88773000Y-83439000D01*
X88773000Y-84632155D01*
X89002890Y-84753476D01*
X89150099Y-84708825D01*
X89412920Y-84583641D01*
X89646269Y-84409588D01*
X89722034Y-84325534D01*
X89746498Y-84406180D01*
X89805463Y-84516494D01*
X89884815Y-84613185D01*
X89981506Y-84692537D01*
X90091820Y-84751502D01*
X90211518Y-84787812D01*
X90336000Y-84800072D01*
X92036000Y-84800072D01*
X92160482Y-84787812D01*
X92280180Y-84751502D01*
X92390494Y-84692537D01*
X92487185Y-84613185D01*
X92566537Y-84516494D01*
X92625502Y-84406180D01*
X92661812Y-84286482D01*
X92674072Y-84162000D01*
X92674072Y-83654000D01*
X129321928Y-83654000D01*
X129334188Y-83778482D01*
X129370498Y-83898180D01*
X129429463Y-84008494D01*
X129508815Y-84105185D01*
X129605506Y-84184537D01*
X129715820Y-84243502D01*
X129835518Y-84279812D01*
X129960000Y-84292072D01*
X130524250Y-84289000D01*
X130683000Y-84130250D01*
X130683000Y-82931000D01*
X129483750Y-82931000D01*
X129325000Y-83089750D01*
X129321928Y-83654000D01*
X92674072Y-83654000D01*
X92674072Y-82462000D01*
X92661812Y-82337518D01*
X92625502Y-82217820D01*
X92566537Y-82107506D01*
X92487185Y-82010815D01*
X92417956Y-81954000D01*
X129321928Y-81954000D01*
X129325000Y-82518250D01*
X129483750Y-82677000D01*
X130683000Y-82677000D01*
X130683000Y-81477750D01*
X130524250Y-81319000D01*
X129960000Y-81315928D01*
X129835518Y-81328188D01*
X129715820Y-81364498D01*
X129605506Y-81423463D01*
X129508815Y-81502815D01*
X129429463Y-81599506D01*
X129370498Y-81709820D01*
X129334188Y-81829518D01*
X129321928Y-81954000D01*
X92417956Y-81954000D01*
X92390494Y-81931463D01*
X92280180Y-81872498D01*
X92160482Y-81836188D01*
X92036000Y-81823928D01*
X90336000Y-81823928D01*
X90211518Y-81836188D01*
X90091820Y-81872498D01*
X89981506Y-81931463D01*
X89884815Y-82010815D01*
X89805463Y-82107506D01*
X89746498Y-82217820D01*
X89722034Y-82298466D01*
X89646269Y-82214412D01*
X89412920Y-82040359D01*
X89150099Y-81915175D01*
X89002890Y-81870524D01*
X88773000Y-81991845D01*
X88519000Y-81991845D01*
X88289110Y-81870524D01*
X88141901Y-81915175D01*
X87879080Y-82040359D01*
X87645731Y-82214412D01*
X87450822Y-82430645D01*
X87381201Y-82547523D01*
X87346706Y-82482986D01*
X87161134Y-82256866D01*
X86935014Y-82071294D01*
X86677034Y-81933401D01*
X86397111Y-81848487D01*
X86178950Y-81827000D01*
X86033050Y-81827000D01*
X85814889Y-81848487D01*
X85534966Y-81933401D01*
X85276986Y-82071294D01*
X85050866Y-82256866D01*
X84865294Y-82482986D01*
X84727401Y-82740966D01*
X84642487Y-83020889D01*
X84613815Y-83312000D01*
X83439000Y-83312000D01*
X83439000Y-78892000D01*
X138811000Y-78892000D01*
X138811000Y-85090000D01*
G36*
X134945068Y-104687101D02*
G01*
X135124392Y-104905608D01*
X135309000Y-105057112D01*
X135309000Y-105058388D01*
X135309001Y-105058398D01*
X135309000Y-106342134D01*
X132981946Y-108669189D01*
X133013481Y-108609109D01*
X132916157Y-108334748D01*
X132767178Y-108084645D01*
X132572269Y-107868412D01*
X132338920Y-107694359D01*
X132076099Y-107569175D01*
X131928890Y-107524524D01*
X131699000Y-107645845D01*
X131699000Y-108839000D01*
X131719000Y-108839000D01*
X131719000Y-109093000D01*
X131699000Y-109093000D01*
X131699000Y-109113000D01*
X131445000Y-109113000D01*
X131445000Y-109093000D01*
X131425000Y-109093000D01*
X131425000Y-108839000D01*
X131445000Y-108839000D01*
X131445000Y-107645845D01*
X131215110Y-107524524D01*
X131067901Y-107569175D01*
X130805080Y-107694359D01*
X130571731Y-107868412D01*
X130376822Y-108084645D01*
X130307201Y-108201523D01*
X130272706Y-108136986D01*
X130087134Y-107910866D01*
X129867000Y-107730207D01*
X129867000Y-106975018D01*
X129871040Y-106934000D01*
X129864433Y-106866913D01*
X129854918Y-106770311D01*
X129807172Y-106612913D01*
X129729636Y-106467854D01*
X129697765Y-106429019D01*
X129651439Y-106372570D01*
X129651437Y-106372568D01*
X129625291Y-106340709D01*
X129593432Y-106314563D01*
X128599386Y-105320518D01*
X128805309Y-105300236D01*
X129075808Y-105218182D01*
X129325101Y-105084932D01*
X129543608Y-104905608D01*
X129722932Y-104687101D01*
X129794000Y-104554142D01*
X129865068Y-104687101D01*
X130044392Y-104905608D01*
X130262899Y-105084932D01*
X130512192Y-105218182D01*
X130782691Y-105300236D01*
X130993508Y-105321000D01*
X131134492Y-105321000D01*
X131345309Y-105300236D01*
X131615808Y-105218182D01*
X131865101Y-105084932D01*
X132083608Y-104905608D01*
X132262932Y-104687101D01*
X132334000Y-104554142D01*
X132405068Y-104687101D01*
X132584392Y-104905608D01*
X132802899Y-105084932D01*
X133052192Y-105218182D01*
X133322691Y-105300236D01*
X133533508Y-105321000D01*
X133674492Y-105321000D01*
X133885309Y-105300236D01*
X134155808Y-105218182D01*
X134405101Y-105084932D01*
X134623608Y-104905608D01*
X134802932Y-104687101D01*
X134874000Y-104554142D01*
X134945068Y-104687101D01*
X134945068Y-104687101D01*
G37*
X134945068Y-104687101D02*
X135124392Y-104905608D01*
X135309000Y-105057112D01*
X135309000Y-105058388D01*
X135309001Y-105058398D01*
X135309000Y-106342134D01*
X132981946Y-108669189D01*
X133013481Y-108609109D01*
X132916157Y-108334748D01*
X132767178Y-108084645D01*
X132572269Y-107868412D01*
X132338920Y-107694359D01*
X132076099Y-107569175D01*
X131928890Y-107524524D01*
X131699000Y-107645845D01*
X131699000Y-108839000D01*
X131719000Y-108839000D01*
X131719000Y-109093000D01*
X131699000Y-109093000D01*
X131699000Y-109113000D01*
X131445000Y-109113000D01*
X131445000Y-109093000D01*
X131425000Y-109093000D01*
X131425000Y-108839000D01*
X131445000Y-108839000D01*
X131445000Y-107645845D01*
X131215110Y-107524524D01*
X131067901Y-107569175D01*
X130805080Y-107694359D01*
X130571731Y-107868412D01*
X130376822Y-108084645D01*
X130307201Y-108201523D01*
X130272706Y-108136986D01*
X130087134Y-107910866D01*
X129867000Y-107730207D01*
X129867000Y-106975018D01*
X129871040Y-106934000D01*
X129864433Y-106866913D01*
X129854918Y-106770311D01*
X129807172Y-106612913D01*
X129729636Y-106467854D01*
X129697765Y-106429019D01*
X129651439Y-106372570D01*
X129651437Y-106372568D01*
X129625291Y-106340709D01*
X129593432Y-106314563D01*
X128599386Y-105320518D01*
X128805309Y-105300236D01*
X129075808Y-105218182D01*
X129325101Y-105084932D01*
X129543608Y-104905608D01*
X129722932Y-104687101D01*
X129794000Y-104554142D01*
X129865068Y-104687101D01*
X130044392Y-104905608D01*
X130262899Y-105084932D01*
X130512192Y-105218182D01*
X130782691Y-105300236D01*
X130993508Y-105321000D01*
X131134492Y-105321000D01*
X131345309Y-105300236D01*
X131615808Y-105218182D01*
X131865101Y-105084932D01*
X132083608Y-104905608D01*
X132262932Y-104687101D01*
X132334000Y-104554142D01*
X132405068Y-104687101D01*
X132584392Y-104905608D01*
X132802899Y-105084932D01*
X133052192Y-105218182D01*
X133322691Y-105300236D01*
X133533508Y-105321000D01*
X133674492Y-105321000D01*
X133885309Y-105300236D01*
X134155808Y-105218182D01*
X134405101Y-105084932D01*
X134623608Y-104905608D01*
X134802932Y-104687101D01*
X134874000Y-104554142D01*
X134945068Y-104687101D01*
M02*
