G04 #@! TF.GenerationSoftware,KiCad,Pcbnew,(5.1.0)-1*
G04 #@! TF.CreationDate,2020-10-23T23:32:42+03:00*
G04 #@! TF.ProjectId,kitchen_sink,6b697463-6865-46e5-9f73-696e6b2e6b69,rev?*
G04 #@! TF.SameCoordinates,Original*
G04 #@! TF.FileFunction,Legend,Top*
G04 #@! TF.FilePolarity,Positive*
%FSLAX46Y46*%
G04 Gerber Fmt 4.6, Leading zero omitted, Abs format (unit mm)*
G04 Created by KiCad (PCBNEW (5.1.0)-1) date 2020-10-23 23:32:42*
%MOMM*%
%LPD*%
G04 APERTURE LIST*
%ADD10C,0.120000*%
%ADD11C,0.150000*%
G04 APERTURE END LIST*
D10*
X122396000Y-86384000D02*
X122396000Y-86714000D01*
X122396000Y-86714000D02*
X115856000Y-86714000D01*
X115856000Y-86714000D02*
X115856000Y-86384000D01*
X122396000Y-84304000D02*
X122396000Y-83974000D01*
X122396000Y-83974000D02*
X115856000Y-83974000D01*
X115856000Y-83974000D02*
X115856000Y-84304000D01*
X81340000Y-90618000D02*
X81340000Y-93218000D01*
X81340000Y-90618000D02*
X78680000Y-90618000D01*
X78680000Y-90618000D02*
X78680000Y-95818000D01*
X78740000Y-95818000D02*
X78680000Y-95818000D01*
X78740000Y-93218000D02*
X78740000Y-95818000D01*
X81340000Y-93218000D02*
X78740000Y-93218000D01*
X81340000Y-95818000D02*
X80010000Y-95818000D01*
X81340000Y-94488000D02*
X81340000Y-95818000D01*
X86106000Y-87984000D02*
X86106000Y-88054000D01*
X87476000Y-86614000D02*
G75*
G03X87476000Y-86614000I-1370000J0D01*
G01*
X91186000Y-87984000D02*
X91186000Y-88054000D01*
X92556000Y-86614000D02*
G75*
G03X92556000Y-86614000I-1370000J0D01*
G01*
X129480000Y-82804000D02*
X129480000Y-81474000D01*
X129480000Y-81474000D02*
X130810000Y-81474000D01*
X132080000Y-81474000D02*
X134680000Y-81474000D01*
X134680000Y-84134000D02*
X134680000Y-81474000D01*
X132080000Y-84134000D02*
X134680000Y-84134000D01*
X132080000Y-84134000D02*
X132080000Y-81474000D01*
X95028000Y-83974000D02*
X95028000Y-84304000D01*
X101568000Y-83974000D02*
X95028000Y-83974000D01*
X101568000Y-84304000D02*
X101568000Y-83974000D01*
X95028000Y-86714000D02*
X95028000Y-86384000D01*
X101568000Y-86714000D02*
X95028000Y-86714000D01*
X101568000Y-86384000D02*
X101568000Y-86714000D01*
X122396000Y-108228000D02*
X122396000Y-108558000D01*
X122396000Y-108558000D02*
X115856000Y-108558000D01*
X115856000Y-108558000D02*
X115856000Y-108228000D01*
X122396000Y-106148000D02*
X122396000Y-105818000D01*
X122396000Y-105818000D02*
X115856000Y-105818000D01*
X115856000Y-105818000D02*
X115856000Y-106148000D01*
X105442000Y-83974000D02*
X105442000Y-84304000D01*
X111982000Y-83974000D02*
X105442000Y-83974000D01*
X111982000Y-84304000D02*
X111982000Y-83974000D01*
X105442000Y-86714000D02*
X105442000Y-86384000D01*
X111982000Y-86714000D02*
X105442000Y-86714000D01*
X111982000Y-86384000D02*
X111982000Y-86714000D01*
X111982000Y-108228000D02*
X111982000Y-108558000D01*
X111982000Y-108558000D02*
X105442000Y-108558000D01*
X105442000Y-108558000D02*
X105442000Y-108228000D01*
X111982000Y-106148000D02*
X111982000Y-105818000D01*
X111982000Y-105818000D02*
X105442000Y-105818000D01*
X105442000Y-105818000D02*
X105442000Y-106148000D01*
X95028000Y-105818000D02*
X95028000Y-106148000D01*
X101568000Y-105818000D02*
X95028000Y-105818000D01*
X101568000Y-106148000D02*
X101568000Y-105818000D01*
X95028000Y-108558000D02*
X95028000Y-108228000D01*
X101568000Y-108558000D02*
X95028000Y-108558000D01*
X101568000Y-108228000D02*
X101568000Y-108558000D01*
X90900000Y-108482000D02*
X90900000Y-108812000D01*
X90900000Y-108812000D02*
X84360000Y-108812000D01*
X84360000Y-108812000D02*
X84360000Y-108482000D01*
X90900000Y-106402000D02*
X90900000Y-106072000D01*
X90900000Y-106072000D02*
X84360000Y-106072000D01*
X84360000Y-106072000D02*
X84360000Y-106402000D01*
X78633205Y-105702184D02*
G75*
G02X77906000Y-105178000I1122795J2324184D01*
G01*
X80854807Y-105734400D02*
G75*
G03X82356000Y-103378000I-1098807J2356400D01*
G01*
X80854807Y-101021600D02*
G75*
G02X82356000Y-103378000I-1098807J-2356400D01*
G01*
X78633205Y-101053816D02*
G75*
G03X77906000Y-101578000I1122795J-2324184D01*
G01*
X77906000Y-101578000D02*
X77906000Y-105178000D01*
X145094000Y-97266000D02*
G75*
G02X145094000Y-95266000I0J1000000D01*
G01*
X145094000Y-95266000D02*
X145094000Y-89806000D01*
X145094000Y-89806000D02*
X114494000Y-89806000D01*
X114494000Y-89806000D02*
X114494000Y-102726000D01*
X114494000Y-102726000D02*
X145094000Y-102726000D01*
X145094000Y-102726000D02*
X145094000Y-97266000D01*
X145154000Y-87316000D02*
X114434000Y-87316000D01*
X114434000Y-87316000D02*
X114434000Y-105216000D01*
X114434000Y-105216000D02*
X145154000Y-105216000D01*
X145154000Y-105216000D02*
X145154000Y-87316000D01*
X89916000Y-81982000D02*
X89916000Y-84642000D01*
X89916000Y-81982000D02*
X84776000Y-81982000D01*
X84776000Y-81982000D02*
X84776000Y-84642000D01*
X89916000Y-84642000D02*
X84776000Y-84642000D01*
X92516000Y-84642000D02*
X91186000Y-84642000D01*
X92516000Y-83312000D02*
X92516000Y-84642000D01*
X125162000Y-108966000D02*
X125162000Y-107636000D01*
X125162000Y-107636000D02*
X126492000Y-107636000D01*
X127762000Y-107636000D02*
X132902000Y-107636000D01*
X132902000Y-110296000D02*
X132902000Y-107636000D01*
X127762000Y-110296000D02*
X132902000Y-110296000D01*
X127762000Y-110296000D02*
X127762000Y-107636000D01*
X90900000Y-105764000D02*
X90900000Y-105434000D01*
X84360000Y-105764000D02*
X90900000Y-105764000D01*
X84360000Y-105434000D02*
X84360000Y-105764000D01*
X90900000Y-103024000D02*
X90900000Y-103354000D01*
X84360000Y-103024000D02*
X90900000Y-103024000D01*
X84360000Y-103354000D02*
X84360000Y-103024000D01*
X90900000Y-102386000D02*
X90900000Y-102716000D01*
X90900000Y-102716000D02*
X84360000Y-102716000D01*
X84360000Y-102716000D02*
X84360000Y-102386000D01*
X90900000Y-100306000D02*
X90900000Y-99976000D01*
X90900000Y-99976000D02*
X84360000Y-99976000D01*
X84360000Y-99976000D02*
X84360000Y-100306000D01*
D11*
X118967333Y-85796380D02*
X118634000Y-85320190D01*
X118395904Y-85796380D02*
X118395904Y-84796380D01*
X118776857Y-84796380D01*
X118872095Y-84844000D01*
X118919714Y-84891619D01*
X118967333Y-84986857D01*
X118967333Y-85129714D01*
X118919714Y-85224952D01*
X118872095Y-85272571D01*
X118776857Y-85320190D01*
X118395904Y-85320190D01*
X119729238Y-85272571D02*
X119872095Y-85320190D01*
X119919714Y-85367809D01*
X119967333Y-85463047D01*
X119967333Y-85605904D01*
X119919714Y-85701142D01*
X119872095Y-85748761D01*
X119776857Y-85796380D01*
X119395904Y-85796380D01*
X119395904Y-84796380D01*
X119729238Y-84796380D01*
X119824476Y-84844000D01*
X119872095Y-84891619D01*
X119919714Y-84986857D01*
X119919714Y-85082095D01*
X119872095Y-85177333D01*
X119824476Y-85224952D01*
X119729238Y-85272571D01*
X119395904Y-85272571D01*
X120919714Y-85796380D02*
X120348285Y-85796380D01*
X120634000Y-85796380D02*
X120634000Y-84796380D01*
X120538761Y-84939238D01*
X120443523Y-85034476D01*
X120348285Y-85082095D01*
X81748380Y-94479904D02*
X82462666Y-94479904D01*
X82605523Y-94527523D01*
X82700761Y-94622761D01*
X82748380Y-94765619D01*
X82748380Y-94860857D01*
X82224571Y-93670380D02*
X82272190Y-93527523D01*
X82319809Y-93479904D01*
X82415047Y-93432285D01*
X82557904Y-93432285D01*
X82653142Y-93479904D01*
X82700761Y-93527523D01*
X82748380Y-93622761D01*
X82748380Y-94003714D01*
X81748380Y-94003714D01*
X81748380Y-93670380D01*
X81796000Y-93575142D01*
X81843619Y-93527523D01*
X81938857Y-93479904D01*
X82034095Y-93479904D01*
X82129333Y-93527523D01*
X82176952Y-93575142D01*
X82224571Y-93670380D01*
X82224571Y-94003714D01*
X82462666Y-93051333D02*
X82462666Y-92575142D01*
X82748380Y-93146571D02*
X81748380Y-92813238D01*
X82748380Y-92479904D01*
X82748380Y-91622761D02*
X82748380Y-92194190D01*
X82748380Y-91908476D02*
X81748380Y-91908476D01*
X81891238Y-92003714D01*
X81986476Y-92098952D01*
X82034095Y-92194190D01*
X84526380Y-90233238D02*
X84050190Y-90566571D01*
X84526380Y-90804666D02*
X83526380Y-90804666D01*
X83526380Y-90423714D01*
X83574000Y-90328476D01*
X83621619Y-90280857D01*
X83716857Y-90233238D01*
X83859714Y-90233238D01*
X83954952Y-90280857D01*
X84002571Y-90328476D01*
X84050190Y-90423714D01*
X84050190Y-90804666D01*
X84526380Y-89804666D02*
X83526380Y-89804666D01*
X84240666Y-89471333D01*
X83526380Y-89138000D01*
X84526380Y-89138000D01*
X84526380Y-88661809D02*
X83526380Y-88661809D01*
X84526380Y-88185619D02*
X83526380Y-88185619D01*
X83526380Y-87947523D01*
X83574000Y-87804666D01*
X83669238Y-87709428D01*
X83764476Y-87661809D01*
X83954952Y-87614190D01*
X84097809Y-87614190D01*
X84288285Y-87661809D01*
X84383523Y-87709428D01*
X84478761Y-87804666D01*
X84526380Y-87947523D01*
X84526380Y-88185619D01*
X84526380Y-87185619D02*
X83526380Y-87185619D01*
X84621619Y-86947523D02*
X84621619Y-86185619D01*
X83621619Y-85995142D02*
X83574000Y-85947523D01*
X83526380Y-85852285D01*
X83526380Y-85614190D01*
X83574000Y-85518952D01*
X83621619Y-85471333D01*
X83716857Y-85423714D01*
X83812095Y-85423714D01*
X83954952Y-85471333D01*
X84526380Y-86042761D01*
X84526380Y-85423714D01*
X89606380Y-90741238D02*
X89130190Y-91074571D01*
X89606380Y-91312666D02*
X88606380Y-91312666D01*
X88606380Y-90931714D01*
X88654000Y-90836476D01*
X88701619Y-90788857D01*
X88796857Y-90741238D01*
X88939714Y-90741238D01*
X89034952Y-90788857D01*
X89082571Y-90836476D01*
X89130190Y-90931714D01*
X89130190Y-91312666D01*
X89606380Y-90312666D02*
X88606380Y-90312666D01*
X89320666Y-89979333D01*
X88606380Y-89646000D01*
X89606380Y-89646000D01*
X89606380Y-89169809D02*
X88606380Y-89169809D01*
X89606380Y-88693619D02*
X88606380Y-88693619D01*
X88606380Y-88455523D01*
X88654000Y-88312666D01*
X88749238Y-88217428D01*
X88844476Y-88169809D01*
X89034952Y-88122190D01*
X89177809Y-88122190D01*
X89368285Y-88169809D01*
X89463523Y-88217428D01*
X89558761Y-88312666D01*
X89606380Y-88455523D01*
X89606380Y-88693619D01*
X89606380Y-87693619D02*
X88606380Y-87693619D01*
X89701619Y-87455523D02*
X89701619Y-86693619D01*
X89606380Y-85931714D02*
X89606380Y-86503142D01*
X89606380Y-86217428D02*
X88606380Y-86217428D01*
X88749238Y-86312666D01*
X88844476Y-86407904D01*
X88892095Y-86503142D01*
X130516476Y-79716380D02*
X130516476Y-80430666D01*
X130468857Y-80573523D01*
X130373619Y-80668761D01*
X130230761Y-80716380D01*
X130135523Y-80716380D01*
X131326000Y-80192571D02*
X131468857Y-80240190D01*
X131516476Y-80287809D01*
X131564095Y-80383047D01*
X131564095Y-80525904D01*
X131516476Y-80621142D01*
X131468857Y-80668761D01*
X131373619Y-80716380D01*
X130992666Y-80716380D01*
X130992666Y-79716380D01*
X131326000Y-79716380D01*
X131421238Y-79764000D01*
X131468857Y-79811619D01*
X131516476Y-79906857D01*
X131516476Y-80002095D01*
X131468857Y-80097333D01*
X131421238Y-80144952D01*
X131326000Y-80192571D01*
X130992666Y-80192571D01*
X131945047Y-80668761D02*
X132087904Y-80716380D01*
X132326000Y-80716380D01*
X132421238Y-80668761D01*
X132468857Y-80621142D01*
X132516476Y-80525904D01*
X132516476Y-80430666D01*
X132468857Y-80335428D01*
X132421238Y-80287809D01*
X132326000Y-80240190D01*
X132135523Y-80192571D01*
X132040285Y-80144952D01*
X131992666Y-80097333D01*
X131945047Y-80002095D01*
X131945047Y-79906857D01*
X131992666Y-79811619D01*
X132040285Y-79764000D01*
X132135523Y-79716380D01*
X132373619Y-79716380D01*
X132516476Y-79764000D01*
X133468857Y-80716380D02*
X132897428Y-80716380D01*
X133183142Y-80716380D02*
X133183142Y-79716380D01*
X133087904Y-79859238D01*
X132992666Y-79954476D01*
X132897428Y-80002095D01*
X98139333Y-85796380D02*
X97806000Y-85320190D01*
X97567904Y-85796380D02*
X97567904Y-84796380D01*
X97948857Y-84796380D01*
X98044095Y-84844000D01*
X98091714Y-84891619D01*
X98139333Y-84986857D01*
X98139333Y-85129714D01*
X98091714Y-85224952D01*
X98044095Y-85272571D01*
X97948857Y-85320190D01*
X97567904Y-85320190D01*
X98901238Y-85272571D02*
X99044095Y-85320190D01*
X99091714Y-85367809D01*
X99139333Y-85463047D01*
X99139333Y-85605904D01*
X99091714Y-85701142D01*
X99044095Y-85748761D01*
X98948857Y-85796380D01*
X98567904Y-85796380D01*
X98567904Y-84796380D01*
X98901238Y-84796380D01*
X98996476Y-84844000D01*
X99044095Y-84891619D01*
X99091714Y-84986857D01*
X99091714Y-85082095D01*
X99044095Y-85177333D01*
X98996476Y-85224952D01*
X98901238Y-85272571D01*
X98567904Y-85272571D01*
X99472666Y-84796380D02*
X100091714Y-84796380D01*
X99758380Y-85177333D01*
X99901238Y-85177333D01*
X99996476Y-85224952D01*
X100044095Y-85272571D01*
X100091714Y-85367809D01*
X100091714Y-85605904D01*
X100044095Y-85701142D01*
X99996476Y-85748761D01*
X99901238Y-85796380D01*
X99615523Y-85796380D01*
X99520285Y-85748761D01*
X99472666Y-85701142D01*
X118967333Y-107640380D02*
X118634000Y-107164190D01*
X118395904Y-107640380D02*
X118395904Y-106640380D01*
X118776857Y-106640380D01*
X118872095Y-106688000D01*
X118919714Y-106735619D01*
X118967333Y-106830857D01*
X118967333Y-106973714D01*
X118919714Y-107068952D01*
X118872095Y-107116571D01*
X118776857Y-107164190D01*
X118395904Y-107164190D01*
X119919714Y-106688000D02*
X119824476Y-106640380D01*
X119681619Y-106640380D01*
X119538761Y-106688000D01*
X119443523Y-106783238D01*
X119395904Y-106878476D01*
X119348285Y-107068952D01*
X119348285Y-107211809D01*
X119395904Y-107402285D01*
X119443523Y-107497523D01*
X119538761Y-107592761D01*
X119681619Y-107640380D01*
X119776857Y-107640380D01*
X119919714Y-107592761D01*
X119967333Y-107545142D01*
X119967333Y-107211809D01*
X119776857Y-107211809D01*
X120919714Y-107640380D02*
X120348285Y-107640380D01*
X120634000Y-107640380D02*
X120634000Y-106640380D01*
X120538761Y-106783238D01*
X120443523Y-106878476D01*
X120348285Y-106926095D01*
X108299333Y-85796380D02*
X107966000Y-85320190D01*
X107727904Y-85796380D02*
X107727904Y-84796380D01*
X108108857Y-84796380D01*
X108204095Y-84844000D01*
X108251714Y-84891619D01*
X108299333Y-84986857D01*
X108299333Y-85129714D01*
X108251714Y-85224952D01*
X108204095Y-85272571D01*
X108108857Y-85320190D01*
X107727904Y-85320190D01*
X109061238Y-85272571D02*
X109204095Y-85320190D01*
X109251714Y-85367809D01*
X109299333Y-85463047D01*
X109299333Y-85605904D01*
X109251714Y-85701142D01*
X109204095Y-85748761D01*
X109108857Y-85796380D01*
X108727904Y-85796380D01*
X108727904Y-84796380D01*
X109061238Y-84796380D01*
X109156476Y-84844000D01*
X109204095Y-84891619D01*
X109251714Y-84986857D01*
X109251714Y-85082095D01*
X109204095Y-85177333D01*
X109156476Y-85224952D01*
X109061238Y-85272571D01*
X108727904Y-85272571D01*
X109680285Y-84891619D02*
X109727904Y-84844000D01*
X109823142Y-84796380D01*
X110061238Y-84796380D01*
X110156476Y-84844000D01*
X110204095Y-84891619D01*
X110251714Y-84986857D01*
X110251714Y-85082095D01*
X110204095Y-85224952D01*
X109632666Y-85796380D01*
X110251714Y-85796380D01*
X108553333Y-107640380D02*
X108220000Y-107164190D01*
X107981904Y-107640380D02*
X107981904Y-106640380D01*
X108362857Y-106640380D01*
X108458095Y-106688000D01*
X108505714Y-106735619D01*
X108553333Y-106830857D01*
X108553333Y-106973714D01*
X108505714Y-107068952D01*
X108458095Y-107116571D01*
X108362857Y-107164190D01*
X107981904Y-107164190D01*
X109505714Y-106688000D02*
X109410476Y-106640380D01*
X109267619Y-106640380D01*
X109124761Y-106688000D01*
X109029523Y-106783238D01*
X108981904Y-106878476D01*
X108934285Y-107068952D01*
X108934285Y-107211809D01*
X108981904Y-107402285D01*
X109029523Y-107497523D01*
X109124761Y-107592761D01*
X109267619Y-107640380D01*
X109362857Y-107640380D01*
X109505714Y-107592761D01*
X109553333Y-107545142D01*
X109553333Y-107211809D01*
X109362857Y-107211809D01*
X109934285Y-106735619D02*
X109981904Y-106688000D01*
X110077142Y-106640380D01*
X110315238Y-106640380D01*
X110410476Y-106688000D01*
X110458095Y-106735619D01*
X110505714Y-106830857D01*
X110505714Y-106926095D01*
X110458095Y-107068952D01*
X109886666Y-107640380D01*
X110505714Y-107640380D01*
X98139333Y-107640380D02*
X97806000Y-107164190D01*
X97567904Y-107640380D02*
X97567904Y-106640380D01*
X97948857Y-106640380D01*
X98044095Y-106688000D01*
X98091714Y-106735619D01*
X98139333Y-106830857D01*
X98139333Y-106973714D01*
X98091714Y-107068952D01*
X98044095Y-107116571D01*
X97948857Y-107164190D01*
X97567904Y-107164190D01*
X99091714Y-106688000D02*
X98996476Y-106640380D01*
X98853619Y-106640380D01*
X98710761Y-106688000D01*
X98615523Y-106783238D01*
X98567904Y-106878476D01*
X98520285Y-107068952D01*
X98520285Y-107211809D01*
X98567904Y-107402285D01*
X98615523Y-107497523D01*
X98710761Y-107592761D01*
X98853619Y-107640380D01*
X98948857Y-107640380D01*
X99091714Y-107592761D01*
X99139333Y-107545142D01*
X99139333Y-107211809D01*
X98948857Y-107211809D01*
X99472666Y-106640380D02*
X100091714Y-106640380D01*
X99758380Y-107021333D01*
X99901238Y-107021333D01*
X99996476Y-107068952D01*
X100044095Y-107116571D01*
X100091714Y-107211809D01*
X100091714Y-107449904D01*
X100044095Y-107545142D01*
X99996476Y-107592761D01*
X99901238Y-107640380D01*
X99615523Y-107640380D01*
X99520285Y-107592761D01*
X99472666Y-107545142D01*
X87717333Y-107894380D02*
X87384000Y-107418190D01*
X87145904Y-107894380D02*
X87145904Y-106894380D01*
X87526857Y-106894380D01*
X87622095Y-106942000D01*
X87669714Y-106989619D01*
X87717333Y-107084857D01*
X87717333Y-107227714D01*
X87669714Y-107322952D01*
X87622095Y-107370571D01*
X87526857Y-107418190D01*
X87145904Y-107418190D01*
X88098285Y-106989619D02*
X88145904Y-106942000D01*
X88241142Y-106894380D01*
X88479238Y-106894380D01*
X88574476Y-106942000D01*
X88622095Y-106989619D01*
X88669714Y-107084857D01*
X88669714Y-107180095D01*
X88622095Y-107322952D01*
X88050666Y-107894380D01*
X88669714Y-107894380D01*
X83863619Y-103473238D02*
X83816000Y-103568476D01*
X83720761Y-103663714D01*
X83577904Y-103806571D01*
X83530285Y-103901809D01*
X83530285Y-103997047D01*
X83768380Y-103949428D02*
X83720761Y-104044666D01*
X83625523Y-104139904D01*
X83435047Y-104187523D01*
X83101714Y-104187523D01*
X82911238Y-104139904D01*
X82816000Y-104044666D01*
X82768380Y-103949428D01*
X82768380Y-103758952D01*
X82816000Y-103663714D01*
X82911238Y-103568476D01*
X83101714Y-103520857D01*
X83435047Y-103520857D01*
X83625523Y-103568476D01*
X83720761Y-103663714D01*
X83768380Y-103758952D01*
X83768380Y-103949428D01*
X83768380Y-102568476D02*
X83768380Y-103139904D01*
X83768380Y-102854190D02*
X82768380Y-102854190D01*
X82911238Y-102949428D01*
X83006476Y-103044666D01*
X83054095Y-103139904D01*
X130484571Y-96924761D02*
X130532190Y-96781904D01*
X130579809Y-96734285D01*
X130675047Y-96686666D01*
X130817904Y-96686666D01*
X130913142Y-96734285D01*
X130960761Y-96781904D01*
X131008380Y-96877142D01*
X131008380Y-97258095D01*
X130008380Y-97258095D01*
X130008380Y-96924761D01*
X130056000Y-96829523D01*
X130103619Y-96781904D01*
X130198857Y-96734285D01*
X130294095Y-96734285D01*
X130389333Y-96781904D01*
X130436952Y-96829523D01*
X130484571Y-96924761D01*
X130484571Y-97258095D01*
X131008380Y-95734285D02*
X131008380Y-96305714D01*
X131008380Y-96020000D02*
X130008380Y-96020000D01*
X130151238Y-96115238D01*
X130246476Y-96210476D01*
X130294095Y-96305714D01*
X93377047Y-82510380D02*
X93377047Y-83224666D01*
X93329428Y-83367523D01*
X93234190Y-83462761D01*
X93091333Y-83510380D01*
X92996095Y-83510380D01*
X94186571Y-82986571D02*
X94329428Y-83034190D01*
X94377047Y-83081809D01*
X94424666Y-83177047D01*
X94424666Y-83319904D01*
X94377047Y-83415142D01*
X94329428Y-83462761D01*
X94234190Y-83510380D01*
X93853238Y-83510380D01*
X93853238Y-82510380D01*
X94186571Y-82510380D01*
X94281809Y-82558000D01*
X94329428Y-82605619D01*
X94377047Y-82700857D01*
X94377047Y-82796095D01*
X94329428Y-82891333D01*
X94281809Y-82938952D01*
X94186571Y-82986571D01*
X93853238Y-82986571D01*
X94853238Y-83510380D02*
X94853238Y-82510380D01*
X95186571Y-83224666D01*
X95519904Y-82510380D01*
X95519904Y-83510380D01*
X95996095Y-83510380D02*
X95996095Y-82510380D01*
X96472285Y-83510380D02*
X96472285Y-82510380D01*
X96710380Y-82510380D01*
X96853238Y-82558000D01*
X96948476Y-82653238D01*
X96996095Y-82748476D01*
X97043714Y-82938952D01*
X97043714Y-83081809D01*
X96996095Y-83272285D01*
X96948476Y-83367523D01*
X96853238Y-83462761D01*
X96710380Y-83510380D01*
X96472285Y-83510380D01*
X97472285Y-83510380D02*
X97472285Y-82510380D01*
X98472285Y-83510380D02*
X97900857Y-83510380D01*
X98186571Y-83510380D02*
X98186571Y-82510380D01*
X98091333Y-82653238D01*
X97996095Y-82748476D01*
X97900857Y-82796095D01*
X126508095Y-110704380D02*
X126508095Y-111418666D01*
X126460476Y-111561523D01*
X126365238Y-111656761D01*
X126222380Y-111704380D01*
X126127142Y-111704380D01*
X127317619Y-111180571D02*
X127460476Y-111228190D01*
X127508095Y-111275809D01*
X127555714Y-111371047D01*
X127555714Y-111513904D01*
X127508095Y-111609142D01*
X127460476Y-111656761D01*
X127365238Y-111704380D01*
X126984285Y-111704380D01*
X126984285Y-110704380D01*
X127317619Y-110704380D01*
X127412857Y-110752000D01*
X127460476Y-110799619D01*
X127508095Y-110894857D01*
X127508095Y-110990095D01*
X127460476Y-111085333D01*
X127412857Y-111132952D01*
X127317619Y-111180571D01*
X126984285Y-111180571D01*
X128555714Y-111704380D02*
X128222380Y-111228190D01*
X127984285Y-111704380D02*
X127984285Y-110704380D01*
X128365238Y-110704380D01*
X128460476Y-110752000D01*
X128508095Y-110799619D01*
X128555714Y-110894857D01*
X128555714Y-111037714D01*
X128508095Y-111132952D01*
X128460476Y-111180571D01*
X128365238Y-111228190D01*
X127984285Y-111228190D01*
X128841428Y-110704380D02*
X129174761Y-111704380D01*
X129508095Y-110704380D01*
X130365238Y-111704380D02*
X129793809Y-111704380D01*
X130079523Y-111704380D02*
X130079523Y-110704380D01*
X129984285Y-110847238D01*
X129889047Y-110942476D01*
X129793809Y-110990095D01*
X87717333Y-104846380D02*
X87384000Y-104370190D01*
X87145904Y-104846380D02*
X87145904Y-103846380D01*
X87526857Y-103846380D01*
X87622095Y-103894000D01*
X87669714Y-103941619D01*
X87717333Y-104036857D01*
X87717333Y-104179714D01*
X87669714Y-104274952D01*
X87622095Y-104322571D01*
X87526857Y-104370190D01*
X87145904Y-104370190D01*
X88669714Y-104846380D02*
X88098285Y-104846380D01*
X88384000Y-104846380D02*
X88384000Y-103846380D01*
X88288761Y-103989238D01*
X88193523Y-104084476D01*
X88098285Y-104132095D01*
X85534761Y-101798380D02*
X85201428Y-101322190D01*
X84963333Y-101798380D02*
X84963333Y-100798380D01*
X85344285Y-100798380D01*
X85439523Y-100846000D01*
X85487142Y-100893619D01*
X85534761Y-100988857D01*
X85534761Y-101131714D01*
X85487142Y-101226952D01*
X85439523Y-101274571D01*
X85344285Y-101322190D01*
X84963333Y-101322190D01*
X85915714Y-101750761D02*
X86058571Y-101798380D01*
X86296666Y-101798380D01*
X86391904Y-101750761D01*
X86439523Y-101703142D01*
X86487142Y-101607904D01*
X86487142Y-101512666D01*
X86439523Y-101417428D01*
X86391904Y-101369809D01*
X86296666Y-101322190D01*
X86106190Y-101274571D01*
X86010952Y-101226952D01*
X85963333Y-101179333D01*
X85915714Y-101084095D01*
X85915714Y-100988857D01*
X85963333Y-100893619D01*
X86010952Y-100846000D01*
X86106190Y-100798380D01*
X86344285Y-100798380D01*
X86487142Y-100846000D01*
X87106190Y-101322190D02*
X87106190Y-101798380D01*
X86772857Y-100798380D02*
X87106190Y-101322190D01*
X87439523Y-100798380D01*
X87772857Y-101798380D02*
X87772857Y-100798380D01*
X88344285Y-101798380D01*
X88344285Y-100798380D01*
X89391904Y-101703142D02*
X89344285Y-101750761D01*
X89201428Y-101798380D01*
X89106190Y-101798380D01*
X88963333Y-101750761D01*
X88868095Y-101655523D01*
X88820476Y-101560285D01*
X88772857Y-101369809D01*
X88772857Y-101226952D01*
X88820476Y-101036476D01*
X88868095Y-100941238D01*
X88963333Y-100846000D01*
X89106190Y-100798380D01*
X89201428Y-100798380D01*
X89344285Y-100846000D01*
X89391904Y-100893619D01*
X90344285Y-101798380D02*
X89772857Y-101798380D01*
X90058571Y-101798380D02*
X90058571Y-100798380D01*
X89963333Y-100941238D01*
X89868095Y-101036476D01*
X89772857Y-101084095D01*
M02*
